<?xml version="1.0" encoding="UTF-8" standalone="no"?>
<!-- Created with Inkscape (http://www.inkscape.org/) -->

<svg
   xmlns:dc="http://purl.org/dc/elements/1.1/"
   xmlns:cc="http://creativecommons.org/ns#"
   xmlns:rdf="http://www.w3.org/1999/02/22-rdf-syntax-ns#"
   xmlns:svg="http://www.w3.org/2000/svg"
   xmlns="http://www.w3.org/2000/svg"
   xmlns:sodipodi="http://sodipodi.sourceforge.net/DTD/sodipodi-0.dtd"
   xmlns:inkscape="http://www.inkscape.org/namespaces/inkscape"
   width="28"
   height="28"
   viewBox="0 0 28 28.000001"
   id="svg4142"
   version="1.1"
   inkscape:version="0.92.3 (2405546, 2018-03-11)"
   sodipodi:docname="close-prelight.svg">
  <defs
     id="defs4144" />
  <sodipodi:namedview
     id="base"
     pagecolor="#0c0e14"
     bordercolor="#666666"
     borderopacity="1.0"
     inkscape:pageopacity="0.0"
     inkscape:pageshadow="2"
     inkscape:zoom="9.0623161"
     inkscape:cx="11.588311"
     inkscape:cy="15.789292"
     inkscape:document-units="px"
     inkscape:current-layer="layer1"
     showgrid="true"
     units="px"
     inkscape:window-width="1366"
     inkscape:window-height="714"
     inkscape:window-x="0"
     inkscape:window-y="22"
     inkscape:window-maximized="1">
    <inkscape:grid
       type="xygrid"
       id="grid4690" />
  </sodipodi:namedview>
  <metadata
     id="metadata4147">
    <rdf:RDF>
      <cc:Work
         rdf:about="">
        <dc:format>image/svg+xml</dc:format>
        <dc:type
           rdf:resource="http://purl.org/dc/dcmitype/StillImage" />
        <dc:title />
      </cc:Work>
    </rdf:RDF>
  </metadata>
  <g
     inkscape:label="Layer 1"
     inkscape:groupmode="layer"
     id="layer1"
     transform="translate(0,-1024.3622)">
    <path
       style="opacity:1;fill:#0c0e14;fill-opacity:1;fill-rule:evenodd;stroke:none;stroke-width:2.74499989;stroke-linecap:butt;stroke-linejoin:miter;stroke-miterlimit:4;stroke-dasharray:none;stroke-dashoffset:478.43673706;stroke-opacity:1"
       d="m 0,1020.3622 v 32 h 28 v -32 z"
       id="rect4741"
       inkscape:connector-curvature="0" />
    <rect
       style="opacity:1;fill:#0c0e14;fill-opacity:0.07000002;fill-rule:evenodd;stroke:none;stroke-width:2.74499989;stroke-linecap:butt;stroke-linejoin:miter;stroke-miterlimit:4;stroke-dasharray:none;stroke-dashoffset:478.43673706;stroke-opacity:1"
       id="rect4142"
       width="28"
       height="1"
       x="0"
       y="1020.3622" />
    <path
       id="path4094"
       style="fill:#d52735;fill-opacity:1;fill-rule:evenodd;stroke:none;stroke-width:0.01265625"
       d="m 14.000062,1045.3622 c 3.865928,0 6.999937,-3.134 6.999937,-7 0,-3.866 -3.134009,-7 -6.999937,-7 -3.866043,0 -7.000062,3.134 -7.000062,7 0,3.866 3.134019,7 7.000062,7"
       inkscape:connector-curvature="0" />
    <g
       id="g4144"
       transform="matrix(0.01351731,0,0,-0.01351731,6.9333283,1045.4124)">
      <path
         inkscape:connector-curvature="0"
         d="m 522.79173,40.6992 c 265.56911,0 480.85987,215.29542 480.85987,480.86946 0,265.57526 -215.29076,480.86604 -480.85987,480.86604 -265.57896,0 -480.86983,-215.29078 -480.86983,-480.86604 0,-265.57404 215.29087,-480.86946 480.86983,-480.86946"
         style="fill:#f25056;fill-opacity:1;fill-rule:evenodd;stroke:none"
         id="path4096" />
      <path
         inkscape:connector-curvature="0"
         id="path4098"
         d="m 306.28404,782.14979 c -11.06764,0 -22.15209,-4.31529 -30.55026,-12.71345 l -0.75901,-0.75902 c -16.79758,-16.79634 -16.79758,-44.30417 0,-61.10052 L 460.93287,521.6187 274.97477,335.47086 c -16.79266,-16.79145 -16.79266,-44.11445 0,-60.91075 l 0.75901,-0.94881 c 16.79142,-16.7963 44.30418,-16.7963 61.10051,0 L 522.7924,459.56941 708.7505,273.6113 c 16.79265,-16.7963 44.30417,-16.7963 61.10052,0 l 0.75901,0.94881 c 16.79142,16.79144 16.79142,44.1193 0,60.91075 l -185.9581,186.14784 185.9581,185.9581 c 16.79142,16.79635 16.79635,44.3091 0,61.10052 l -0.75901,0.75902 c -16.80126,16.79142 -44.30787,16.79142 -61.10052,0 L 522.7924,583.47823 336.83429,769.43634 c -8.39817,8.39816 -19.48262,12.71345 -30.55025,12.71345 z"
         style="fill:#9f1d2b;fill-opacity:1;fill-rule:evenodd;stroke:none" />
    </g>
  </g>
</svg>
