<?xml version="1.0" encoding="UTF-8" standalone="no"?>
<!-- Created with Inkscape (http://www.inkscape.org/) -->

<svg
   xmlns:dc="http://purl.org/dc/elements/1.1/"
   xmlns:cc="http://creativecommons.org/ns#"
   xmlns:rdf="http://www.w3.org/1999/02/22-rdf-syntax-ns#"
   xmlns:svg="http://www.w3.org/2000/svg"
   xmlns="http://www.w3.org/2000/svg"
   xmlns:sodipodi="http://sodipodi.sourceforge.net/DTD/sodipodi-0.dtd"
   xmlns:inkscape="http://www.inkscape.org/namespaces/inkscape"
   width="28"
   height="28"
   viewBox="0 0 28 28.000001"
   id="svg4142"
   version="1.1"
   inkscape:version="0.92.3 (2405546, 2018-03-11)"
   sodipodi:docname="hide-prelight.svg">
  <defs
     id="defs4144" />
  <sodipodi:namedview
     id="base"
     pagecolor="#0c0e14"
     bordercolor="#666666"
     borderopacity="1.0"
     inkscape:pageopacity="0.0"
     inkscape:pageshadow="2"
     inkscape:zoom="18.589366"
     inkscape:cx="6.0440012"
     inkscape:cy="13.168002"
     inkscape:document-units="px"
     inkscape:current-layer="layer1"
     showgrid="true"
     units="px"
     inkscape:window-width="1366"
     inkscape:window-height="714"
     inkscape:window-x="0"
     inkscape:window-y="22"
     inkscape:window-maximized="1">
    <inkscape:grid
       type="xygrid"
       id="grid4690" />
  </sodipodi:namedview>
  <metadata
     id="metadata4147">
    <rdf:RDF>
      <cc:Work
         rdf:about="">
        <dc:format>image/svg+xml</dc:format>
        <dc:type
           rdf:resource="http://purl.org/dc/dcmitype/StillImage" />
        <dc:title />
      </cc:Work>
    </rdf:RDF>
  </metadata>
  <g
     inkscape:label="Layer 1"
     inkscape:groupmode="layer"
     id="layer1"
     transform="translate(0,-1024.3622)">
    <rect
       style="opacity:1;fill:#0c0e14;fill-opacity:1;fill-rule:evenodd;stroke:none;stroke-width:2.74499989;stroke-linecap:butt;stroke-linejoin:miter;stroke-miterlimit:4;stroke-dasharray:none;stroke-dashoffset:478.43673706;stroke-opacity:1"
       id="rect4741"
       width="28"
       height="32"
       x="0"
       y="1020.3622" />
    <rect
       style="opacity:1;fill:#0c0e14;fill-opacity:0.07000002;fill-rule:evenodd;stroke:none;stroke-width:2.74499989;stroke-linecap:butt;stroke-linejoin:miter;stroke-miterlimit:4;stroke-dasharray:none;stroke-dashoffset:478.43673706;stroke-opacity:1"
       id="rect4959"
       width="28"
       height="1"
       x="0"
       y="1020.3622" />
    <g
       transform="matrix(0.1265625,0,0,-0.1265625,6.8773709,1044.8806)"
       inkscape:label="ink_ext_XXXXXX"
       id="g4285">
      <path
         inkscape:connector-curvature="0"
         d="m 56.277533,-3.8051186 c 30.546127,0 55.308677,24.7625166 55.308677,55.3086436 0,30.54561 -24.76255,55.308165 -55.308677,55.308165 -30.545998,0 -55.30861206,-24.762555 -55.30861206,-55.308165 0,-30.546127 24.76261406,-55.3086436 55.30861206,-55.3086436"
         style="fill:#da9e10;fill-opacity:1;fill-rule:evenodd;stroke:none"
         id="path4417" />
      <g
         id="g4152"
         transform="matrix(1.0148899,0,0,1.0148899,-0.8432698,-5.0312058)">
        <path
           id="path4419"
           style="fill:#fac536;fill-opacity:1;fill-rule:evenodd;stroke:none"
           d="m 56.283048,5.1005059 c 27.94807,0 50.604272,22.6563571 50.604272,50.6048151 0,27.947941 -22.656202,50.604269 -50.604272,50.604269 -27.947941,0 -50.6047894,-22.656328 -50.6047894,-50.604269 0,-27.948458 22.6568484,-50.6048151 50.6047894,-50.6048151"
           inkscape:connector-curvature="0" />
        <path
           id="path4421"
           style="fill:#975914;fill-opacity:1;fill-rule:evenodd;stroke:none"
           d="m 23.994703,60.30905 h 64.576819 c 2.499455,0 4.544076,-2.044103 4.544076,-4.544076 v -0.119823 c 0,-2.499973 -2.044621,-4.544077 -4.544076,-4.544077 H 23.994703 c -2.499585,0 -4.544076,2.044104 -4.544076,4.544077 v 0.119823 c 0,2.499973 2.044491,4.544076 4.544076,4.544076"
           inkscape:connector-curvature="0" />
      </g>
    </g>
  </g>
</svg>
