<?xml version="1.0" encoding="UTF-8" standalone="no"?>
<svg
   xmlns:dc="http://purl.org/dc/elements/1.1/"
   xmlns:cc="http://creativecommons.org/ns#"
   xmlns:rdf="http://www.w3.org/1999/02/22-rdf-syntax-ns#"
   xmlns:svg="http://www.w3.org/2000/svg"
   xmlns="http://www.w3.org/2000/svg"
   xmlns:sodipodi="http://sodipodi.sourceforge.net/DTD/sodipodi-0.dtd"
   xmlns:inkscape="http://www.inkscape.org/namespaces/inkscape"
   version="1.1"
   id="svg2"
   viewBox="0 0 54 32"
   sodipodi:docname="akregator.svgz"
   inkscape:version="0.92.2 (5c3e80d, 2017-08-06)">
  <sodipodi:namedview
     pagecolor="#ffffff"
     bordercolor="#666666"
     borderopacity="1"
     objecttolerance="10"
     gridtolerance="10"
     guidetolerance="10"
     inkscape:pageopacity="0"
     inkscape:pageshadow="2"
     inkscape:window-width="1920"
     inkscape:window-height="1017"
     id="namedview12"
     showgrid="false"
     inkscape:zoom="8"
     inkscape:cx="28.600987"
     inkscape:cy="5.4365445"
     inkscape:window-x="-8"
     inkscape:window-y="-8"
     inkscape:window-maximized="1"
     inkscape:current-layer="svg2" />
  <metadata
     id="metadata18">
    <rdf:RDF>
      <cc:Work
         rdf:about="">
        <dc:format>image/svg+xml</dc:format>
        <dc:type
           rdf:resource="http://purl.org/dc/dcmitype/StillImage" />
        <dc:title />
      </cc:Work>
    </rdf:RDF>
  </metadata>
  <defs
     id="defs3051">
    <style
       type="text/css"
       id="current-color-scheme">
      .ColorScheme-Text {
        color:#31363b;
      }
      </style>
    <pattern
       y="0"
       x="0"
       height="6"
       width="6"
       patternUnits="userSpaceOnUse"
       id="EMFhbasepattern" />
  </defs>
  <g
     transform="matrix(3.7795275,0,0,3.7795275,8.2434178e-7,-1090.5197)"
     id="22-22-akregator">
    <path
       inkscape:connector-curvature="0"
       transform="matrix(0.26458333,0,0,0.26458333,0,291.17916)"
       id="path1460"
       d="m 2,8 v 1 2 1 a 7.9999993,7.9999993 0 0 1 0.7988281,0.03906 7.9999993,7.9999993 0 0 1 0.7910157,0.121094 7.9999993,7.9999993 0 0 1 0.7734374,0.197266 7.9999993,7.9999993 0 0 1 0.7519532,0.273437 7.9999993,7.9999993 0 0 1 0.7207031,0.347657 7.9999993,7.9999993 0 0 1 0.6816406,0.417968 7.9999993,7.9999993 0 0 1 0.6367188,0.484375 7.9999993,7.9999993 0 0 1 0.5839843,0.544922 7.9999993,7.9999993 0 0 1 0.5292969,0.601563 7.9999993,7.9999993 0 0 1 0.4648438,0.65039 7.9999993,7.9999993 0 0 1 0.3964843,0.69336 7.9999993,7.9999993 0 0 1 0.328125,0.730468 7.9999993,7.9999993 0 0 1 0.2519532,0.757813 7.9999993,7.9999993 0 0 1 0.1738281,0.78125 7.9999993,7.9999993 0 0 1 0.097656,0.792969 A 7.9999993,7.9999993 0 0 1 10,20 h 1 2 1 A 12,12 0 0 0 13.970703,19.150391 12,12 0 0 0 13.953125,19 h -0.0039 A 12,12 0 0 0 4.234375,8.2167969 12,12 0 0 0 4.1269531,8.1992188 12,12 0 0 0 3.0722656,8.0546875 12,12 0 0 0 2,8 Z M 3,9.0507812 A 11,11 0 0 1 12.945312,19 H 10.939453 A 8.9999993,8.9999993 0 0 0 3,11.066406 Z"
       style="fill:#C3C7D1;fill-opacity:1;stroke-width:1.00086904" />
    <path
       sodipodi:nodetypes="cccccccccccccccccc"
       inkscape:connector-curvature="0"
       id="path1381"
       transform="matrix(0.26458333,0,0,0.26458333,0,291.17916)"
       d="m 2,2 v 1 2 1 c 7.7319865,0 14,6.268014 14,14 h 1 2 1 l -0.05,-1 h -7.8e-4 C 19.437381,9.8569317 12.142593,2.5554184 3,2.0351562 V 2.03 Z M 3,3.0488281 C 11.592434,3.5574698 18.448841,10.408005 18.964844,19 H 16.951172 C 16.45034,11.50987 10.489635,5.543324 3,5.0351562 Z"
       style="fill:#C3C7D1;fill-opacity:1;stroke-width:0.89999992" />
    <path
       inkscape:connector-curvature="0"
       id="path1464"
       transform="matrix(0.26458333,0,0,0.26458333,0,291.17916)"
       d="M 4.5,15 A 2.5000001,2.4999817 0 0 0 2,17.5 2.5000001,2.4999817 0 0 0 4.5,20 2.5000001,2.4999817 0 0 0 7,17.5 2.5000001,2.4999817 0 0 0 4.5,15 Z m 0,1 A 1.5,1.4999889 0 0 1 6,17.5 1.5,1.4999889 0 0 1 4.5,19 1.5,1.4999889 0 0 1 3,17.5 1.5,1.4999889 0 0 1 4.5,16 Z"
       style="fill:#C3C7D1;fill-opacity:1;stroke-width:1.24999547" />
    <rect
       y="291.17917"
       x="0"
       height="5.8208332"
       width="5.8208332"
       id="rect1469"
       style="fill:#ffffff;fill-opacity:0;stroke-width:0.26458332" />
  </g>
  <g
     id="akregator"
     transform="translate(-0.890992,-10.87339)">
    <path
       inkscape:connector-curvature="0"
       style="fill:#C3C7D1;fill-opacity:1;fill-rule:nonzero;stroke:none"
       d="m 25.85097,13.913572 v 0.959993 3.039977 0.159999 0.799994 c 11.599914,0 21.039844,9.43993 21.039844,21.039844 h 0.799994 0.159999 3.039978 0.959992 c 0,-14.399893 -11.599914,-25.999807 -25.999807,-25.999807 z m 1.039992,1.039992 c 13.039904,0.479997 23.439827,10.879919 23.999823,23.919823 H 47.850807 C 47.290811,27.513471 38.250878,18.473538 26.890962,17.913542 Z m -1.039992,6.959948 v 0.959993 3.039978 0.159998 0.799994 c 7.199947,0 13.039903,5.839957 13.039903,13.039904 h 0.799995 0.159998 3.039978 0.959993 c 0.08,-9.999926 -7.999941,-17.999867 -17.999867,-17.999867 z m 1.039992,1.039993 c 8.559937,0.479996 15.439886,7.359945 15.999882,15.919882 H 39.850866 C 39.37087,31.913438 33.850911,26.393479 26.890962,25.913483 Z m 2.959978,8.959933 c -2.159984,0 -3.99997,1.759987 -3.99997,3.999971 0,2.159984 1.839986,3.99997 3.99997,3.99997 2.239983,0 3.999971,-1.839986 3.999971,-3.99997 0,-2.239984 -1.759988,-3.999971 -3.999971,-3.999971 z m 0,0.959993 c 1.679988,0 3.039977,1.35999 3.039977,3.039978 0,1.599988 -1.359989,2.959978 -3.039977,2.959978 -1.599988,0 -2.959978,-1.35999 -2.959978,-2.959978 0,-1.679988 1.35999,-3.039978 2.959978,-3.039978 z"
       id="path841" />
    <path
       inkscape:connector-curvature="0"
       style="fill:#ffffff;fill-opacity:0;fill-rule:nonzero;stroke:none"
       d="M 22.890992,10.873594 H 54.890755 V 42.873357 H 22.890992 Z"
       id="path843" />
  </g>
</svg>
