<?xml version="1.0" encoding="UTF-8" standalone="no"?>
<svg
   xmlns:dc="http://purl.org/dc/elements/1.1/"
   xmlns:cc="http://creativecommons.org/ns#"
   xmlns:rdf="http://www.w3.org/1999/02/22-rdf-syntax-ns#"
   xmlns:svg="http://www.w3.org/2000/svg"
   xmlns="http://www.w3.org/2000/svg"
   xmlns:sodipodi="http://sodipodi.sourceforge.net/DTD/sodipodi-0.dtd"
   xmlns:inkscape="http://www.inkscape.org/namespaces/inkscape"
   version="1.1"
   id="svg2"
   viewBox="0 0 54 32"
   inkscape:version="0.92.2 5c3e80d, 2017-08-06"
   sodipodi:docname="amarok.svgz"
   width="54"
   height="32">
  <sodipodi:namedview
     pagecolor="#ffffff"
     bordercolor="#666666"
     borderopacity="1"
     objecttolerance="10"
     gridtolerance="10"
     guidetolerance="10"
     inkscape:pageopacity="0"
     inkscape:pageshadow="2"
     inkscape:window-width="1920"
     inkscape:window-height="1011"
     id="namedview12"
     showgrid="true"
     inkscape:zoom="11.313709"
     inkscape:cx="1.7786916"
     inkscape:cy="9.4847968"
     inkscape:window-x="0"
     inkscape:window-y="0"
     inkscape:window-maximized="1"
     inkscape:current-layer="svg2"
     fit-margin-top="0"
     fit-margin-left="0"
     fit-margin-right="0"
     fit-margin-bottom="0"
     showguides="true"
     inkscape:guide-bbox="true"
     inkscape:snap-bbox="true"
     inkscape:bbox-nodes="true" />
  <metadata
     id="metadata18">
    <rdf:RDF>
      <cc:Work
         rdf:about="">
        <dc:format>image/svg+xml</dc:format>
        <dc:type
           rdf:resource="http://purl.org/dc/dcmitype/StillImage" />
        <dc:title></dc:title>
      </cc:Work>
    </rdf:RDF>
  </metadata>
  <defs
     id="defs3051">
    <style
       id="current-color-scheme"
       type="text/css">
      .ColorScheme-Text {
        color:#31363b;
      }
      </style>
  </defs>
  <g
     id="22-22-amarok"
     transform="translate(0,10)">
    <g
       id="g846">
      <path
         style="opacity:1;fill:#C3C7D1;fill-opacity:1;stroke:none"
         d="m 11,2 a 9,9 0 0 0 -9,9 9,9 0 0 0 9,9 9,9 0 0 0 9,-9 9,9 0 0 0 -6,-8.4746094 V 3.5898438 A 8,8 0 0 1 19,11 8,8 0 0 1 11,19 8,8 0 0 1 3,11 8,8 0 0 1 11,3 8,8 0 0 1 12,3.0703125 V 2.0664062 A 9,9 0 0 0 11,2 Z"
         id="path823"
         inkscape:connector-curvature="0" />
      <path
         style="opacity:1;fill:#C3C7D1;fill-opacity:1;stroke:none;stroke-width:1.33333337"
         d="m 14,3 v 7.361328 A 4,4 0 0 0 11,9 a 4,4 0 0 0 -4,4 4,4 0 0 0 4,4 4,4 0 0 0 4,-4 V 3 Z m -3,7 a 3,3 0 0 1 3,3 3,3 0 0 1 -3,3 3,3 0 0 1 -3,-3 3,3 0 0 1 3,-3 z"
         id="path833"
         inkscape:connector-curvature="0" />
    </g>
    <rect
       y="0"
       x="0"
       height="22"
       width="22"
       id="rect830"
       style="opacity:0.6;fill:#808000;fill-opacity:0;stroke:none" />
  </g>
  <g
     id="amarok"
     transform="translate(22)">
    <path
       id="path846"
       d="M 16,3 A 13,13 0 0 0 3,16 13,13 0 0 0 16,29 13,13 0 0 0 29,16 13,13 0 0 0 21,4.0117188 V 5.1054688 8 15.691406 A 6,6 0 0 0 16,13 a 6,6 0 0 0 -6,6 6,6 0 0 0 6,6 6,6 0 0 0 6,-6 V 5.6191406 A 12,12 0 0 1 28,16 12,12 0 0 1 16,28 12,12 0 0 1 4,16 12,12 0 0 1 16,4 12,12 0 0 1 18,4.1875 V 3.1640625 A 13,13 0 0 0 16,3 Z m 0,11 a 5,5 0 0 1 5,5 5,5 0 0 1 -5,5 5,5 0 0 1 -5,-5 5,5 0 0 1 5,-5 z"
       style="opacity:1;fill:#C3C7D1;fill-opacity:1;stroke:none"
       inkscape:connector-curvature="0" />
    <rect
       y="0"
       x="0"
       height="32"
       width="32"
       id="rect862"
       style="opacity:1;fill:#808000;fill-opacity:0;stroke:none" />
  </g>
</svg>
