<?xml version="1.0" encoding="UTF-8" standalone="no"?>
<svg
   xmlns:dc="http://purl.org/dc/elements/1.1/"
   xmlns:cc="http://creativecommons.org/ns#"
   xmlns:rdf="http://www.w3.org/1999/02/22-rdf-syntax-ns#"
   xmlns:svg="http://www.w3.org/2000/svg"
   xmlns="http://www.w3.org/2000/svg"
   xmlns:sodipodi="http://sodipodi.sourceforge.net/DTD/sodipodi-0.dtd"
   xmlns:inkscape="http://www.inkscape.org/namespaces/inkscape"
   version="1.1"
   id="svg2"
   viewBox="0 0 54 32"
   inkscape:version="0.92.3 (2405546, 2018-03-11)"
   sodipodi:docname="apport.svg">
  <sodipodi:namedview
     pagecolor="#ffffff"
     bordercolor="#666666"
     borderopacity="1"
     objecttolerance="10"
     gridtolerance="10"
     guidetolerance="10"
     inkscape:pageopacity="0"
     inkscape:pageshadow="2"
     inkscape:window-width="1920"
     inkscape:window-height="1009"
     id="namedview12"
     showgrid="true"
     inkscape:zoom="14.75"
     inkscape:cx="25.222422"
     inkscape:cy="11.267246"
     inkscape:window-x="0"
     inkscape:window-y="0"
     inkscape:window-maximized="1"
     inkscape:current-layer="svg2">
    <inkscape:grid
       type="xygrid"
       id="grid818" />
  </sodipodi:namedview>
  <metadata
     id="metadata18">
    <rdf:RDF>
      <cc:Work
         rdf:about="">
        <dc:format>image/svg+xml</dc:format>
        <dc:type
           rdf:resource="http://purl.org/dc/dcmitype/StillImage" />
        <dc:title></dc:title>
      </cc:Work>
    </rdf:RDF>
  </metadata>
  <defs
     id="defs3051">
    <style
       id="current-color-scheme"
       type="text/css">
      .ColorScheme-Text {
        color:#31363b;
      }
      </style>
  </defs>
  <g
     style="clip-rule:evenodd;fill-rule:evenodd;stroke-linejoin:round;stroke-miterlimit:1.41420996"
     id="22-22-apport"
     transform="translate(0,10)">
    <path
       inkscape:connector-curvature="0"
       id="path2"
       style="fill:#C3C7D1"
       d="M 20,20 H 2 V 2 H 20 Z M 3,3 V 19 H 19 V 3 Z m 8,11 c 0.552,0 1,0.448 1,1 0,0.552 -0.448,1 -1,1 -0.552,0 -1,-0.448 -1,-1 0,-0.552 0.448,-1 1,-1 z M 12,7 C 12,6.448 11.552,6 11,6 10.448,6 10,6.448 10,7 v 5 c 0,0.552 0.448,1 1,1 0.552,0 1,-0.448 1,-1 z" />
    <rect
       y="0"
       x="0"
       height="22"
       width="22"
       id="rect817"
       style="fill:#ffffff;fill-opacity:0;stroke-width:0.99173671" />
  </g>
  <g
     style="clip-rule:evenodd;fill-rule:evenodd;stroke-linejoin:round;stroke-miterlimit:1.41420996"
     id="apport"
     transform="translate(22)">
    <path
       inkscape:connector-curvature="0"
       id="path2-5"
       style="fill:#C3C7D1"
       d="M 3,27 V 5 H 29 V 27 Z M 28,10 H 4 V 26 H 28 Z M 16,22 c 0.552,0 1,0.448 1,1 0,0.552 -0.448,1 -1,1 -0.552,0 -1,-0.448 -1,-1 0,-0.552 0.448,-1 1,-1 z m 1,-9 c 0,-0.552 -0.448,-1 -1,-1 -0.552,0 -1,0.448 -1,1 v 7 c 0,0.552 0.448,1 1,1 0.552,0 1,-0.448 1,-1 z M 4,6 V 9 H 28 V 6 Z M 27,8 H 25 V 7 h 2 z M 24,8 H 22 V 7 h 2 z M 21,8 H 19 V 7 h 2 z"
       sodipodi:nodetypes="ccccccccccsssssssssssscccccccccccccccccccc" />
    <rect
       y="0"
       x="0"
       height="32"
       width="32"
       id="rect817-7"
       style="fill:#ffffff;fill-opacity:0;stroke-width:1.0068109" />
  </g>
</svg>
