<?xml version="1.0" encoding="UTF-8" standalone="no"?>
<!-- Created with Inkscape (http://www.inkscape.org/) -->

<svg
   xmlns:dc="http://purl.org/dc/elements/1.1/"
   xmlns:cc="http://creativecommons.org/ns#"
   xmlns:rdf="http://www.w3.org/1999/02/22-rdf-syntax-ns#"
   xmlns:svg="http://www.w3.org/2000/svg"
   xmlns="http://www.w3.org/2000/svg"
   xmlns:sodipodi="http://sodipodi.sourceforge.net/DTD/sodipodi-0.dtd"
   xmlns:inkscape="http://www.inkscape.org/namespaces/inkscape"
   width="22"
   height="22"
   id="svg7229"
   sodipodi:version="0.32"
   inkscape:version="0.92.3 (2405546, 2018-03-11)"
   version="1.0"
   sodipodi:docname="battery.svgz"
   inkscape:output_extension="org.inkscape.output.svgz.inkscape"
   viewBox="0 0 22 22">
  <defs
     id="defs7231">
    <style
       id="current-color-scheme"
       type="text/css">
      .ColorScheme-Text {
        color:#31363b;
      }
      .ColorScheme-Background{
        color:#eff0f1;
      }
      .ColorScheme-ViewText {
        color:#31363b;
      }
      .ColorScheme-ViewBackground{
        color:#ffffff;
      }
      .ColorScheme-ViewHover {
        color:#000000;
      }
      .ColorScheme-ViewFocus{
        color:#5a5a5a;
      }
      .ColorScheme-ButtonText {
        color:#31363b;
      }
      .ColorScheme-ButtonBackground{
        color:#E9E8E8;
      }
      .ColorScheme-ButtonHover {
        color:#1489ff;
      }
      .ColorScheme-ButtonFocus{
        color:#2B74C7;
      }
</style>
    <style
       type="text/css"
       id="style5">
      .ColorScheme-Text {
        color:#31363b;
      }
      .ColorScheme-Background {
        color:#eff0f1;
      }
      .ColorScheme-Highlight {
        color:#3daee9;
      }
      .ColorScheme-ViewText {
        color:#31363b;
      }
      .ColorScheme-ViewBackground {
        color:#fcfcfc;
      }
      .ColorScheme-ViewHover {
        color:#93cee9;
      }
      .ColorScheme-ViewFocus{
        color:#3daee9;
      }
      .ColorScheme-ButtonText {
        color:#31363b;
      }
      .ColorScheme-ButtonBackground {
        color:#eff0f1;
      }
      .ColorScheme-ButtonHover {
        color:#93cee9;
      }
      .ColorScheme-ButtonFocus{
        color:#3daee9;
      }
      </style>
  </defs>
  <sodipodi:namedview
     id="base"
     pagecolor="#ffffff"
     bordercolor="#666666"
     borderopacity="1.0"
     inkscape:pageopacity="0"
     inkscape:pageshadow="2"
     inkscape:zoom="2"
     inkscape:cx="73.258656"
     inkscape:cy="95.170445"
     inkscape:document-units="px"
     inkscape:current-layer="layer1"
     showgrid="true"
     inkscape:window-width="1920"
     inkscape:window-height="1011"
     inkscape:window-x="0"
     inkscape:window-y="0"
     showguides="true"
     inkscape:guide-bbox="true"
     gridtolerance="10000"
     inkscape:window-maximized="1"
     inkscape:snap-bbox="true"
     inkscape:showpageshadow="false"
     borderlayer="true"
     inkscape:object-nodes="true"
     inkscape:measure-start="8,13"
     inkscape:measure-end="195,13">
    <inkscape:grid
       type="xygrid"
       id="grid3780"
       empspacing="5"
       visible="true"
       enabled="true"
       snapvisiblegridlinesonly="true" />
  </sodipodi:namedview>
  <metadata
     id="metadata7234">
    <rdf:RDF>
      <cc:Work
         rdf:about="">
        <dc:format>image/svg+xml</dc:format>
        <dc:type
           rdf:resource="http://purl.org/dc/dcmitype/StillImage" />
        <dc:title />
      </cc:Work>
    </rdf:RDF>
  </metadata>
  <g
     inkscape:label="Camada 1"
     inkscape:groupmode="layer"
     id="layer1"
     transform="translate(-214.53572,-404.50504)">
    <g
       style="clip-rule:evenodd;fill-rule:evenodd;stroke-linejoin:round;stroke-miterlimit:1.41420996"
       id="Fill100"
       transform="translate(182.53572,364.50504)">
      <path
         inkscape:connector-curvature="0"
         id="path2"
         style="fill:#C3C7D1"
         d="M 21,29 H 11 C 9.896,29 9,28.104 9,27 V 7 C 9,5.896 9.896,5 11,5 h 10 c 1.104,0 2,0.896 2,2 v 20 c 0,1.104 -0.896,2 -2,2 z M 21,6 H 11 c -0.552,0 -1,0.448 -1,1 v 20 c 0,0.552 0.448,1 1,1 h 10 c 0.552,0 1,-0.448 1,-1 V 7 C 22,6.448 21.552,6 21,6 Z M 14,5 h -1 c 0,-1.104 0.896,-2 2,-2 h 2 c 1.104,0 2,0.896 2,2 H 18 C 18,4.448 17.552,4 17,4 h -2 c -0.552,0 -1,0.448 -1,1 z" />
      <rect
         id="rect4"
         style="fill:#C3C7D1"
         height="20"
         width="10"
         y="7"
         x="11" />
      <rect
         y="0"
         x="0"
         height="32"
         width="32"
         id="rect824"
         style="fill:#ffffff;fill-opacity:0" />
    </g>
    <g
       style="clip-rule:evenodd;fill-rule:evenodd;stroke-linejoin:round;stroke-miterlimit:1.41420996"
       id="Fill90"
       transform="translate(214.53572,364.50504)">
      <path
         inkscape:connector-curvature="0"
         id="path2-6"
         style="fill:#C3C7D1"
         d="M 21,29 H 11 C 9.896,29 9,28.104 9,27 V 7 C 9,5.896 9.896,5 11,5 h 10 c 1.104,0 2,0.896 2,2 v 20 c 0,1.104 -0.896,2 -2,2 z M 21,6 H 11 c -0.552,0 -1,0.448 -1,1 v 20 c 0,0.552 0.448,1 1,1 h 10 c 0.552,0 1,-0.448 1,-1 V 7 C 22,6.448 21.552,6 21,6 Z M 14,5 h -1 c 0,-1.104 0.896,-2 2,-2 h 2 c 1.104,0 2,0.896 2,2 H 18 C 18,4.448 17.552,4 17,4 h -2 c -0.552,0 -1,0.448 -1,1 z" />
      <path
         style="fill:#C3C7D1"
         d="M 11,9 H 21 V 27 H 11 Z"
         id="rect4-8"
         inkscape:connector-curvature="0"
         sodipodi:nodetypes="ccccc" />
      <rect
         y="0"
         x="0"
         height="32"
         width="32"
         id="rect824-2"
         style="fill:#ffffff;fill-opacity:0" />
    </g>
    <g
       style="clip-rule:evenodd;fill-rule:evenodd;stroke-linejoin:round;stroke-miterlimit:1.41420996"
       id="Fill80"
       transform="translate(246.53572,364.50504)">
      <path
         inkscape:connector-curvature="0"
         id="path2-6-8"
         style="fill:#C3C7D1"
         d="M 21,29 H 11 C 9.896,29 9,28.104 9,27 V 7 C 9,5.896 9.896,5 11,5 h 10 c 1.104,0 2,0.896 2,2 v 20 c 0,1.104 -0.896,2 -2,2 z M 21,6 H 11 c -0.552,0 -1,0.448 -1,1 v 20 c 0,0.552 0.448,1 1,1 h 10 c 0.552,0 1,-0.448 1,-1 V 7 C 22,6.448 21.552,6 21,6 Z M 14,5 h -1 c 0,-1.104 0.896,-2 2,-2 h 2 c 1.104,0 2,0.896 2,2 H 18 C 18,4.448 17.552,4 17,4 h -2 c -0.552,0 -1,0.448 -1,1 z" />
      <path
         style="fill:#C3C7D1"
         d="M 11,11 H 21 V 27 H 11 Z"
         id="rect4-8-7"
         inkscape:connector-curvature="0"
         sodipodi:nodetypes="ccccc" />
      <rect
         y="0"
         x="0"
         height="32"
         width="32"
         id="rect824-2-8"
         style="fill:#ffffff;fill-opacity:0" />
    </g>
    <g
       style="clip-rule:evenodd;fill-rule:evenodd;stroke-linejoin:round;stroke-miterlimit:1.41420996"
       id="Fill70"
       transform="translate(278.53572,364.50504)">
      <path
         inkscape:connector-curvature="0"
         id="path2-6-8-5"
         style="fill:#C3C7D1"
         d="M 21,29 H 11 C 9.896,29 9,28.104 9,27 V 7 C 9,5.896 9.896,5 11,5 h 10 c 1.104,0 2,0.896 2,2 v 20 c 0,1.104 -0.896,2 -2,2 z M 21,6 H 11 c -0.552,0 -1,0.448 -1,1 v 20 c 0,0.552 0.448,1 1,1 h 10 c 0.552,0 1,-0.448 1,-1 V 7 C 22,6.448 21.552,6 21,6 Z M 14,5 h -1 c 0,-1.104 0.896,-2 2,-2 h 2 c 1.104,0 2,0.896 2,2 H 18 C 18,4.448 17.552,4 17,4 h -2 c -0.552,0 -1,0.448 -1,1 z" />
      <path
         style="fill:#C3C7D1"
         d="M 11,13 H 21 V 27 H 11 Z"
         id="rect4-8-7-0"
         inkscape:connector-curvature="0"
         sodipodi:nodetypes="ccccc" />
      <rect
         y="0"
         x="0"
         height="32"
         width="32"
         id="rect824-2-8-1"
         style="fill:#ffffff;fill-opacity:0" />
    </g>
    <g
       style="clip-rule:evenodd;fill-rule:evenodd;stroke-linejoin:round;stroke-miterlimit:1.41420996"
       id="Fill60"
       transform="translate(310.53572,364.50504)">
      <path
         inkscape:connector-curvature="0"
         id="path2-6-8-5-8"
         style="fill:#C3C7D1"
         d="M 21,29 H 11 C 9.896,29 9,28.104 9,27 V 7 C 9,5.896 9.896,5 11,5 h 10 c 1.104,0 2,0.896 2,2 v 20 c 0,1.104 -0.896,2 -2,2 z M 21,6 H 11 c -0.552,0 -1,0.448 -1,1 v 20 c 0,0.552 0.448,1 1,1 h 10 c 0.552,0 1,-0.448 1,-1 V 7 C 22,6.448 21.552,6 21,6 Z M 14,5 h -1 c 0,-1.104 0.896,-2 2,-2 h 2 c 1.104,0 2,0.896 2,2 H 18 C 18,4.448 17.552,4 17,4 h -2 c -0.552,0 -1,0.448 -1,1 z" />
      <path
         style="fill:#C3C7D1"
         d="M 11,15 H 21 V 27 H 11 Z"
         id="rect4-8-7-0-1"
         inkscape:connector-curvature="0"
         sodipodi:nodetypes="ccccc" />
      <rect
         y="0"
         x="0"
         height="32"
         width="32"
         id="rect824-2-8-1-9"
         style="fill:#ffffff;fill-opacity:0" />
    </g>
    <g
       style="clip-rule:evenodd;fill-rule:evenodd;stroke-linejoin:round;stroke-miterlimit:1.41420996"
       id="Fill50"
       transform="translate(342.53572,364.50504)">
      <path
         inkscape:connector-curvature="0"
         id="path2-6-8-5-8-5"
         style="fill:#C3C7D1"
         d="M 21,29 H 11 C 9.896,29 9,28.104 9,27 V 7 C 9,5.896 9.896,5 11,5 h 10 c 1.104,0 2,0.896 2,2 v 20 c 0,1.104 -0.896,2 -2,2 z M 21,6 H 11 c -0.552,0 -1,0.448 -1,1 v 20 c 0,0.552 0.448,1 1,1 h 10 c 0.552,0 1,-0.448 1,-1 V 7 C 22,6.448 21.552,6 21,6 Z M 14,5 h -1 c 0,-1.104 0.896,-2 2,-2 h 2 c 1.104,0 2,0.896 2,2 H 18 C 18,4.448 17.552,4 17,4 h -2 c -0.552,0 -1,0.448 -1,1 z" />
      <path
         style="fill:#C3C7D1"
         d="M 11,17 H 21 V 27 H 11 Z"
         id="rect4-8-7-0-1-4"
         inkscape:connector-curvature="0"
         sodipodi:nodetypes="ccccc" />
      <rect
         y="0"
         x="0"
         height="32"
         width="32"
         id="rect824-2-8-1-9-3"
         style="fill:#ffffff;fill-opacity:0" />
    </g>
    <g
       style="clip-rule:evenodd;fill-rule:evenodd;stroke-linejoin:round;stroke-miterlimit:1.41420996"
       id="Fill40"
       transform="translate(374.53572,364.50504)">
      <path
         inkscape:connector-curvature="0"
         id="path2-6-8-5-8-5-9"
         style="fill:#C3C7D1"
         d="M 21,29 H 11 C 9.896,29 9,28.104 9,27 V 7 C 9,5.896 9.896,5 11,5 h 10 c 1.104,0 2,0.896 2,2 v 20 c 0,1.104 -0.896,2 -2,2 z M 21,6 H 11 c -0.552,0 -1,0.448 -1,1 v 20 c 0,0.552 0.448,1 1,1 h 10 c 0.552,0 1,-0.448 1,-1 V 7 C 22,6.448 21.552,6 21,6 Z M 14,5 h -1 c 0,-1.104 0.896,-2 2,-2 h 2 c 1.104,0 2,0.896 2,2 H 18 C 18,4.448 17.552,4 17,4 h -2 c -0.552,0 -1,0.448 -1,1 z" />
      <path
         style="fill:#C3C7D1"
         d="m 11,19 h 10 v 8 H 11 Z"
         id="rect4-8-7-0-1-4-7"
         inkscape:connector-curvature="0"
         sodipodi:nodetypes="ccccc" />
      <rect
         y="0"
         x="0"
         height="32"
         width="32"
         id="rect824-2-8-1-9-3-5"
         style="fill:#ffffff;fill-opacity:0" />
    </g>
    <g
       style="clip-rule:evenodd;fill-rule:evenodd;stroke-linejoin:round;stroke-miterlimit:1.41420996"
       id="Fill30"
       transform="translate(406.53572,364.50504)">
      <path
         inkscape:connector-curvature="0"
         id="path2-6-8-5-8-5-9-0"
         style="fill:#C3C7D1"
         d="M 21,29 H 11 C 9.896,29 9,28.104 9,27 V 7 C 9,5.896 9.896,5 11,5 h 10 c 1.104,0 2,0.896 2,2 v 20 c 0,1.104 -0.896,2 -2,2 z M 21,6 H 11 c -0.552,0 -1,0.448 -1,1 v 20 c 0,0.552 0.448,1 1,1 h 10 c 0.552,0 1,-0.448 1,-1 V 7 C 22,6.448 21.552,6 21,6 Z M 14,5 h -1 c 0,-1.104 0.896,-2 2,-2 h 2 c 1.104,0 2,0.896 2,2 H 18 C 18,4.448 17.552,4 17,4 h -2 c -0.552,0 -1,0.448 -1,1 z" />
      <path
         style="fill:#C3C7D1"
         d="m 11,21 h 10 v 6 H 11 Z"
         id="rect4-8-7-0-1-4-7-4"
         inkscape:connector-curvature="0"
         sodipodi:nodetypes="ccccc" />
      <rect
         y="0"
         x="0"
         height="32"
         width="32"
         id="rect824-2-8-1-9-3-5-5"
         style="fill:#ffffff;fill-opacity:0" />
    </g>
    <g
       style="clip-rule:evenodd;fill-rule:evenodd;stroke-linejoin:round;stroke-miterlimit:1.41420996"
       id="Fill20"
       transform="translate(438.53572,364.50504)">
      <path
         inkscape:connector-curvature="0"
         id="path2-6-8-5-8-5-9-0-7"
         style="fill:#C3C7D1"
         d="M 21,29 H 11 C 9.896,29 9,28.104 9,27 V 7 C 9,5.896 9.896,5 11,5 h 10 c 1.104,0 2,0.896 2,2 v 20 c 0,1.104 -0.896,2 -2,2 z M 21,6 H 11 c -0.552,0 -1,0.448 -1,1 v 20 c 0,0.552 0.448,1 1,1 h 10 c 0.552,0 1,-0.448 1,-1 V 7 C 22,6.448 21.552,6 21,6 Z M 14,5 h -1 c 0,-1.104 0.896,-2 2,-2 h 2 c 1.104,0 2,0.896 2,2 H 18 C 18,4.448 17.552,4 17,4 h -2 c -0.552,0 -1,0.448 -1,1 z" />
      <path
         style="fill:#C3C7D1"
         d="m 11,23 h 10 v 4 H 11 Z"
         id="rect4-8-7-0-1-4-7-4-5"
         inkscape:connector-curvature="0"
         sodipodi:nodetypes="ccccc" />
      <rect
         y="0"
         x="0"
         height="32"
         width="32"
         id="rect824-2-8-1-9-3-5-5-9"
         style="fill:#ffffff;fill-opacity:0" />
    </g>
    <g
       style="clip-rule:evenodd;fill-rule:evenodd;stroke-linejoin:round;stroke-miterlimit:1.41420996"
       id="Fill10"
       transform="translate(470.53572,364.50504)">
      <path
         inkscape:connector-curvature="0"
         id="path2-6-8-5-8-5-9-0-7-2"
         style="fill:#ff4d62;fill-opacity:1"
         d="M 21,29 H 11 C 9.896,29 9,28.104 9,27 V 7 C 9,5.896 9.896,5 11,5 h 10 c 1.104,0 2,0.896 2,2 v 20 c 0,1.104 -0.896,2 -2,2 z M 21,6 H 11 c -0.552,0 -1,0.448 -1,1 v 20 c 0,0.552 0.448,1 1,1 h 10 c 0.552,0 1,-0.448 1,-1 V 7 C 22,6.448 21.552,6 21,6 Z M 14,5 h -1 c 0,-1.104 0.896,-2 2,-2 h 2 c 1.104,0 2,0.896 2,2 H 18 C 18,4.448 17.552,4 17,4 h -2 c -0.552,0 -1,0.448 -1,1 z" />
      <path
         style="fill:#ff4d62;fill-opacity:1"
         d="m 11,25 h 10 v 2 H 11 Z"
         id="rect4-8-7-0-1-4-7-4-5-7"
         inkscape:connector-curvature="0"
         sodipodi:nodetypes="ccccc" />
      <rect
         y="0"
         x="0"
         height="32"
         width="32"
         id="rect824-2-8-1-9-3-5-5-9-5"
         style="fill:#ffffff;fill-opacity:0" />
    </g>
    <g
       style="clip-rule:evenodd;fill-rule:evenodd;stroke-linejoin:round;stroke-miterlimit:1.41420996"
       id="Fill0"
       transform="translate(502.53572,364.50504)">
      <path
         inkscape:connector-curvature="0"
         id="path2-6-8-5-8-5-9-0-7-2-5"
         style="fill:#ff4d62;fill-opacity:1"
         d="M 21,29 H 11 C 9.896,29 9,28.104 9,27 V 7 C 9,5.896 9.896,5 11,5 h 10 c 1.104,0 2,0.896 2,2 v 20 c 0,1.104 -0.896,2 -2,2 z M 21,6 H 11 c -0.552,0 -1,0.448 -1,1 v 20 c 0,0.552 0.448,1 1,1 h 10 c 0.552,0 1,-0.448 1,-1 V 7 C 22,6.448 21.552,6 21,6 Z M 14,5 h -1 c 0,-1.104 0.896,-2 2,-2 h 2 c 1.104,0 2,0.896 2,2 H 18 C 18,4.448 17.552,4 17,4 h -2 c -0.552,0 -1,0.448 -1,1 z" />
      <rect
         y="0"
         x="0"
         height="32"
         width="32"
         id="rect824-2-8-1-9-3-5-5-9-5-6"
         style="fill:#ffffff;fill-opacity:0" />
    </g>
    <g
       style="clip-rule:evenodd;fill-rule:evenodd;stroke-linejoin:round;stroke-miterlimit:1.41420996"
       id="AcAdapter"
       transform="translate(150.53572,364.50504)">
      <g
         id="g826">
        <path
           inkscape:connector-curvature="0"
           d="m 16,16 h 3 l -3,7 v -5 h -3 l 3,-7 z"
           style="fill:#00c694"
           id="path6" />
      </g>
      <rect
         y="0"
         x="0"
         height="32"
         width="32"
         id="rect821"
         style="fill:#ffffff;fill-opacity:0;stroke-width:0.98952001" />
    </g>
    <g
       style="clip-rule:evenodd;fill-rule:evenodd;stroke-linejoin:round;stroke-miterlimit:1.41420996"
       id="Unavailable"
       transform="translate(118.53572,364.50504)">
      <g
         id="g827">
        <circle
           cx="23"
           cy="23"
           r="6"
           style="fill:#ff4d62;fill-opacity:1"
           id="circle6" />
        <path
           inkscape:connector-curvature="0"
           d="M 20.879,19.464 23,21.586 25.121,19.464 26.536,20.879 24.414,23 26.536,25.121 25.121,26.536 23,24.414 20.879,26.536 19.464,25.121 21.586,23 19.464,20.879 Z"
           style="fill:#ffffff"
           id="path8" />
      </g>
      <rect
         y="0"
         x="0"
         height="32"
         width="32"
         id="rect829"
         style="fill:#ffffff;fill-opacity:0;stroke-width:1.00639892" />
    </g>
    <g
       style="clip-rule:evenodd;fill-rule:evenodd;stroke-linejoin:round;stroke-miterlimit:1.41420996"
       id="Battery"
       transform="translate(534.53572,364.50504)">
      <path
         inkscape:connector-curvature="0"
         id="path2-6-8-5-8-5-9-0-7-2-5-1"
         style="fill:#C3C7D1;fill-opacity:1"
         d="M 21,29 H 11 C 9.896,29 9,28.104 9,27 V 7 C 9,5.896 9.896,5 11,5 h 10 c 1.104,0 2,0.896 2,2 v 20 c 0,1.104 -0.896,2 -2,2 z M 21,6 H 11 c -0.552,0 -1,0.448 -1,1 v 20 c 0,0.552 0.448,1 1,1 h 10 c 0.552,0 1,-0.448 1,-1 V 7 C 22,6.448 21.552,6 21,6 Z M 14,5 h -1 c 0,-1.104 0.896,-2 2,-2 h 2 c 1.104,0 2,0.896 2,2 H 18 C 18,4.448 17.552,4 17,4 h -2 c -0.552,0 -1,0.448 -1,1 z" />
      <rect
         y="0"
         x="0"
         height="32"
         width="32"
         id="rect824-2-8-1-9-3-5-5-9-5-6-1"
         style="fill:#ffffff;fill-opacity:0" />
    </g>
    <g
       style="clip-rule:evenodd;fill-rule:evenodd;stroke-linejoin:round;stroke-miterlimit:1.41420996"
       id="22-22-Fill100"
       transform="translate(214.53572,404.50504)">
      <path
         inkscape:connector-curvature="0"
         id="path2-7"
         d="M 10,2 C 9.448,2 9,2.448 9,3 V 4 H 8 C 6.896,4 6,4.896 6,6 v 12 c 0,1.104 0.896,2 2,2 h 6 c 1.104,0 2,-0.896 2,-2 V 6 C 16,4.896 15.104,4 14,4 H 13 V 3 C 13,2.448 12.552,2 12,2 Z m 0,1 h 2 V 4 H 10 Z M 8,5 h 6 c 0.552,0 1,0.448 1,1 v 12 c 0,0.552 -0.448,1 -1,1 H 8 C 7.448,19 7,18.552 7,18 V 6 C 7,5.448 7.448,5 8,5 Z m 0,1 v 12 h 6 V 6 Z"
         style="fill:#C3C7D1" />
      <rect
         y="0"
         x="0"
         height="22"
         width="22"
         id="rect822"
         style="fill:#ffffff;fill-opacity:0;stroke-width:0.85507804" />
    </g>
    <g
       style="clip-rule:evenodd;fill-rule:evenodd;stroke-linejoin:round;stroke-miterlimit:1.41420996"
       id="22-22-Fill90"
       transform="translate(236.53572,404.50504)">
      <path
         inkscape:connector-curvature="0"
         id="path2-7-3"
         d="M 10,2 C 9.448,2 9,2.448 9,3 V 4 H 8 C 6.896,4 6,4.896 6,6 v 12 c 0,1.104 0.896,2 2,2 h 6 c 1.104,0 2,-0.896 2,-2 V 6 C 16,4.896 15.104,4 14,4 H 13 V 3 C 13,2.448 12.552,2 12,2 Z m 0,1 h 2 V 4 H 10 Z M 8,5 h 6 c 0.552,0 1,0.448 1,1 v 12 c 0,0.552 -0.448,1 -1,1 H 8 C 7.448,19 7,18.552 7,18 V 6 C 7,5.448 7.448,5 8,5 Z m 0,4 v 9 h 6 V 7 Z"
         style="fill:#C3C7D1"
         sodipodi:nodetypes="sscsssssssscssscccccsssssssssccccc" />
      <rect
         y="0"
         x="0"
         height="22"
         width="22"
         id="rect822-9"
         style="fill:#ffffff;fill-opacity:0;stroke-width:0.85507804" />
    </g>
    <g
       style="clip-rule:evenodd;fill-rule:evenodd;stroke-linejoin:round;stroke-miterlimit:1.41420996"
       id="22-22-Fill80"
       transform="translate(258.53572,404.50504)">
      <path
         inkscape:connector-curvature="0"
         id="path2-7-3-7"
         d="M 10,2 C 9.448,2 9,2.448 9,3 V 4 H 8 C 6.896,4 6,4.896 6,6 v 12 c 0,1.104 0.896,2 2,2 h 6 c 1.104,0 2,-0.896 2,-2 V 6 C 16,4.896 15.104,4 14,4 H 13 V 3 C 13,2.448 12.552,2 12,2 Z m 0,1 h 2 V 4 H 10 Z M 8,5 h 6 c 0.552,0 1,0.448 1,1 v 12 c 0,0.552 -0.448,1 -1,1 H 8 C 7.448,19 7,18.552 7,18 V 6 C 7,5.448 7.448,5 8,5 Z m 0,5 v 8 h 6 V 8 Z"
         style="fill:#C3C7D1"
         sodipodi:nodetypes="sscsssssssscssscccccsssssssssccccc" />
      <rect
         y="0"
         x="0"
         height="22"
         width="22"
         id="rect822-9-6"
         style="fill:#ffffff;fill-opacity:0;stroke-width:0.85507804" />
    </g>
    <g
       style="clip-rule:evenodd;fill-rule:evenodd;stroke-linejoin:round;stroke-miterlimit:1.41420996"
       id="22-22-Fill70"
       transform="translate(280.53572,404.50504)">
      <path
         inkscape:connector-curvature="0"
         id="path2-7-3-7-0"
         d="M 10,2 C 9.448,2 9,2.448 9,3 V 4 H 8 C 6.896,4 6,4.896 6,6 v 12 c 0,1.104 0.896,2 2,2 h 6 c 1.104,0 2,-0.896 2,-2 V 6 C 16,4.896 15.104,4 14,4 H 13 V 3 C 13,2.448 12.552,2 12,2 Z m 0,1 h 2 V 4 H 10 Z M 8,5 h 6 c 0.552,0 1,0.448 1,1 v 12 c 0,0.552 -0.448,1 -1,1 H 8 C 7.448,19 7,18.552 7,18 V 6 C 7,5.448 7.448,5 8,5 Z m 0,6 v 7 h 6 V 9 Z"
         style="fill:#C3C7D1"
         sodipodi:nodetypes="sscsssssssscssscccccsssssssssccccc" />
      <rect
         y="0"
         x="0"
         height="22"
         width="22"
         id="rect822-9-6-2"
         style="fill:#ffffff;fill-opacity:0;stroke-width:0.85507804" />
    </g>
    <g
       style="clip-rule:evenodd;fill-rule:evenodd;stroke-linejoin:round;stroke-miterlimit:1.41420996"
       id="22-22-Fill60"
       transform="translate(302.53572,404.50504)">
      <path
         inkscape:connector-curvature="0"
         id="path2-7-3-7-0-6"
         d="M 10,2 C 9.448,2 9,2.448 9,3 V 4 H 8 C 6.896,4 6,4.896 6,6 v 12 c 0,1.104 0.896,2 2,2 h 6 c 1.104,0 2,-0.896 2,-2 V 6 C 16,4.896 15.104,4 14,4 H 13 V 3 C 13,2.448 12.552,2 12,2 Z m 0,1 h 2 V 4 H 10 Z M 8,5 h 6 c 0.552,0 1,0.448 1,1 v 12 c 0,0.552 -0.448,1 -1,1 H 8 C 7.448,19 7,18.552 7,18 V 6 C 7,5.448 7.448,5 8,5 Z m 0,7 v 6 h 6 v -8 z"
         style="fill:#C3C7D1"
         sodipodi:nodetypes="sscsssssssscssscccccsssssssssccccc" />
      <rect
         y="0"
         x="0"
         height="22"
         width="22"
         id="rect822-9-6-2-8"
         style="fill:#ffffff;fill-opacity:0;stroke-width:0.85507804" />
    </g>
    <g
       style="clip-rule:evenodd;fill-rule:evenodd;stroke-linejoin:round;stroke-miterlimit:1.41420996"
       id="22-22-Fill50"
       transform="translate(324.53572,404.50504)">
      <path
         inkscape:connector-curvature="0"
         id="path2-7-3-7-0-6-0"
         d="M 10,2 C 9.448,2 9,2.448 9,3 V 4 H 8 C 6.896,4 6,4.896 6,6 v 12 c 0,1.104 0.896,2 2,2 h 6 c 1.104,0 2,-0.896 2,-2 V 6 C 16,4.896 15.104,4 14,4 H 13 V 3 C 13,2.448 12.552,2 12,2 Z m 0,1 h 2 V 4 H 10 Z M 8,5 h 6 c 0.552,0 1,0.448 1,1 v 12 c 0,0.552 -0.448,1 -1,1 H 8 C 7.448,19 7,18.552 7,18 V 6 C 7,5.448 7.448,5 8,5 Z m 0,7 v 6 h 6 v -6 z"
         style="fill:#C3C7D1"
         sodipodi:nodetypes="sscsssssssscssscccccsssssssssccccc" />
      <rect
         y="0"
         x="0"
         height="22"
         width="22"
         id="rect822-9-6-2-8-9"
         style="fill:#ffffff;fill-opacity:0;stroke-width:0.85507804" />
    </g>
    <g
       style="clip-rule:evenodd;fill-rule:evenodd;stroke-linejoin:round;stroke-miterlimit:1.41420996"
       id="22-22-Fill40"
       transform="translate(346.53572,404.50504)">
      <path
         inkscape:connector-curvature="0"
         id="path2-7-3-7-0-6-0-5"
         d="M 10,2 C 9.448,2 9,2.448 9,3 V 4 H 8 C 6.896,4 6,4.896 6,6 v 12 c 0,1.104 0.896,2 2,2 h 6 c 1.104,0 2,-0.896 2,-2 V 6 C 16,4.896 15.104,4 14,4 H 13 V 3 C 13,2.448 12.552,2 12,2 Z m 0,1 h 2 V 4 H 10 Z M 8,5 h 6 c 0.552,0 1,0.448 1,1 v 12 c 0,0.552 -0.448,1 -1,1 H 8 C 7.448,19 7,18.552 7,18 V 6 C 7,5.448 7.448,5 8,5 Z m 0,9 v 4 h 6 v -6 z"
         style="fill:#C3C7D1"
         sodipodi:nodetypes="sscsssssssscssscccccsssssssssccccc" />
      <rect
         y="0"
         x="0"
         height="22"
         width="22"
         id="rect822-9-6-2-8-9-6"
         style="fill:#ffffff;fill-opacity:0;stroke-width:0.85507804" />
    </g>
    <g
       style="clip-rule:evenodd;fill-rule:evenodd;stroke-linejoin:round;stroke-miterlimit:1.41420996"
       id="22-22-Fill30"
       transform="translate(368.53572,404.50504)">
      <path
         inkscape:connector-curvature="0"
         id="path2-7-3-7-0-6-0-5-9"
         d="M 10,2 C 9.448,2 9,2.448 9,3 V 4 H 8 C 6.896,4 6,4.896 6,6 v 12 c 0,1.104 0.896,2 2,2 h 6 c 1.104,0 2,-0.896 2,-2 V 6 C 16,4.896 15.104,4 14,4 H 13 V 3 C 13,2.448 12.552,2 12,2 Z m 0,1 h 2 V 4 H 10 Z M 8,5 h 6 c 0.552,0 1,0.448 1,1 v 12 c 0,0.552 -0.448,1 -1,1 H 8 C 7.448,19 7,18.552 7,18 V 6 C 7,5.448 7.448,5 8,5 Z m 0,10 v 3 h 6 v -5 z"
         style="fill:#C3C7D1"
         sodipodi:nodetypes="sscsssssssscssscccccsssssssssccccc" />
      <rect
         y="0"
         x="0"
         height="22"
         width="22"
         id="rect822-9-6-2-8-9-6-8"
         style="fill:#ffffff;fill-opacity:0;stroke-width:0.85507804" />
    </g>
    <g
       style="clip-rule:evenodd;fill-rule:evenodd;stroke-linejoin:round;stroke-miterlimit:1.41420996"
       id="22-22-Fill20"
       transform="translate(390.53572,404.50504)">
      <path
         inkscape:connector-curvature="0"
         id="path2-7-3-7-0-6-0-5-9-3"
         d="M 10,2 C 9.448,2 9,2.448 9,3 V 4 H 8 C 6.896,4 6,4.896 6,6 v 12 c 0,1.104 0.896,2 2,2 h 6 c 1.104,0 2,-0.896 2,-2 V 6 C 16,4.896 15.104,4 14,4 H 13 V 3 C 13,2.448 12.552,2 12,2 Z m 0,1 h 2 V 4 H 10 Z M 8,5 h 6 c 0.552,0 1,0.448 1,1 v 12 c 0,0.552 -0.448,1 -1,1 H 8 C 7.448,19 7,18.552 7,18 V 6 C 7,5.448 7.448,5 8,5 Z m 0,11 v 2 h 6 v -4 z"
         style="fill:#C3C7D1"
         sodipodi:nodetypes="sscsssssssscssscccccsssssssssccccc" />
      <rect
         y="0"
         x="0"
         height="22"
         width="22"
         id="rect822-9-6-2-8-9-6-8-8"
         style="fill:#ffffff;fill-opacity:0;stroke-width:0.85507804" />
    </g>
    <g
       style="clip-rule:evenodd;fill-rule:evenodd;stroke-linejoin:round;stroke-miterlimit:1.41420996"
       id="22-22-Fill10"
       transform="translate(412.53572,404.50504)">
      <path
         inkscape:connector-curvature="0"
         id="path2-7-3-7-0-6-0-5-9-3-4"
         d="M 10,2 C 9.448,2 9,2.448 9,3 V 4 H 8 C 6.896,4 6,4.896 6,6 v 12 c 0,1.104 0.896,2 2,2 h 6 c 1.104,0 2,-0.896 2,-2 V 6 C 16,4.896 15.104,4 14,4 H 13 V 3 C 13,2.448 12.552,2 12,2 Z m 0,1 h 2 V 4 H 10 Z M 8,5 h 6 c 0.552,0 1,0.448 1,1 v 12 c 0,0.552 -0.448,1 -1,1 H 8 C 7.448,19 7,18.552 7,18 V 6 C 7,5.448 7.448,5 8,5 Z m 0,12 v 1 h 6 v -2 z"
         style="fill:#ff4d62;fill-opacity:1"
         sodipodi:nodetypes="sscsssssssscssscccccsssssssssccccc" />
      <rect
         y="0"
         x="0"
         height="22"
         width="22"
         id="rect822-9-6-2-8-9-6-8-8-2"
         style="fill:#ffffff;fill-opacity:0;stroke-width:0.85507804" />
    </g>
    <g
       style="clip-rule:evenodd;fill-rule:evenodd;stroke-linejoin:round;stroke-miterlimit:1.41420996"
       id="22-22-Fill0"
       transform="translate(434.53572,404.50504)">
      <path
         inkscape:connector-curvature="0"
         id="path2-7-3-7-0-6-0-5-9-3-4-2"
         d="M 10,2 C 9.448,2 9,2.448 9,3 V 4 H 8 C 6.896,4 6,4.896 6,6 v 12 c 0,1.104 0.896,2 2,2 h 6 c 1.104,0 2,-0.896 2,-2 V 6 C 16,4.896 15.104,4 14,4 H 13 V 3 C 13,2.448 12.552,2 12,2 Z m 0,1 h 2 V 4 H 10 Z M 8,5 h 6 c 0.552,0 1,0.448 1,1 v 12 c 0,0.552 -0.448,1 -1,1 H 8 C 7.448,19 7,18.552 7,18 V 6 C 7,5.448 7.448,5 8,5 Z"
         style="fill:#ff4d62;fill-opacity:1"
         sodipodi:nodetypes="sscsssssssscssscccccsssssssss" />
      <rect
         y="0"
         x="0"
         height="22"
         width="22"
         id="rect822-9-6-2-8-9-6-8-8-2-5"
         style="fill:#ffffff;fill-opacity:0;stroke-width:0.85507804" />
    </g>
    <g
       style="clip-rule:evenodd;fill-rule:evenodd;stroke-linejoin:round;stroke-miterlimit:1.41420996"
       id="22-22-Battery"
       transform="translate(456.53572,404.50504)">
      <path
         inkscape:connector-curvature="0"
         id="path2-7-3-7-0-6-0-5-9-3-4-2-3"
         d="M 10,2 C 9.448,2 9,2.448 9,3 V 4 H 8 C 6.896,4 6,4.896 6,6 v 12 c 0,1.104 0.896,2 2,2 h 6 c 1.104,0 2,-0.896 2,-2 V 6 C 16,4.896 15.104,4 14,4 H 13 V 3 C 13,2.448 12.552,2 12,2 Z m 0,1 h 2 V 4 H 10 Z M 8,5 h 6 c 0.552,0 1,0.448 1,1 v 12 c 0,0.552 -0.448,1 -1,1 H 8 C 7.448,19 7,18.552 7,18 V 6 C 7,5.448 7.448,5 8,5 Z"
         style="fill:#C3C7D1;fill-opacity:1"
         sodipodi:nodetypes="sscsssssssscssscccccsssssssss" />
      <rect
         y="0"
         x="0"
         height="22"
         width="22"
         id="rect822-9-6-2-8-9-6-8-8-2-5-7"
         style="fill:#ffffff;fill-opacity:0;stroke-width:0.85507804" />
    </g>
    <g
       style="clip-rule:evenodd;fill-rule:evenodd;stroke-linejoin:round;stroke-miterlimit:1.41420996"
       id="22-22-Unavailable"
       transform="translate(192.53572,404.50504)">
      <g
         transform="translate(1,1)"
         id="g10">
        <circle
           id="circle6-4"
           style="fill:#ff4d62;fill-opacity:1"
           r="5"
           cy="15"
           cx="15" />
        <path
           inkscape:connector-curvature="0"
           id="path8-4"
           style="fill:#ffffff"
           d="M 13.586,12.172 15,13.586 16.414,12.172 17.828,13.586 16.414,15 17.828,16.414 16.414,17.828 15,16.414 13.586,17.828 12.172,16.414 13.586,15 12.172,13.586 Z" />
      </g>
      <rect
         y="0"
         x="0"
         height="22"
         width="22"
         id="rect827"
         style="fill:#ffffff;fill-opacity:0;stroke-width:0.94645631" />
    </g>
    <g
       style="clip-rule:evenodd;fill-rule:evenodd;stroke-linejoin:round;stroke-miterlimit:1.41420996"
       id="22-22-AcAdapter"
       transform="translate(170.53572,404.50504)">
      <path
         inkscape:connector-curvature="0"
         id="path8-3"
         style="fill:#00c694"
         d="m 11,11 h 2 l -2,5 V 13 H 9 l 2,-5 z" />
      <rect
         y="0"
         x="0"
         height="22"
         width="22"
         id="rect823"
         style="fill:#ffffff;fill-opacity:0;stroke-width:1.00641716" />
    </g>
    <g
       style="clip-rule:evenodd;fill-rule:evenodd;stroke-linejoin:round;stroke-miterlimit:1.41420996"
       id="battery-ups"
       transform="translate(209.53572,432.50504)">
      <path
         inkscape:connector-curvature="0"
         id="path2-72"
         d="M 15,3 C 13.896,3 13,3.896 13,5 H 11 C 9.896,5 9,5.896 9,7 v 20 c 0,1.104 0.896,2 2,2 h 10 c 1.104,0 2,-0.896 2,-2 V 7 C 23,5.896 22.104,5 21,5 H 19 C 19,3.896 18.104,3 17,3 Z m 0,1 h 2 c 0.552,0 1,0.448 1,1 h -4 c 0,-0.552 0.448,-1 1,-1 z m -4,2 h 10 c 0.552,0 1,0.448 1,1 v 20 c 0,0.552 -0.448,1 -1,1 H 11 c -0.552,0 -1,-0.448 -1,-1 V 7 c 0,-0.552 0.448,-1 1,-1 z m 5,6 -5,3 v 2 l 5,-3 5,3 v -2 z m 0,4 -5,3 v 2 l 5,-3 5,3 v -2 z m 0,4 -5,3 v 4 h 10 v -4 z"
         style="fill:#C3C7D1" />
      <rect
         y="0"
         x="0"
         height="32"
         width="32"
         id="rect824-7"
         style="fill:#ffffff;fill-opacity:0;stroke-width:1.00321591" />
    </g>
    <g
       style="clip-rule:evenodd;fill-rule:evenodd;stroke-linejoin:round;stroke-miterlimit:1.41420996"
       id="22-22-battery-ups"
       transform="translate(242.53572,438.50504)">
      <path
         inkscape:connector-curvature="0"
         id="path2-1"
         d="M 10,2 C 9.448,2 9,2.448 9,3 V 4 H 8 C 6.896,4 6,4.896 6,6 v 12 c 0,1.104 0.896,2 2,2 h 6 c 1.104,0 2,-0.896 2,-2 V 6 C 16,4.896 15.104,4 14,4 H 13 V 3 C 13,2.448 12.552,2 12,2 Z m 0,1 h 2 V 4 H 10 Z M 8,5 h 6 c 0.552,0 1,0.448 1,1 v 12 c 0,0.552 -0.448,1 -1,1 H 8 C 7.448,19 7,18.552 7,18 V 6 C 7,5.448 7.448,5 8,5 Z M 11.017578,11 8,13 v 2 l 3,-2 3,2 v -2 z m 0,4 L 8,17 v 1 h 6 v -1 z"
         style="fill:#C3C7D1" />
      <rect
         y="0"
         x="0"
         height="22"
         width="22"
         id="rect824-6"
         style="fill:#ffffff;fill-opacity:0;stroke-width:1.00426447" />
    </g>
  </g>
</svg>
