<?xml version="1.0" encoding="UTF-8" standalone="no"?>
<svg
   xmlns:dc="http://purl.org/dc/elements/1.1/"
   xmlns:cc="http://creativecommons.org/ns#"
   xmlns:rdf="http://www.w3.org/1999/02/22-rdf-syntax-ns#"
   xmlns:svg="http://www.w3.org/2000/svg"
   xmlns="http://www.w3.org/2000/svg"
   xmlns:sodipodi="http://sodipodi.sourceforge.net/DTD/sodipodi-0.dtd"
   xmlns:inkscape="http://www.inkscape.org/namespaces/inkscape"
   width="32"
   height="32"
   version="1.1"
   id="svg11"
   sodipodi:docname="bookmarks.svg"
   inkscape:version="1.0rc1 (09960d6f05, 2020-04-09)">
  <metadata
     id="metadata17">
    <rdf:RDF>
      <cc:Work
         rdf:about="">
        <dc:format>image/svg+xml</dc:format>
        <dc:type
           rdf:resource="http://purl.org/dc/dcmitype/StillImage" />
      </cc:Work>
    </rdf:RDF>
  </metadata>
  <defs
     id="defs15">
    <linearGradient
       id="_lgradient_1"
       x1="0"
       y1="0.5"
       x2="1"
       y2="0.5"
       gradientTransform="matrix(19.206691,0,0,28.000107,6.0550056,2.2700061)"
       gradientUnits="userSpaceOnUse">
      <stop
         offset="0%"
         stop-opacity="1"
         style="stop-color:rgb(242,55,239)"
         id="stop9" />
      <stop
         offset="98.69565217391305%"
         stop-opacity="1"
         style="stop-color:rgb(252,82,82)"
         id="stop11" />
    </linearGradient>
    <linearGradient
       id="_lgradient_1-3"
       x1="0"
       y1="0.5"
       x2="1"
       y2="0.5"
       gradientTransform="matrix(19.206691,0,0,28.000107,6.2711919,2.3832384)"
       gradientUnits="userSpaceOnUse">
      <stop
         offset="0%"
         stop-opacity="1"
         style="stop-color:rgb(242,55,239)"
         id="stop9-6" />
      <stop
         offset="98.69565217391305%"
         stop-opacity="1"
         style="stop-color:rgb(252,82,82)"
         id="stop11-7" />
    </linearGradient>
    <linearGradient
       gradientUnits="userSpaceOnUse"
       gradientTransform="matrix(19.206691,0,0,28.000107,6.2711923,2.3832385)"
       y2="0.5"
       x2="1"
       y1="0.5"
       x1="0"
       id="_lgradient_1-36">
      <stop
         id="stop9-7"
         style="stop-color:#ff005d;stop-opacity:1"
         stop-opacity="1"
         offset="0%" />
      <stop
         id="stop11-5"
         style="stop-color:#ff8b26;stop-opacity:0.98823529"
         stop-opacity="1"
         offset="98.69565217391305%" />
    </linearGradient>
  </defs>
  <sodipodi:namedview
     pagecolor="#ffffff"
     bordercolor="#666666"
     inkscape:document-rotation="0"
     borderopacity="1"
     objecttolerance="10"
     gridtolerance="10"
     guidetolerance="10"
     inkscape:pageopacity="0"
     inkscape:pageshadow="2"
     inkscape:window-width="1366"
     inkscape:window-height="722"
     id="namedview13"
     showgrid="false"
     inkscape:zoom="10.408989"
     inkscape:cx="-4.6115107"
     inkscape:cy="7.282968"
     inkscape:window-x="0"
     inkscape:window-y="22"
     inkscape:window-maximized="1"
     inkscape:current-layer="bookmarks-5" />
  <g
     id="bookmarks">
    <g
       transform="translate(0.02534369,0.2700052)"
       style="clip-rule:evenodd;fill-rule:evenodd;stroke-linejoin:round;stroke-miterlimit:1.41421"
       id="bookmarks-5">
      <rect
         y="0"
         x="0"
         height="32"
         width="32"
         id="rect820"
         style="fill:#2020ff;fill-opacity:0" />
      <path
         id="path14-3"
         d="m 18.364206,3.9372444 v 0 c -0.392538,0 -0.711848,-0.3488349 -0.711848,-0.777003 v 0 c 0,-0.4293351 0.31931,-0.7770029 0.711848,-0.7770029 v 0 h 5.691182 c 0.785074,0 1.422495,0.6965027 1.422495,1.5540059 V 29.406843 c 0,0.857503 -0.542589,1.188838 -1.211221,0.738502 l -7.52182,-5.051686 c -0.668634,-0.449167 -1.741808,-0.428169 -2.396036,0.04784 L 7.4548044,30.16051 C 6.8017768,30.635348 6.2711923,30.326179 6.2711923,29.468677 V 3.9372444 c 0,-0.8575032 0.6374224,-1.5540059 1.4224954,-1.5540059 h 4.9793353 v 0 c 0.392537,0 0.711848,0.3476678 0.711848,0.7770029 v 0 c 0,0.4281681 -0.319311,0.777003 -0.711848,0.777003 v 0 H 8.4055363 c -0.3925367,0 -0.7118486,0.3476677 -0.7118486,0.7758365 V 27.340668 c 0,0.428167 0.2652932,0.583337 0.5918056,0.345335 l 6.6275097,-4.824186 c 0.326515,-0.238 0.863101,-0.248502 1.196818,-0.02333 l 7.339356,4.93385 c 0.334916,0.224002 0.606211,0.05833 0.606211,-0.369833 V 4.7130809 c 0,-0.4281688 -0.319311,-0.7758365 -0.711848,-0.7758365 z m -5.094575,6.6010256 -0.03602,0.0024 -0.03481,0.0035 -0.03601,0.0024 -0.03362,0.0046 -0.03361,0.0058 -0.03481,0.0046 -0.03241,0.0082 -0.03481,0.007 -0.0324,0.0093 -0.03241,0.0093 -0.03241,0.01048 -0.03241,0.01161 -0.03001,0.01284 -0.03241,0.01284 -0.03001,0.01284 -0.03122,0.01516 -0.03001,0.01516 -0.03001,0.01516 -0.02881,0.01749 -0.02881,0.01749 -0.02881,0.01867 -0.02761,0.01866 -0.02881,0.02101 -0.0264,0.01984 -0.02761,0.02101 -0.02521,0.02217 -0.0264,0.02335 -0.02521,0.02217 -0.02402,0.0245 -0.02521,0.0245 -0.02402,0.02566 -0.02281,0.02566 -0.02281,0.028 -0.02162,0.02683 -0.02162,0.02683 -0.02162,0.028 -0.01921,0.028 -0.0192,0.03033 -0.01921,0.02917 -0.0192,0.0315 -0.0168,0.03033 -0.0168,0.0315 -0.0168,0.03034 -0.0156,0.03267 -0.01321,0.03267 -0.0144,0.03266 -0.0144,0.03266 -0.01194,0.03383 -0.01079,0.035 -0.01195,0.03383 -0.01079,0.03383 -0.0096,0.03616 -0.0084,0.03501 -0.0084,0.03616 -0.0072,0.03734 -0.0072,0.03616 -0.0036,0.03734 -0.0047,0.03734 -0.0047,0.03734 -0.0025,0.03851 -0.0025,0.03851 L 11.931221,12 v 0.03966 l 0.0012,0.04433 0.0012,0.04433 0.0025,0.04549 0.0036,0.04667 0.0047,0.04667 0.006,0.04784 0.0047,0.04784 0.0084,0.049 0.0096,0.05016 0.0096,0.05016 0.01195,0.05134 0.01195,0.05135 0.01321,0.0525 0.01441,0.05483 0.0168,0.05366 0.0168,0.05366 0.0168,0.056 0.02041,0.05483 0.02041,0.05717 0.02041,0.056 0.02281,0.05717 0.02521,0.05717 0.02402,0.05834 0.0264,0.05717 0.0264,0.0595 0.02881,0.05949 0.02881,0.0595 0.03001,0.0595 0.03121,0.05951 0.03241,0.06066 0.0336,0.06067 0.0324,0.05717 0.07202,0.124835 0.07562,0.121338 0.07804,0.122499 0.07923,0.122499 0.08523,0.121338 0.08643,0.122498 0.08883,0.121339 0.09123,0.119001 0.09363,0.120164 0.09604,0.117844 0.09604,0.117826 0.09963,0.116668 0.09842,0.114326 0.102037,0.113172 0.100828,0.112 0.100827,0.10966 0.103234,0.107335 0.100828,0.10616 0.103233,0.103832 0.100828,0.101505 0.100828,0.09917 0.100828,0.09683 0.09845,0.09334 0.09842,0.09216 0.09604,0.08866 0.09243,0.08517 0.184864,0.1645 0.17286,0.150501 0.162057,0.137667 0.018,0.01516 0.0192,-0.01516 0.160856,-0.137667 0.174061,-0.150501 0.184864,-0.1645 0.09242,-0.08517 0.09604,-0.08866 0.09724,-0.09216 0.09963,-0.09334 0.09963,-0.09683 0.102036,-0.09917 0.100828,-0.101506 0.102037,-0.103832 0.102036,-0.106159 0.102037,-0.107335 0.102037,-0.109661 0.100827,-0.111999 0.100828,-0.113173 0.09963,-0.114325 0.09845,-0.116668 0.09724,-0.117827 0.09483,-0.117843 0.09483,-0.120164 0.09003,-0.119001 0.09003,-0.121339 0.08643,-0.122498 0.08402,-0.121338 0.08042,-0.122499 0.07804,-0.122499 0.07562,-0.121338 0.07083,-0.124835 0.0336,-0.05717 0.03241,-0.06067 0.0336,-0.06066 0.03001,-0.05951 0.03122,-0.0595 0.02881,-0.0595 0.02761,-0.05949 0.02761,-0.0595 0.02521,-0.05717 0.02521,-0.05834 0.02402,-0.05717 0.02281,-0.05717 0.02162,-0.056 0.0192,-0.05717 0.02041,-0.05483 0.018,-0.056 0.0168,-0.05366 0.0156,-0.05366 0.0144,-0.05483 0.0144,-0.0525 0.01195,-0.05135 0.01195,-0.05134 0.0084,-0.05016 0.0096,-0.05016 0.0084,-0.049 0.006,-0.04784 0.006,-0.04784 0.0047,-0.04667 0.0036,-0.04667 0.0025,-0.04549 0.0012,-0.04433 L 19,12.03966 V 12 l -0.0025,-0.03851 -0.0025,-0.03851 -0.0025,-0.03851 -0.0047,-0.03734 -0.0047,-0.03734 -0.0047,-0.03734 -0.0072,-0.03616 -0.0072,-0.03734 -0.0084,-0.03616 -0.0072,-0.03501 -0.0096,-0.03616 -0.01078,-0.03383 -0.01195,-0.03383 -0.01195,-0.035 -0.01195,-0.03383 -0.01321,-0.03266 -0.0144,-0.03266 -0.0144,-0.03267 -0.0156,-0.03267 -0.0156,-0.03034 -0.0168,-0.0315 -0.018,-0.03033 -0.01921,-0.0315 -0.018,-0.02917 -0.0192,-0.03033 -0.02041,-0.028 -0.02041,-0.028 -0.02162,-0.02683 -0.02281,-0.02683 -0.0216,-0.028 -0.02402,-0.02566 -0.02402,-0.02566 -0.02401,-0.0245 -0.02521,-0.0245 -0.02402,-0.02217 -0.0264,-0.02335 -0.0264,-0.02217 -0.0264,-0.02101 -0.02761,-0.01984 -0.02761,-0.02101 -0.02881,-0.01866 -0.02761,-0.01867 -0.02881,-0.01749 -0.03001,-0.01749 -0.02881,-0.01516 -0.03122,-0.01516 -0.03001,-0.01516 -0.03122,-0.01284 -0.03121,-0.01284 -0.03121,-0.01284 -0.03122,-0.01161 -0.03361,-0.01048 -0.03121,-0.0093 -0.0336,-0.0093 -0.03362,-0.007 -0.0336,-0.0082 -0.0336,-0.0046 -0.03362,-0.0058 -0.03481,-0.0046 -0.03481,-0.0024 -0.03601,-0.0035 -0.03481,-0.0024 h -0.03481 l -0.04802,0.0012 -0.04561,0.0035 -0.04561,0.0035 -0.04441,0.0046 -0.0444,0.0082 -0.04201,0.0082 -0.04441,0.0093 -0.04202,0.01161 -0.04081,0.01284 -0.04202,0.014 -0.04081,0.01749 -0.04081,0.01633 -0.03842,0.01867 -0.03842,0.01866 -0.03962,0.02217 -0.03721,0.02217 -0.03721,0.02217 -0.03602,0.02566 -0.03481,0.02683 -0.03601,0.02683 -0.03241,0.028 -0.03481,0.02917 -0.03121,0.03149 -0.03241,0.0315 -0.03001,0.03266 -0.03001,0.03383 -0.02761,0.03383 -0.02761,0.03616 -0.02761,0.03616 -0.02521,0.03734 -0.02521,0.03851 -0.701044,1.172504 h -0.636167 l -0.701046,-1.172504 -0.02402,-0.03851 -0.0264,-0.03734 -0.0264,-0.03616 -0.02761,-0.03616 -0.02881,-0.03383 -0.02881,-0.03383 -0.03122,-0.03266 -0.03122,-0.0315 -0.03241,-0.03149 -0.03361,-0.02917 -0.0336,-0.028 -0.03481,-0.02683 -0.03602,-0.02683 -0.03601,-0.02566 -0.03602,-0.02217 -0.03842,-0.02217 -0.03842,-0.02217 -0.03962,-0.01866 -0.03842,-0.01867 -0.03962,-0.01633 -0.04202,-0.01749 -0.04082,-0.014 -0.04081,-0.01284 -0.04321,-0.01161 -0.04321,-0.0093 -0.04202,-0.0082 -0.04561,-0.0082 -0.04441,-0.0046 -0.0444,-0.0035 -0.04681,-0.0035 -0.04802,-0.0012 z m 4.421139,-1.284506 0.06602,0.0024 0.06482,0.0035 0.06482,0.007 0.06363,0.007 0.06362,0.01048 0.06363,0.01161 0.06242,0.01284 0.06242,0.014 0.06122,0.01749 0.06002,0.01749 0.06122,0.01984 0.05882,0.02101 0.06002,0.02217 0.05882,0.0245 0.05762,0.02566 0.05642,0.02683 0.05642,0.03033 0.05521,0.02917 0.05402,0.0315 0.05402,0.03267 0.05402,0.035 0.05162,0.03501 0.05162,0.03734 0.05043,0.03851 0.04922,0.03966 0.04923,0.03967 0.04801,0.042 0.04561,0.04316 0.04561,0.04433 0.04562,0.04549 0.04321,0.04784 0.04321,0.04785 0.04202,0.04784 0.04081,0.05016 0.03842,0.0525 0.03962,0.05133 0.03721,0.0525 0.03601,0.05483 0.03481,0.05483 0.03481,0.056 0.03122,0.05717 0.03122,0.05717 0.03001,0.05951 0.03001,0.05949 0.0264,0.06067 0.02761,0.06184 0.02401,0.06067 0.02402,0.06301 0.02281,0.06534 0.0192,0.06416 0.02041,0.06416 0.018,0.06651 0.0156,0.06534 0.0156,0.06766 0.01321,0.06767 0.01195,0.06884 0.01079,0.06884 0.0084,0.06999 0.0072,0.06884 0.006,0.07115 0.0036,0.07116 0.0025,0.07115 0.0012,0.07233 -0.0012,0.07584 -0.0025,0.07585 -0.0036,0.07584 -0.006,0.07585 -0.0072,0.07585 -0.0096,0.07584 -0.01078,0.07701 -0.01195,0.07585 -0.0144,0.07584 -0.0144,0.07585 -0.01681,0.07585 -0.018,0.07584 -0.0192,0.07585 -0.02041,0.07585 -0.02281,0.07584 -0.02402,0.07584 -0.02401,0.07467 -0.0264,0.07585 -0.0264,0.07467 -0.02881,0.07585 -0.03001,0.07467 -0.03122,0.07467 -0.03121,0.07467 -0.03361,0.07467 -0.0336,0.07467 -0.03602,0.07467 -0.03601,0.07349 -0.03721,0.0735 -0.03842,0.07233 -0.03962,0.07349 -0.03962,0.07349 -0.04081,0.0735 -0.08523,0.1435 -0.08763,0.144669 -0.09004,0.141166 -0.09483,0.142335 -0.09483,0.139999 -0.09963,0.137667 -0.09963,0.136501 -0.103233,0.134168 -0.104442,0.134167 -0.10564,0.131832 -0.106836,0.129502 -0.10923,0.127169 -0.10923,0.125997 -0.10923,0.12366 -0.110439,0.121338 -0.110439,0.119002 -0.110439,0.117828 -0.10923,0.113175 -0.110439,0.111998 -0.109242,0.108497 -0.108045,0.107335 -0.106836,0.102669 -0.106836,0.101507 -0.103234,0.09799 -0.103233,0.09334 -0.100828,0.09334 -0.194467,0.173834 -0.184864,0.158667 -0.171661,0.147 -0.158455,0.131834 -0.144051,0.115507 -0.126041,0.100331 -0.10564,0.084 -0.150053,0.113173 -0.05283,0.03966 -0.05282,-0.03966 -0.150053,-0.113173 -0.105639,-0.084 -0.126042,-0.100332 -0.14285,-0.115507 -0.158456,-0.131834 -0.171659,-0.147 -0.186064,-0.158667 -0.194468,-0.173834 -0.09964,-0.09334 -0.103234,-0.09334 -0.104442,-0.09799 -0.105639,-0.101507 -0.106836,-0.102669 -0.10923,-0.107335 -0.109231,-0.108497 -0.10923,-0.111998 -0.10923,-0.113175 -0.111636,-0.117828 -0.110439,-0.119002 -0.10923,-0.121338 -0.110439,-0.12366 -0.10923,-0.125997 -0.108045,-0.127169 -0.106836,-0.129502 -0.106836,-0.131832 -0.103234,-0.134167 -0.103233,-0.134168 -0.100828,-0.136501 -0.09842,-0.137667 -0.09604,-0.139999 -0.09363,-0.142335 -0.09123,-0.141166 -0.08763,-0.144669 -0.08402,-0.1435 -0.04202,-0.0735 -0.03962,-0.07349 -0.03842,-0.07349 -0.03962,-0.07233 -0.03601,-0.0735 -0.03721,-0.07349 -0.03481,-0.07467 -0.03362,-0.07467 -0.0336,-0.07467 -0.03121,-0.07467 -0.03122,-0.07467 -0.03121,-0.07467 -0.02761,-0.07585 -0.02761,-0.07467 -0.02521,-0.07585 -0.02521,-0.07467 -0.02281,-0.07584 -0.02281,-0.07584 -0.02162,-0.07585 -0.0192,-0.07585 -0.01681,-0.07584 -0.018,-0.07585 -0.0144,-0.07585 -0.01321,-0.07584 -0.01195,-0.07585 -0.01078,-0.07701 -0.0096,-0.07584 -0.0084,-0.07585 -0.006,-0.07585 -0.0036,-0.07584 -0.0025,-0.07585 -0.0012,-0.07584 0.0012,-0.07233 0.0025,-0.07115 0.0036,-0.07116 0.006,-0.07115 0.0072,-0.06884 0.0096,-0.06999 0.01078,-0.06884 0.01195,-0.06884 0.01195,-0.06767 0.0156,-0.06766 0.0168,-0.06534 0.018,-0.06651 0.01921,-0.06416 0.02041,-0.06416 0.02281,-0.06534 0.02281,-0.06301 0.02521,-0.06067 0.0264,-0.06184 0.02761,-0.06067 0.02881,-0.05949 0.03001,-0.05951 0.03241,-0.05717 0.03121,-0.05717 0.03362,-0.056 0.03602,-0.05483 0.03481,-0.05483 0.03842,-0.0525 0.03842,-0.05133 0.03962,-0.0525 0.04081,-0.05016 0.04082,-0.04784 0.04441,-0.04785 0.04321,-0.04784 0.04441,-0.04549 0.04561,-0.04433 0.04681,-0.04316 0.04802,-0.042 0.04802,-0.03967 0.04922,-0.03966 0.05161,-0.03851 0.05161,-0.03734 0.05162,-0.03501 0.05282,-0.035 0.05402,-0.03267 0.05402,-0.0315 0.05642,-0.02917 0.05642,-0.03033 0.05642,-0.02683 0.05762,-0.02566 0.05882,-0.0245 0.05882,-0.02217 0.05882,-0.02101 0.06122,-0.01984 0.06002,-0.01749 0.06121,-0.01749 0.06242,-0.014 0.06242,-0.01284 0.06363,-0.01161 0.06363,-0.01048 0.06362,-0.007 0.06482,-0.007 0.06483,-0.0035 0.06602,-0.0024 0.06602,-0.0012 0.08523,0.0012 0.08402,0.0046 0.08283,0.007 0.08283,0.01161 0.08283,0.01284 0.08042,0.01516 0.08042,0.01867 0.07924,0.02216 0.07803,0.02334 0.07683,0.02683 0.07563,0.02917 0.07562,0.03266 0.07322,0.035 0.07322,0.03616 0.07202,0.03967 0.06962,0.04084 0.06723,0.04433 0.06723,0.04549 0.06602,0.04784 0.06482,0.05016 0.06242,0.0525 0.06123,0.056 0.06002,0.056 0.05882,0.05834 0.05642,0.06067 0.05402,0.06184 0.05283,0.06416 0.05161,0.06651 0.04922,0.06651 0.04802,0.07 0.04441,0.07115 0.04321,0.07116 0.04441,-0.07116 0.04441,-0.07115 0.04802,-0.07 0.04801,-0.06651 0.05283,-0.06651 0.05282,-0.06416 0.05402,-0.06184 0.05642,-0.06067 0.05762,-0.05834 0.06002,-0.056 0.06121,-0.056 0.06242,-0.0525 0.06482,-0.05016 0.06602,-0.04784 0.06723,-0.04549 0.06843,-0.04433 0.07083,-0.04084 0.07083,-0.03967 0.07322,-0.03616 0.07202,-0.035 0.07562,-0.03266 0.07562,-0.02917 0.07804,-0.02683 0.07804,-0.02334 0.07804,-0.02216 0.08043,-0.01867 0.08163,-0.01516 0.08283,-0.01284 0.08163,-0.01161 0.08402,-0.007 0.08402,-0.0046 0.08402,-0.0012 z"
         style="clip-rule:evenodd;isolation:isolate;fill:url(#_lgradient_1-36);fill-rule:evenodd;stroke-width:1.18342;stroke-linejoin:round;stroke-miterlimit:1.41421"
         inkscape:connector-curvature="0" />
    </g>
  </g>
</svg>
