<?xml version="1.0" encoding="UTF-8" standalone="no"?>
<svg
   xmlns:dc="http://purl.org/dc/elements/1.1/"
   xmlns:cc="http://creativecommons.org/ns#"
   xmlns:rdf="http://www.w3.org/1999/02/22-rdf-syntax-ns#"
   xmlns:svg="http://www.w3.org/2000/svg"
   xmlns="http://www.w3.org/2000/svg"
   xmlns:sodipodi="http://sodipodi.sourceforge.net/DTD/sodipodi-0.dtd"
   xmlns:inkscape="http://www.inkscape.org/namespaces/inkscape"
   version="1.1"
   id="svg2"
   viewBox="0 0 54 32"
   inkscape:version="0.92.2 (5c3e80d, 2017-08-06)"
   sodipodi:docname="cantata.svgz">
  <sodipodi:namedview
     pagecolor="#ffffff"
     bordercolor="#666666"
     borderopacity="1"
     objecttolerance="10"
     gridtolerance="10"
     guidetolerance="10"
     inkscape:pageopacity="0"
     inkscape:pageshadow="2"
     inkscape:window-width="1920"
     inkscape:window-height="1017"
     id="namedview14"
     showgrid="false"
     inkscape:zoom="1"
     inkscape:cx="-389.00688"
     inkscape:cy="-200.8466"
     inkscape:window-x="-8"
     inkscape:window-y="-8"
     inkscape:window-maximized="1"
     inkscape:current-layer="svg2" />
  <metadata
     id="metadata20">
    <rdf:RDF>
      <cc:Work
         rdf:about="">
        <dc:format>image/svg+xml</dc:format>
        <dc:type
           rdf:resource="http://purl.org/dc/dcmitype/StillImage" />
        <dc:title />
      </cc:Work>
    </rdf:RDF>
  </metadata>
  <defs
     id="defs3051">
    <style
       id="current-color-scheme"
       type="text/css">
      .ColorScheme-Text {
        color:#31363b;
      }
      </style>
  </defs>
  <g
     style="clip-rule:evenodd;fill-rule:evenodd;stroke-linejoin:round;stroke-miterlimit:1.41420996"
     id="cantata"
     transform="translate(22)">
    <g
       id="g836">
      <path
         inkscape:connector-curvature="0"
         style="fill:#C3C7D1"
         d="M 27,6.4804688 12,10.498047 v 1.035156 L 27,7.5136719 Z"
         id="path2" />
      <path
         inkscape:connector-curvature="0"
         style="fill:#C3C7D1"
         d="M 27,3.4804688 12,7.4980469 V 8.5332031 L 27,4.5136719 Z"
         id="path4" />
      <path
         inkscape:connector-curvature="0"
         d="m 13,8 v 17 c 0,2.208 -1.792,4 -4,4 -2.208,0 -4,-1.792 -4,-4 0,-2.208 1.792,-4 4,-4 1.194,0 2.267,0.524 3,1.355 V 8 Z M 9,22 c 1.656,0 3,1.344 3,3 0,1.656 -1.344,3 -3,3 -1.656,0 -3,-1.344 -3,-3 0,-1.656 1.344,-3 3,-3 z"
         style="fill:#C3C7D1"
         id="path6" />
      <path
         inkscape:connector-curvature="0"
         d="m 27,4 v 16 c 0,2.208 -1.792,4 -4,4 -2.208,0 -4,-1.792 -4,-4 0,-2.208 1.792,-4 4,-4 1.194,0 2.267,0.524 3,1.355 V 4 Z m -4,13 c 1.656,0 3,1.344 3,3 0,1.656 -1.344,3 -3,3 -1.656,0 -3,-1.344 -3,-3 0,-1.656 1.344,-3 3,-3 z"
         style="fill:#C3C7D1"
         id="path8" />
    </g>
    <rect
       y="0"
       x="0"
       height="32"
       width="32"
       id="rect838"
       style="fill:#ffffff;fill-opacity:0" />
  </g>
  <g
     style="clip-rule:evenodd;fill-rule:evenodd;stroke-linejoin:round;stroke-miterlimit:1.41420996"
     id="22-22-cantata"
     transform="translate(0,10)">
    <path
       inkscape:connector-curvature="0"
       id="path2-3"
       style="fill:#C3C7D1"
       d="m 18,2 v 0 h 1 v 12 c 0,1.656 -1.344,3 -3,3 -1.656,0 -3,-1.344 -3,-3 0,-1.656 1.344,-3 3,-3 0.768,0 1.469,0.289 2,0.765 V 6.0345 L 9,8.4465 V 17 c 0,1.656 -1.344,3 -3,3 -1.656,0 -3,-1.344 -3,-3 0,-1.656 1.344,-3 3,-3 0.768,0 1.469,0.289 2,0.765 V 4.68 Z M 6,15 c 1.104,0 2,0.896 2,2 0,1.104 -0.896,2 -2,2 -1.104,0 -2,-0.896 -2,-2 0,-1.104 0.896,-2 2,-2 z m 10,-3 c 1.104,0 2,0.896 2,2 0,1.104 -0.896,2 -2,2 -1.104,0 -2,-0.896 -2,-2 0,-1.104 0.896,-2 2,-2 z M 9,5.447 v 1.9645 l 9,-2.412 V 3.035 Z"
       sodipodi:nodetypes="cccsssscccsssscccssssssssssccccc" />
    <rect
       y="0"
       x="0"
       height="22"
       width="22"
       id="rect817"
       style="fill:#ffffff;fill-opacity:0;stroke-width:0.74140555" />
  </g>
</svg>
