<?xml version="1.0" encoding="UTF-8" standalone="no"?>
<!-- Created with Inkscape (http://www.inkscape.org/) -->

<svg
   xmlns:dc="http://purl.org/dc/elements/1.1/"
   xmlns:cc="http://creativecommons.org/ns#"
   xmlns:rdf="http://www.w3.org/1999/02/22-rdf-syntax-ns#"
   xmlns:svg="http://www.w3.org/2000/svg"
   xmlns="http://www.w3.org/2000/svg"
   xmlns:sodipodi="http://sodipodi.sourceforge.net/DTD/sodipodi-0.dtd"
   xmlns:inkscape="http://www.inkscape.org/namespaces/inkscape"
   width="32"
   height="32"
   id="svg3869"
   version="1.1"
   inkscape:version="0.92.2 (5c3e80d, 2017-08-06)"
   sodipodi:docname="device.svgz"
   viewBox="0 0 32 32">
  <defs
     id="defs3871">
    <style
       type="text/css"
       id="current-color-scheme">
      .ColorScheme-Text {
        color:#31363b;
      }
      .ColorScheme-Background {
        color:#eff0f1;
      }
      .ColorScheme-Highlight {
        color:#3daee9;
      }
      .ColorScheme-ViewText {
        color:#31363b;
      }
      .ColorScheme-ViewBackground {
        color:#fcfcfc;
      }
      .ColorScheme-ViewHover {
        color:#93cee9;
      }
      .ColorScheme-ViewFocus{
        color:#3daee9;
      }
      .ColorScheme-ButtonText {
        color:#31363b;
      }
      .ColorScheme-ButtonBackground {
        color:#eff0f1;
      }
      .ColorScheme-ButtonHover {
        color:#93cee9;
      }
      .ColorScheme-ButtonFocus{
        color:#3daee9;
      }
      </style>
  </defs>
  <sodipodi:namedview
     id="base"
     pagecolor="#ffffff"
     bordercolor="#666666"
     borderopacity="1.0"
     inkscape:pageopacity="0.0"
     inkscape:pageshadow="2"
     inkscape:zoom="11.313709"
     inkscape:cx="49.543545"
     inkscape:cy="7.5447599"
     inkscape:document-units="px"
     inkscape:current-layer="layer1"
     showgrid="true"
     fit-margin-top="0"
     fit-margin-left="0"
     fit-margin-right="0"
     fit-margin-bottom="0"
     inkscape:window-width="1920"
     inkscape:window-height="1017"
     inkscape:window-x="-8"
     inkscape:window-y="-8"
     inkscape:window-maximized="1"
     inkscape:showpageshadow="false">
    <inkscape:grid
       type="xygrid"
       id="grid4132"
       originx="5"
       originy="4.9999826" />
  </sodipodi:namedview>
  <metadata
     id="metadata3874">
    <rdf:RDF>
      <cc:Work
         rdf:about="">
        <dc:format>image/svg+xml</dc:format>
        <dc:type
           rdf:resource="http://purl.org/dc/dcmitype/StillImage" />
        <dc:title />
      </cc:Work>
    </rdf:RDF>
  </metadata>
  <g
     inkscape:label="Capa 1"
     inkscape:groupmode="layer"
     id="layer1"
     transform="translate(-321,-529.36218)">
    <g
       style="clip-rule:evenodd;fill-rule:evenodd;stroke-linejoin:round;stroke-miterlimit:1.41420996"
       id="device-notifier"
       transform="translate(321,529.3622)">
      <path
         inkscape:connector-curvature="0"
         id="path2"
         style="fill:#C3C7D1"
         d="M 21,29 H 11 C 9.344,29 8,27.656 8,26 V 10 h 16 v 16 c 0,1.656 -1.344,3 -3,3 z M 23,11 H 9 v 15 c 0,1.104 0.896,2 2,2 h 10 c 1.104,0 2,-0.896 2,-2 z m -4,15 h -6 c -1.104,0 -2,-0.896 -2,-2 v -9 c 0,-1.104 0.896,-2 2,-2 h 6 c 1.104,0 2,0.896 2,2 v 9 c 0,1.104 -0.896,2 -2,2 z m 0,-12 h -6 c -0.552,0 -1,0.448 -1,1 v 9 c 0,0.552 0.448,1 1,1 h 6 c 0.552,0 1,-0.448 1,-1 v -9 c 0,-0.552 -0.448,-1 -1,-1 z m -1,1 c 0.552,0 1,0.448 1,1 0,0.552 -0.448,1 -1,1 h -4 c -0.552,0 -1,-0.448 -1,-1 0,-0.552 0.448,-1 1,-1 z m 3,-5 H 20 V 4 h -8 v 6 H 11 V 3 H 21 Z M 19,8 H 17 V 5 h 2 z M 15,8 H 13 V 5 h 2 z" />
      <rect
         y="0"
         x="0"
         height="32"
         width="32"
         id="rect817"
         style="fill:#ffffff;fill-opacity:0;stroke-width:0.86188805" />
    </g>
    <g
       style="clip-rule:evenodd;fill-rule:evenodd;stroke-linejoin:round;stroke-miterlimit:1.41420996"
       id="22-22-device-notifier"
       transform="translate(353,534.36218)">
      <path
         inkscape:connector-curvature="0"
         style="fill:#C3C7D1;fill-opacity:1"
         id="path2-2"
         d="M 14,8 V 3 H 8 V 8 H 7 V 2 h 8 v 6 h 2 v 10 c 0,1.104 -0.896,2 -2,2 H 7 C 5.896,20 5,19.104 5,18 V 8 Z m 2,1 H 6 v 9 c 0,0.552 0.448,1 1,1 h 8 c 0.552,0 1,-0.448 1,-1 z m -3,7 c 0.552,0 1,0.448 1,1 0,0.552 -0.448,1 -1,1 H 9 C 8.448,18 8,17.552 8,17 8,16.448 8.448,16 9,16 Z m 0,-4 H 9 l 2,-2 z M 10,6 H 9 V 4 h 1 z m 3,0 H 12 V 4 h 1 z"
         sodipodi:nodetypes="cccccccccssssccccsssscssssssscccccccccccccc" />
      <rect
         y="0"
         x="0"
         height="22"
         width="22"
         id="rect817-1"
         style="fill:#ffffff;fill-opacity:0;stroke-width:0.54634756" />
    </g>
    <g
       style="clip-rule:evenodd;fill-rule:evenodd;stroke-linejoin:round;stroke-miterlimit:1.41420996"
       id="16-16-device-notifier"
       transform="translate(375,537.36218)">
      <path
         inkscape:connector-curvature="0"
         style="fill:#C3C7D1;fill-opacity:1"
         id="path2-23"
         d="m 12,8 h 1 c 0.552,0 1,0.448 1,1 v 5 c 0,0.552 -0.448,1 -1,1 H 3 C 2.448,15 2,14.552 2,14 V 9 C 2,8.448 2.448,8 3,8 H 4 V 1 h 8 z m 1,1 H 3 v 5 h 10 z m -8,2 h 6 v 2 H 5 Z M 11,8 V 2 H 5 V 8 Z M 7,6 H 6 V 3 h 1 z m 3,0 H 9 V 3 h 1 z" />
      <rect
         y="0"
         x="0"
         height="16"
         width="16"
         id="rect817-7"
         style="fill:#ffffff;fill-opacity:0;stroke-width:0.86204332" />
    </g>
  </g>
</svg>
