<?xml version="1.0" encoding="UTF-8" standalone="no"?>
<svg
   xmlns:dc="http://purl.org/dc/elements/1.1/"
   xmlns:cc="http://creativecommons.org/ns#"
   xmlns:rdf="http://www.w3.org/1999/02/22-rdf-syntax-ns#"
   xmlns:svg="http://www.w3.org/2000/svg"
   xmlns="http://www.w3.org/2000/svg"
   xmlns:sodipodi="http://sodipodi.sourceforge.net/DTD/sodipodi-0.dtd"
   xmlns:inkscape="http://www.inkscape.org/namespaces/inkscape"
   height="54"
   width="54"
   version="1.1"
   id="svg"
   viewBox="0 0 54 54"
   inkscape:version="0.92.2 (5c3e80d, 2017-08-06)"
   sodipodi:docname="document.svgz">
  <sodipodi:namedview
     pagecolor="#ffffff"
     bordercolor="#666666"
     borderopacity="1"
     objecttolerance="10"
     gridtolerance="10"
     guidetolerance="10"
     inkscape:pageopacity="0"
     inkscape:pageshadow="2"
     inkscape:window-width="1920"
     inkscape:window-height="1017"
     id="namedview20"
     showgrid="true"
     inkscape:zoom="3.9999998"
     inkscape:cx="-9.766524"
     inkscape:cy="60.656571"
     inkscape:window-x="-8"
     inkscape:window-y="-8"
     inkscape:window-maximized="1"
     inkscape:current-layer="svg">
    <inkscape:grid
       type="xygrid"
       id="grid826" />
  </sodipodi:namedview>
  <metadata
     id="metadata23">
    <rdf:RDF>
      <cc:Work
         rdf:about="">
        <dc:format>image/svg+xml</dc:format>
        <dc:type
           rdf:resource="http://purl.org/dc/dcmitype/StillImage" />
        <dc:title />
      </cc:Work>
    </rdf:RDF>
  </metadata>
  <defs
     id="defs81">
    <style
       type="text/css"
       id="current-color-scheme">
      .ColorScheme-Text {
        color:#31363b;
      }
      .ColorScheme-Background {
        color:#eff0f1;
      }
      .ColorScheme-Highlight {
        color:#3daee9;
      }
      .ColorScheme-ViewText {
        color:#31363b;
      }
      .ColorScheme-ViewBackground {
        color:#fcfcfc;
      }
      .ColorScheme-ViewHover {
        color:#93cee9;
      }
      .ColorScheme-ViewFocus{
        color:#3daee9;
      }
      .ColorScheme-ButtonText {
        color:#31363b;
      }
      .ColorScheme-ButtonBackground {
        color:#eff0f1;
      }
      .ColorScheme-ButtonHover {
        color:#93cee9;
      }
      .ColorScheme-ButtonFocus{
        color:#3daee9;
      }
      .ColorScheme-NegativeText {
        color:#da4453;
      }
  </style>
  </defs>
  <g
     transform="translate(0,32)"
     id="g8125">
    <rect
       class="ColorScheme-Text"
       y="0"
       x="0"
       height="22"
       width="22"
       id="rect3802"
       style="opacity:1;fill:none" />
  </g>
  <g
     style="clip-rule:evenodd;fill-rule:evenodd;stroke-linejoin:round;stroke-miterlimit:1.41420996"
     id="document-open-recent"
     transform="translate(22,22)">
    <path
       inkscape:connector-curvature="0"
       id="path2"
       style="fill:#C3C7D1"
       d="m 21,5 2,-2 h 2 c 1.656,0 3,1.344 3,3 v 20 c 0,1.656 -1.344,3 -3,3 H 7 C 5.344,29 4,27.656 4,26 V 22 L 6,20 V 10 C 6,8.896 6.896,8 8,8 V 7 C 8,5.896 8.896,5 10,5 Z M 25,4 H 23.5 L 5,22.4 V 26 c 0,1.104 0.896,2 2,2 h 18 c 1.104,0 2,-0.896 2,-2 V 6 C 27,4.896 26.104,4 25,4 Z M 20.5,16 C 23.536,16 26,18.464 26,21.5 26,24.536 23.536,27 20.5,27 17.464,27 15,24.536 15,21.5 15,18.464 17.464,16 20.5,16 Z m 0,1 C 22.984,17 25,19.016 25,21.5 25,23.984 22.984,26 20.5,26 18.016,26 16,23.984 16,21.5 16,19.016 18.016,17 20.5,17 Z m 3.5,5 h -4 v -4 h 1 v 3 h 3 z M 8,11 h 7 L 17,9 H 8 C 7.448,9 7,9.448 7,10 v 9 l 3,-3 H 8 v -1 h 3 l 1,-1 H 8 v -1 h 5 l 1,-1 H 8 Z M 20,6 H 10 C 9.448,6 9,6.448 9,7 v 1 h 9 z"
       sodipodi:nodetypes="ccssssssccscsscsccssssssssssssssssccccccccccsscccccccccccccssccc" />
    <rect
       y="0"
       x="0"
       height="32"
       width="32"
       id="rect817"
       style="fill:#ffffff;fill-opacity:0;stroke-width:0.99738574" />
  </g>
  <g
     style="clip-rule:evenodd;fill-rule:evenodd;stroke-linejoin:round;stroke-miterlimit:1.41420996"
     id="22-22-document-open-recent"
     transform="translate(0,32)">
    <g
       id="g826">
      <path
         inkscape:connector-curvature="0"
         d="M 14.5,11 C 16.984,11 19,13.016 19,15.5 19,17.984 16.984,20 14.5,20 12.016,20 10,17.984 10,15.5 10,13.016 12.016,11 14.5,11 Z m 0,1 C 16.432,12 18,13.568 18,15.5 18,17.432 16.432,19 14.5,19 12.568,19 11,17.432 11,15.5 11,13.568 12.568,12 14.5,12 Z m 0.5,3 h 2 v 1 h -3 v -3 h 1 z"
         style="fill:#C3C7D1"
         id="path2-2" />
      <path
         inkscape:connector-curvature="0"
         d="M 10,20 H 5 C 3.896,20 3,19.104 3,18 V 16.25 L 4,15.069 V 5 C 4,3.896 4.896,3 6,3 h 8.216 L 15.063,2 15.07,2.015 V 2 H 17 c 1.104,0 2,0.896 2,2 v 7 H 18 V 4 C 18,3.448 17.552,3 17,3 H 15.542 L 4,16.606 V 18 c 0,0.552 0.448,1 1,1 h 5 z M 13.37,4 H 6 C 5.448,4 5,4.448 5,5 v 8.887 L 7.444,11 H 6 V 10 H 8.291 L 9.137,9 H 6 V 8 H 9.984 L 10.83,7 H 6 V 6 h 5.677 z"
         style="fill:#C3C7D1"
         id="path4" />
    </g>
    <rect
       y="0"
       x="0"
       height="22"
       width="22"
       id="rect822"
       style="fill:#ffffff;fill-opacity:0;stroke-width:0.99578065" />
  </g>
  <g
     style="clip-rule:evenodd;fill-rule:evenodd;stroke-linejoin:round;stroke-miterlimit:1.41420996"
     id="document-encrypt">
    <path
       inkscape:connector-curvature="0"
       style="fill:#C3C7D1;fill-opacity:1"
       id="path2-9"
       d="M 16,20 H 6 C 4.896,20 4,19.104 4,18 V 4 C 4,2.896 4.896,2 6,2 h 10 c 1.104,0 2,0.896 2,2 v 14 c 0,1.104 -0.896,2 -2,2 z M 16,3 H 6 C 5.448,3 5,3.448 5,4 v 14 c 0,0.552 0.448,1 1,1 h 10 c 0.552,0 1,-0.448 1,-1 V 4 C 17,3.448 16.552,3 16,3 Z M 15,17 H 7 V 11 H 8 V 8 c 0,-1.656 1.344,-3 3,-3 1.656,0 3,1.344 3,3 v 3 h 1 z M 14,12 H 8 v 4 h 6 z M 13,8 C 13,6.896 12.104,6 11,6 9.896,6 9,6.896 9,8 v 3 h 4 z"
       sodipodi:nodetypes="ssssssssssssssssssccccsssccccccccsssccs" />
    <rect
       y="0"
       x="0"
       height="22"
       width="22"
       id="rect817-6"
       style="fill:#ffffff;fill-opacity:0;stroke-width:1.00212538" />
  </g>
  <g
     style="clip-rule:evenodd;fill-rule:evenodd;stroke-linejoin:round;stroke-miterlimit:1.41420996"
     id="document-decrypt"
     transform="translate(22)">
    <path
       inkscape:connector-curvature="0"
       id="path2-0"
       d="m 16,2 c 1.104,0 2,0.896 2,2 v 14 c 0,1.104 -0.896,2 -2,2 H 6 C 4.896,20 4,19.104 4,18 V 4 C 4,2.896 4.896,2 6,2 Z m 0,1 H 6 C 5.448,3 5,3.448 5,4 v 14 c 0,0.552 0.448,1 1,1 h 10 c 0.552,0 1,-0.448 1,-1 V 4 C 17,3.448 16.552,3 16,3 Z"
       style="fill:#C3C7D1;fill-opacity:1" />
    <path
       inkscape:connector-curvature="0"
       id="path4-3"
       style="fill:#C3C7D1"
       d="m 11,6 c 2.76,0 5,2.24 5,5 0,2.76 -2.24,5 -5,5 C 8.24,16 6,13.76 6,11 6,8.24 8.24,6 11,6 Z m 0,1 c 2.208,0 4,1.792 4,4 0,2.208 -1.792,4 -4,4 C 8.792,15 7,13.208 7,11 7,8.792 8.792,7 11,7 Z m 2.101,1.858 0.74,0.674 -3.611,3.61 -2.071,-2.07 0.707,-0.707 1.364,1.363 z" />
    <rect
       y="0"
       x="0"
       height="22"
       width="22"
       id="rect822-1"
       style="fill:#ffffff;fill-opacity:0;stroke-width:0.9125787" />
  </g>
  <g
     style="clip-rule:evenodd;fill-rule:evenodd;stroke-linejoin:round;stroke-miterlimit:1.41420996"
     id="16-16-document-encrypt"
     transform="translate(-16)">
    <path
       inkscape:connector-curvature="0"
       style="fill:#C3C7D1"
       d="M 12,14 H 4 V 8 H 5 V 5 C 5,3.344 6.344,2 8,2 c 1.656,0 3,1.344 3,3 v 3 h 1 z M 11,9 H 5 v 4 h 6 z M 10,5 C 10,3.896 9.104,3 8,3 6.896,3 6,3.896 6,5 v 3 h 4 z"
       id="path2-9-1"
       sodipodi:nodetypes="ccccsssccccccccsssccs" />
    <rect
       y="0"
       x="0"
       height="16"
       width="16"
       id="rect819"
       style="fill:#ffffff;fill-opacity:0;stroke-width:1.06307387" />
  </g>
  <g
     style="clip-rule:evenodd;fill-rule:evenodd;stroke-linejoin:round;stroke-miterlimit:1.41420996"
     id="16-16-document-decrypt"
     transform="translate(-16,16)">
    <path
       inkscape:connector-curvature="0"
       style="fill:#C3C7D1"
       d="m 8,3 c 2.76,0 5,2.24 5,5 0,2.76 -2.24,5 -5,5 C 5.24,13 3,10.76 3,8 3,5.24 5.24,3 8,3 Z m 0,1 c 2.208,0 4,1.792 4,4 0,2.208 -1.792,4 -4,4 C 5.792,12 4,10.208 4,8 4,5.792 5.792,4 8,4 Z m 2.101,1.858 0.74,0.674 L 7.23,10.142 5.159,8.072 5.866,7.365 7.23,8.728 Z"
       id="path4-3-4" />
    <rect
       y="0"
       x="0"
       height="16"
       width="16"
       id="rect819-7"
       style="fill:#ffffff;fill-opacity:0;stroke-width:0.95385653" />
  </g>
</svg>
