<?xml version="1.0" encoding="UTF-8" standalone="no"?>
<svg
   xmlns:dc="http://purl.org/dc/elements/1.1/"
   xmlns:cc="http://creativecommons.org/ns#"
   xmlns:rdf="http://www.w3.org/1999/02/22-rdf-syntax-ns#"
   xmlns:svg="http://www.w3.org/2000/svg"
   xmlns="http://www.w3.org/2000/svg"
   xmlns:sodipodi="http://sodipodi.sourceforge.net/DTD/sodipodi-0.dtd"
   xmlns:inkscape="http://www.inkscape.org/namespaces/inkscape"
   version="1.1"
   id="svg2"
   viewBox="0 0 54 32"
   inkscape:version="0.92.2 (5c3e80d, 2017-08-06)"
   sodipodi:docname="drive.svgz">
  <sodipodi:namedview
     pagecolor="#ffffff"
     bordercolor="#666666"
     borderopacity="1"
     objecttolerance="10"
     gridtolerance="10"
     guidetolerance="10"
     inkscape:pageopacity="0"
     inkscape:pageshadow="2"
     inkscape:window-width="1920"
     inkscape:window-height="1017"
     id="namedview15"
     showgrid="false"
     inkscape:zoom="1"
     inkscape:cx="-18.487799"
     inkscape:cy="18.298159"
     inkscape:window-x="-8"
     inkscape:window-y="-8"
     inkscape:window-maximized="1"
     inkscape:current-layer="svg2" />
  <metadata
     id="metadata21">
    <rdf:RDF>
      <cc:Work
         rdf:about="">
        <dc:format>image/svg+xml</dc:format>
        <dc:type
           rdf:resource="http://purl.org/dc/dcmitype/StillImage" />
        <dc:title />
      </cc:Work>
    </rdf:RDF>
  </metadata>
  <defs
     id="defs3051">
    <style
       id="current-color-scheme"
       type="text/css">
      .ColorScheme-Text {
        color:#31363b;
      }
      </style>
  </defs>
  <g
     style="clip-rule:evenodd;fill-rule:evenodd;stroke-linejoin:round;stroke-miterlimit:1.41420996"
     id="22-22-drive"
     transform="translate(0,10)">
    <path
       inkscape:connector-curvature="0"
       id="path2"
       d="M 6,2 C 4.896,2 4,2.896 4,4 v 11 1 2 c 0,1.104 0.896,2 2,2 h 10 c 1.104,0 2,-0.896 2,-2 V 16 15 4 C 18,2.896 17.104,2 16,2 Z m 0,1 h 10 c 0.552,0 1,0.448 1,1 V 15 H 5 V 4 C 5,3.448 5.448,3 6,3 Z m 5,1 C 8.24,4 6,6.24 6,9 H 7 C 7,6.792 8.792,5 11,5 Z m 4,5 c 0,2.208 -1.792,4 -4,4 v 1 c 2.76,0 5,-2.24 5,-5 z M 5,16 h 12 v 2 c 0,0.552 -0.448,1 -1,1 H 6 C 5.448,19 5,18.552 5,18 Z m 1,1 v 1 h 1 v -1 z m 7,0 v 1 h 3 v -1 z"
       style="fill:#C3C7D1" />
    <rect
       y="0"
       x="0"
       height="22"
       width="22"
       id="rect828"
       style="fill:#ffffff;fill-opacity:0;stroke-width:0.97925305" />
  </g>
  <g
     style="clip-rule:evenodd;fill-rule:evenodd;stroke-linejoin:round;stroke-miterlimit:1.41420996"
     id="drive"
     transform="translate(22)">
    <g
       id="g851">
      <path
         inkscape:connector-curvature="0"
         d="m 24,3 c 1.104,0 2,0.896 2,2 v 22 c 0,1.104 -0.896,2 -2,2 H 8 C 6.896,29 6,28.104 6,27 V 5 C 6,3.896 6.896,3 8,3 Z m 0,1 H 8 C 7.448,4 7,4.448 7,5 v 22 c 0,0.552 0.448,1 1,1 h 16 c 0.552,0 1,-0.448 1,-1 V 5 C 25,4.448 24.552,4 24,4 Z"
         style="fill:#C3C7D1"
         id="path2-2" />
      <rect
         x="6"
         y="22"
         width="20"
         height="1"
         style="fill:#C3C7D1"
         id="rect4" />
      <path
         inkscape:connector-curvature="0"
         d="m 22.5,24 c 0.828,0 1.5,0.672 1.5,1.5 0,0.828 -0.672,1.5 -1.5,1.5 h -4 C 17.672,27 17,26.328 17,25.5 17,24.672 17.672,24 18.5,24 Z M 22,25 h -3 v 1 h 3 z"
         style="fill:#C3C7D1"
         id="path6" />
      <path
         inkscape:connector-curvature="0"
         d="M 9.5,24 C 10.328,24 11,24.672 11,25.5 11,26.328 10.328,27 9.5,27 8.672,27 8,26.328 8,25.5 8,24.672 8.672,24 9.5,24 Z M 10,25 H 9 v 1 h 1 z"
         style="fill:#C3C7D1"
         id="path8" />
      <path
         inkscape:connector-curvature="0"
         d="m 16,5 c 4.415,0 8,3.585 8,8 0,4.415 -3.585,8 -8,8 -4.415,0 -8,-3.585 -8,-8 0,-4.415 3.585,-8 8,-8 z m 0,1 c 3.863,0 7,3.137 7,7 0,3.863 -3.137,7 -7,7 -3.863,0 -7,-3.137 -7,-7 0,-3.863 3.137,-7 7,-7 z"
         style="fill:#C3C7D1"
         id="path10" />
      <path
         inkscape:connector-curvature="0"
         d="m 16,10 c 1.656,0 3,1.344 3,3 0,1.656 -1.344,3 -3,3 -1.656,0 -3,-1.344 -3,-3 0,-1.656 1.344,-3 3,-3 z m 0,1 c 1.104,0 2,0.896 2,2 0,1.104 -0.896,2 -2,2 -1.104,0 -2,-0.896 -2,-2 0,-1.104 0.896,-2 2,-2 z"
         style="fill:#C3C7D1"
         id="path12" />
      <rect
         x="8"
         y="5"
         width="1"
         height="1"
         style="fill:#C3C7D1"
         id="rect14" />
      <rect
         x="23"
         y="5"
         width="1"
         height="1"
         style="fill:#C3C7D1"
         id="rect16" />
      <rect
         x="8"
         y="20"
         width="1"
         height="1"
         style="fill:#C3C7D1"
         id="rect18" />
      <rect
         x="23"
         y="20"
         width="1"
         height="1"
         style="fill:#C3C7D1"
         id="rect20" />
      <circle
         cx="16"
         cy="13"
         r="1"
         style="fill:#C3C7D1"
         id="circle22" />
    </g>
    <rect
       y="0"
       x="0"
       height="32"
       width="32"
       id="rect853"
       style="fill:#ffffff;fill-opacity:0;stroke-width:1.0085839" />
  </g>
  <g
     style="clip-rule:evenodd;fill-rule:evenodd;stroke-linejoin:round;stroke-miterlimit:1.41420996"
     id="16-16-drive"
     transform="translate(-16,16)">
    <path
       inkscape:connector-curvature="0"
       id="path2-1"
       style="fill:#C3C7D1"
       d="M 14,15 H 2 V 1 H 14 Z M 5,13 H 4 v 1 h 1 z m 7,0 H 9 v 1 h 3 z M 13,2 H 3 v 10 h 10 z m -5,8 c 1.656,0 3,-1.344 3,-3 h 1 c 0,2.199 -1.778,3.986 -3.974,4 H 8 Z M 4,7 C 4,4.792 5.792,3 8,3 V 4 C 6.344,4 5,5.344 5,7 Z" />
    <rect
       y="0"
       x="0"
       height="16"
       width="16"
       id="rect817"
       style="fill:#ffffff;fill-opacity:0;stroke-width:1.00855625" />
  </g>
</svg>
