<?xml version="1.0" encoding="UTF-8" standalone="no"?>
<svg
   xmlns:dc="http://purl.org/dc/elements/1.1/"
   xmlns:cc="http://creativecommons.org/ns#"
   xmlns:rdf="http://www.w3.org/1999/02/22-rdf-syntax-ns#"
   xmlns:svg="http://www.w3.org/2000/svg"
   xmlns="http://www.w3.org/2000/svg"
   xmlns:sodipodi="http://sodipodi.sourceforge.net/DTD/sodipodi-0.dtd"
   xmlns:inkscape="http://www.inkscape.org/namespaces/inkscape"
   version="1.1"
   id="svg2"
   viewBox="0 0 54 32"
   inkscape:version="0.92.3 (2405546, 2018-03-11)"
   sodipodi:docname="edit.svgz">
  <sodipodi:namedview
     pagecolor="#ffffff"
     bordercolor="#666666"
     borderopacity="1"
     objecttolerance="10"
     gridtolerance="10"
     guidetolerance="10"
     inkscape:pageopacity="0"
     inkscape:pageshadow="2"
     inkscape:window-width="1920"
     inkscape:window-height="1011"
     id="namedview12"
     showgrid="false"
     inkscape:zoom="10.429825"
     inkscape:cx="2.550983"
     inkscape:cy="16.726348"
     inkscape:window-x="0"
     inkscape:window-y="0"
     inkscape:window-maximized="1"
     inkscape:current-layer="svg2" />
  <metadata
     id="metadata14">
    <rdf:RDF>
      <cc:Work
         rdf:about="">
        <dc:format>image/svg+xml</dc:format>
        <dc:type
           rdf:resource="http://purl.org/dc/dcmitype/StillImage" />
        <dc:title />
      </cc:Work>
    </rdf:RDF>
  </metadata>
  <defs
     id="defs3051">
    <style
       id="current-color-scheme"
       type="text/css">
      .ColorScheme-NegativeText {
        color:#da4453;
      }
      </style>
  </defs>
  <g
     style="clip-rule:evenodd;fill-rule:evenodd;stroke-linejoin:round;stroke-miterlimit:1.41420996"
     id="edit-delete"
     transform="translate(22)">
    <path
       inkscape:connector-curvature="0"
       id="path2"
       style="fill:#ff4d62;fill-opacity:1"
       d="M 16,4 C 22.623,4 28,9.377 28,16 28,22.623 22.623,28 16,28 9.377,28 4,22.623 4,16 4,9.377 9.377,4 16,4 Z M 7.878,8.585 C 6.091,10.541 5,13.144 5,16 c 0,6.071 4.929,11 11,11 2.856,0 5.459,-1.091 7.415,-2.878 z m 16.244,14.83 C 25.909,21.459 27,18.856 27,16 27,9.929 22.071,5 16,5 13.144,5 10.541,6.091 8.585,7.878 v 0 z" />
    <rect
       y="0"
       x="0"
       height="32"
       width="32"
       id="rect817"
       style="fill:#ffffff;fill-opacity:0;stroke-width:0.92924905" />
  </g>
  <g
     style="clip-rule:evenodd;fill-rule:evenodd;stroke-linejoin:round;stroke-miterlimit:1.41420996"
     id="22-22-edit-delete"
     transform="translate(0,10)">
    <path
       inkscape:connector-curvature="0"
       id="path2-2"
       style="fill:#ff4d62;fill-opacity:1"
       d="m 11,2 c 4.967,0 9,4.033 9,9 0,4.967 -4.033,9 -9,9 C 6.033,20 2,15.967 2,11 2,6.033 6.033,2 11,2 Z M 5.016,5.692 C 3.762,7.105 3,8.964 3,11 c 0,4.415 3.585,8 8,8 2.036,0 3.895,-0.762 5.308,-2.016 z M 16.993,16.297 C 18.242,14.886 19,13.031 19,11 19,6.585 15.415,3 11,3 8.976,3 7.126,3.753 5.717,4.995 l 0.028,0.012 11.248,11.248 z" />
    <rect
       y="0"
       x="0"
       height="22"
       width="22"
       id="rect817-9"
       style="fill:#ffffff;fill-opacity:0;stroke-width:1.06106269" />
  </g>
</svg>
