<?xml version="1.0" encoding="UTF-8" standalone="no"?>
<!-- Created with Inkscape (http://www.inkscape.org/) -->

<svg
   xmlns:dc="http://purl.org/dc/elements/1.1/"
   xmlns:cc="http://creativecommons.org/ns#"
   xmlns:rdf="http://www.w3.org/1999/02/22-rdf-syntax-ns#"
   xmlns:svg="http://www.w3.org/2000/svg"
   xmlns="http://www.w3.org/2000/svg"
   xmlns:sodipodi="http://sodipodi.sourceforge.net/DTD/sodipodi-0.dtd"
   xmlns:inkscape="http://www.inkscape.org/namespaces/inkscape"
   width="22"
   height="22"
   id="svg3869"
   version="1.1"
   inkscape:version="0.92.2 (5c3e80d, 2017-08-06)"
   sodipodi:docname="go.svgz"
   viewBox="0 0 22 22">
  <defs
     id="defs3871">
    <style
       type="text/css"
       id="current-color-scheme">
      .ColorScheme-Text {
        color:#31363b;
      }
      .ColorScheme-Background {
        color:#eff0f1;
      }
      .ColorScheme-Highlight {
        color:#3daee9;
      }
      .ColorScheme-ViewText {
        color:#31363b;
      }
      .ColorScheme-ViewBackground {
        color:#fcfcfc;
      }
      .ColorScheme-ViewHover {
        color:#93cee9;
      }
      .ColorScheme-ViewFocus{
        color:#3daee9;
      }
      .ColorScheme-ButtonText {
        color:#31363b;
      }
      .ColorScheme-ButtonBackground {
        color:#eff0f1;
      }
      .ColorScheme-ButtonHover {
        color:#93cee9;
      }
      .ColorScheme-ButtonFocus{
        color:#3daee9;
      }
      </style>
  </defs>
  <sodipodi:namedview
     id="base"
     pagecolor="#ffffff"
     bordercolor="#666666"
     borderopacity="1.0"
     inkscape:pageopacity="0.0"
     inkscape:pageshadow="2"
     inkscape:zoom="8.0000001"
     inkscape:cx="50.086451"
     inkscape:cy="10.924615"
     inkscape:document-units="px"
     inkscape:current-layer="layer1"
     showgrid="true"
     fit-margin-top="0"
     fit-margin-left="0"
     fit-margin-right="0"
     fit-margin-bottom="0"
     inkscape:window-width="1920"
     inkscape:window-height="1017"
     inkscape:window-x="-8"
     inkscape:window-y="-8"
     inkscape:window-maximized="1"
     inkscape:showpageshadow="false">
    <inkscape:grid
       type="xygrid"
       id="grid4132" />
  </sodipodi:namedview>
  <metadata
     id="metadata3874">
    <rdf:RDF>
      <cc:Work
         rdf:about="">
        <dc:format>image/svg+xml</dc:format>
        <dc:type
           rdf:resource="http://purl.org/dc/dcmitype/StillImage" />
        <dc:title />
      </cc:Work>
    </rdf:RDF>
  </metadata>
  <g
     inkscape:label="Capa 1"
     inkscape:groupmode="layer"
     id="layer1"
     transform="translate(-326,-534.3622)">
    <g
       style="clip-rule:evenodd;fill-rule:evenodd;stroke-linejoin:round;stroke-miterlimit:1.41420996"
       id="go-home"
       transform="translate(326,534.3622)">
      <path
         inkscape:connector-curvature="0"
         id="path2"
         style="fill:#C3C7D1"
         d="M 8,20 H 3 V 11.7 L 2.707,11.707 2,11 10.293,2.707 11,2 14,5 V 3 h 4 v 6 l 2,2 -0.707,0.707 L 19,11.7 V 20 H 12 V 13 H 8 Z m 7,-12.586 -4,-4 -7,7 V 19 h 3 v -7 h 6 v 7 h 5 v -8.586 l -1,-1 V 4 h -2 z" />
      <rect
         y="0"
         x="0"
         height="22"
         width="22"
         id="rect817"
         style="fill:#ffffff;fill-opacity:0;stroke-width:0.95913571" />
    </g>
    <g
       style="clip-rule:evenodd;fill-rule:evenodd;stroke-linejoin:round;stroke-miterlimit:1.41420996"
       id="go-next"
       transform="translate(348,534.3622)">
      <path
         inkscape:connector-curvature="0"
         id="path2-9"
         style="fill:#C3C7D1"
         d="m 7.356,3 v 0 l 8,8 -8,8 H 7.346 L 6.644,18.298 13.942,11 6.649,3.707 Z" />
      <rect
         y="0"
         x="0"
         height="22"
         width="22"
         id="rect817-0"
         style="fill:#ffffff;fill-opacity:0;stroke-width:0.99790585" />
    </g>
    <g
       style="clip-rule:evenodd;fill-rule:evenodd;stroke-linejoin:round;stroke-miterlimit:1.41420996"
       id="go-previous"
       transform="matrix(-1,0,0,1,392,534.3622)">
      <path
         inkscape:connector-curvature="0"
         id="path2-9-5"
         style="fill:#C3C7D1"
         d="m 7.356,3 v 0 l 8,8 -8,8 H 7.346 L 6.644,18.298 13.942,11 6.649,3.707 Z" />
      <rect
         y="0"
         x="0"
         height="22"
         width="22"
         id="rect817-0-2"
         style="fill:#ffffff;fill-opacity:0;stroke-width:0.99790585" />
    </g>
    <g
       style="clip-rule:evenodd;fill-rule:evenodd;stroke-linejoin:round;stroke-miterlimit:1.41420996"
       id="go-down"
       transform="rotate(90,-48.6811,485.6811)">
      <path
         inkscape:connector-curvature="0"
         id="path2-9-5-8"
         style="fill:#C3C7D1"
         d="m 7.356,3 v 0 l 8,8 -8,8 H 7.346 L 6.644,18.298 13.942,11 6.649,3.707 Z" />
      <rect
         y="0"
         x="0"
         height="22"
         width="22"
         id="rect817-0-2-3"
         style="fill:#ffffff;fill-opacity:0;stroke-width:0.99790585" />
    </g>
    <g
       style="clip-rule:evenodd;fill-rule:evenodd;stroke-linejoin:round;stroke-miterlimit:1.41420996"
       id="go-up"
       transform="matrix(0,-1,-1,0,414,556.3622)">
      <path
         inkscape:connector-curvature="0"
         id="path2-9-5-8-1"
         style="fill:#C3C7D1"
         d="m 7.356,3 v 0 l 8,8 -8,8 H 7.346 L 6.644,18.298 13.942,11 6.649,3.707 Z" />
      <rect
         y="0"
         x="0"
         height="22"
         width="22"
         id="rect817-0-2-3-5"
         style="fill:#ffffff;fill-opacity:0;stroke-width:0.99790585" />
    </g>
  </g>
</svg>
