<?xml version="1.0" encoding="UTF-8" standalone="no"?>
<svg
   xmlns:dc="http://purl.org/dc/elements/1.1/"
   xmlns:cc="http://creativecommons.org/ns#"
   xmlns:rdf="http://www.w3.org/1999/02/22-rdf-syntax-ns#"
   xmlns:svg="http://www.w3.org/2000/svg"
   xmlns="http://www.w3.org/2000/svg"
   xmlns:sodipodi="http://sodipodi.sourceforge.net/DTD/sodipodi-0.dtd"
   xmlns:inkscape="http://www.inkscape.org/namespaces/inkscape"
   viewBox="0 0 22 22"
   version="1.1"
   id="svg3869"
   height="22"
   width="22"
   sodipodi:docname="kalarm.svgz"
   inkscape:version="0.92.2 (5c3e80d, 2017-08-06)">
  <sodipodi:namedview
     pagecolor="#ffffff"
     bordercolor="#666666"
     borderopacity="1"
     objecttolerance="10"
     gridtolerance="10"
     guidetolerance="10"
     inkscape:pageopacity="0"
     inkscape:pageshadow="2"
     inkscape:window-width="1920"
     inkscape:window-height="1017"
     id="namedview17"
     showgrid="false"
     inkscape:zoom="5.3636364"
     inkscape:cx="7.2347936"
     inkscape:cy="-5.2812423"
     inkscape:window-x="-8"
     inkscape:window-y="-8"
     inkscape:window-maximized="1"
     inkscape:current-layer="svg3869" />
  <metadata
     id="metadata16">
    <rdf:RDF>
      <cc:Work
         rdf:about="">
        <dc:format>image/svg+xml</dc:format>
        <dc:type
           rdf:resource="http://purl.org/dc/dcmitype/StillImage" />
        <dc:title />
      </cc:Work>
    </rdf:RDF>
  </metadata>
  <defs
     id="defs3871">
    <style
       id="current-color-scheme"
       type="text/css">
      .ColorScheme-Text {
        color:#31363b;
      }
      .ColorScheme-Background {
        color:#eff0f1;
      }
      .ColorScheme-Highlight {
        color:#3daee9;
      }
      .ColorScheme-ViewText {
        color:#31363b;
      }
      .ColorScheme-ViewBackground {
        color:#fcfcfc;
      }
      .ColorScheme-ViewHover {
        color:#93cee9;
      }
      .ColorScheme-ViewFocus{
        color:#3daee9;
      }
      .ColorScheme-ButtonText {
        color:#31363b;
      }
      .ColorScheme-ButtonBackground {
        color:#eff0f1;
      }
      .ColorScheme-ButtonHover {
        color:#93cee9;
      }
      .ColorScheme-ButtonFocus{
        color:#3daee9;
      }
      </style>
  </defs>
  <g
     style="clip-rule:evenodd;fill-rule:evenodd;stroke-linejoin:round;stroke-miterlimit:1.41420996"
     id="kalarm">
    <path
       inkscape:connector-curvature="0"
       id="path2"
       d="M 11,2 C 9.896,2 9,2.896 9,4 V 4.3417969 C 6.68,5.1627969 5.013,7.37175 5,9.96875 V 10 13 H 4 c -1.104,0 -2,0.896 -2,2 0,1.104 0.896,2 2,2 h 4 c 0,1.656 1.344,3 3,3 1.656,0 3,-1.344 3,-3 h 4 c 1.104,0 2,-0.896 2,-2 0,-1.104 -0.896,-2 -2,-2 H 17 V 10 C 17,7.39 15.329,5.1657969 13,4.3417969 V 4 C 13,2.896 12.104,2 11,2 Z m 0,1 c 0.552,0 1,0.448 1,1 V 4.082031 C 11.675,4.0270312 11.341,4 11,4 10.659,4 10.325,4.0270313 10,4.0820312 V 4 c 0,-0.552 0.448,-1 1,-1 z m 0,2 c 2.749,0 4.982,2.22375 5,4.96875 V 10 14 h 2 c 0.552,0 1,0.448 1,1 0,0.552 -0.448,1 -1,1 H 4 C 3.448,16 3,15.552 3,15 3,14.448 3.448,14 4,14 H 6 V 10 C 6,7.24 8.24,5 11,5 Z M 9,17 h 4 c 0,1.104 -0.896,2 -2,2 -1.104,0 -2,-0.896 -2,-2 z"
       style="fill:#C3C7D1" />
    <rect
       y="0"
       x="0"
       height="22"
       width="22"
       id="rect822"
       style="fill:#ffffff;fill-opacity:0;stroke-width:0.91742021" />
  </g>
  <g
     style="clip-rule:evenodd;fill-rule:evenodd;stroke-linejoin:round;stroke-miterlimit:1.41420996"
     id="kalarm-disabled"
     transform="translate(22)">
    <path
       inkscape:connector-curvature="0"
       id="path2-1"
       d="M 11,2 C 9.896,2 9,2.896 9,4 V 4.3417969 C 6.68,5.1627969 5.013,7.37175 5,9.96875 V 10 13 H 4 c -1.104,0 -2,0.896 -2,2 0,1.104 0.896,2 2,2 h 4 c 0,1.656 1.344,3 3,3 1.656,0 3,-1.344 3,-3 h 4 c 1.104,0 2,-0.896 2,-2 0,-1.104 -0.896,-2 -2,-2 H 17 V 10 C 17,7.39 15.329,5.1657969 13,4.3417969 V 4 C 13,2.896 12.104,2 11,2 Z m 0,1 c 0.552,0 1,0.448 1,1 V 4.082031 C 11.675,4.0270312 11.341,4 11,4 10.659,4 10.325,4.0270313 10,4.0820312 V 4 c 0,-0.552 0.448,-1 1,-1 z m 0,2 c 2.749,0 4.982,2.22375 5,4.96875 V 10 14 h 2 c 0.552,0 1,0.448 1,1 0,0.552 -0.448,1 -1,1 H 4 C 3.448,16 3,15.552 3,15 3,14.448 3.448,14 4,14 H 6 V 10 C 6,7.24 8.24,5 11,5 Z M 8,8 v 6 h 2 V 8 Z m 4,0 v 6 h 2 V 8 Z m -3,9 h 4 c 0,1.104 -0.896,2 -2,2 -1.1,0 -1.993,-0.888328 -2,-1.986328 z"
       style="fill:#C3C7D1" />
    <rect
       y="0"
       x="0"
       height="22"
       width="22"
       id="rect822-0"
       style="fill:#ffffff;fill-opacity:0;stroke-width:1.23083723" />
  </g>
  <g
     style="clip-rule:evenodd;fill-rule:evenodd;stroke-linejoin:round;stroke-miterlimit:1.41420996"
     id="kalarm-partdisabled"
     transform="translate(-22)">
    <path
       inkscape:connector-curvature="0"
       id="path2-1-6"
       d="M 11,2 C 9.896,2 9,2.896 9,4 V 4.3417969 C 6.68,5.1627969 5.013,7.37175 5,9.96875 V 10 13 H 4 c -1.104,0 -2,0.896 -2,2 0,1.104 0.896,2 2,2 h 4 c 0,1.656 1.344,3 3,3 1.656,0 3,-1.344 3,-3 h 4 c 1.104,0 2,-0.896 2,-2 0,-1.104 -0.896,-2 -2,-2 H 17 V 10 C 17,7.39 15.329,5.1657969 13,4.3417969 V 4 C 13,2.896 12.104,2 11,2 Z m 0,1 c 0.552,0 1,0.448 1,1 V 4.082031 C 11.675,4.0270312 11.341,4 11,4 10.659,4 10.325,4.0270313 10,4.0820312 V 4 c 0,-0.552 0.448,-1 1,-1 z m 0,2 c 2.749,0 4.982,2.22375 5,4.96875 V 10 14 h 2 c 0.552,0 1,0.448 1,1 0,0.552 -0.448,1 -1,1 H 4 C 3.448,16 3,15.552 3,15 3,14.448 3.448,14 4,14 H 6 V 10 C 6,7.24 8.24,5 11,5 Z M 8,8 v 6 z m 0,0 v 6 h 6 V 8 Z m 1,9 h 4 c 0,1.104 -0.896,2 -2,2 -1.1,0 -1.993,-0.888328 -2,-1.986328 z"
       style="fill:#C3C7D1"
       sodipodi:nodetypes="ssccccssscscssscscsssscscssscccsssssscssccccccccczscc" />
    <rect
       y="0"
       x="0"
       height="22"
       width="22"
       id="rect822-0-6"
       style="fill:#ffffff;fill-opacity:0;stroke-width:1.23083723" />
  </g>
</svg>
