<?xml version="1.0" encoding="UTF-8" standalone="no"?>
<!-- Created with Inkscape (http://www.inkscape.org/) -->

<svg
   xmlns:dc="http://purl.org/dc/elements/1.1/"
   xmlns:cc="http://creativecommons.org/ns#"
   xmlns:rdf="http://www.w3.org/1999/02/22-rdf-syntax-ns#"
   xmlns:svg="http://www.w3.org/2000/svg"
   xmlns="http://www.w3.org/2000/svg"
   xmlns:sodipodi="http://sodipodi.sourceforge.net/DTD/sodipodi-0.dtd"
   xmlns:inkscape="http://www.inkscape.org/namespaces/inkscape"
   id="svg4153"
   version="1.1"
   inkscape:version="0.92.3 (2405546, 2018-03-11)"
   width="32"
   height="32"
   sodipodi:docname="kleopatra.svgz"
   viewBox="0 0 32 32">
  <metadata
     id="metadata4159">
    <rdf:RDF>
      <cc:Work
         rdf:about="">
        <dc:format>image/svg+xml</dc:format>
        <dc:type
           rdf:resource="http://purl.org/dc/dcmitype/StillImage" />
        <dc:title />
      </cc:Work>
    </rdf:RDF>
  </metadata>
  <defs
     id="defs4157">
    <style
       type="text/css"
       id="current-color-scheme">
      .ColorScheme-Text {
        color:#31363b;
      }
      .ColorScheme-Background {
        color:#eff0f1;
      }
      .ColorScheme-Highlight {
        color:#3daee9;
      }
      .ColorScheme-ViewText {
        color:#31363b;
      }
      .ColorScheme-ViewBackground {
        color:#fcfcfc;
      }
      .ColorScheme-ViewHover {
        color:#93cee9;
      }
      .ColorScheme-ViewFocus{
        color:#3daee9;
      }
      .ColorScheme-ButtonText {
        color:#31363b;
      }
      .ColorScheme-ButtonBackground {
        color:#eff0f1;
      }
      .ColorScheme-ButtonHover {
        color:#93cee9;
      }
      .ColorScheme-ButtonFocus{
        color:#3daee9;
      }
      </style>
  </defs>
  <sodipodi:namedview
     pagecolor="#ffffff"
     bordercolor="#666666"
     borderopacity="1"
     objecttolerance="10"
     gridtolerance="10000"
     guidetolerance="10"
     inkscape:pageopacity="0"
     inkscape:pageshadow="2"
     inkscape:window-width="1920"
     inkscape:window-height="966"
     id="namedview4155"
     inkscape:document-units="px"
     showgrid="true"
     inkscape:showpageshadow="false"
     borderlayer="true"
     inkscape:zoom="1"
     inkscape:cx="-30.142921"
     inkscape:cy="-54.357973"
     inkscape:window-x="0"
     inkscape:window-y="30"
     inkscape:window-maximized="1"
     inkscape:current-layer="svg4153"
     showguides="true"
     inkscape:guide-bbox="true" />
  <inkscape:clipboard
     style="opacity:0.01000001;fill:#00000f;fill-opacity:0;stroke-width:1;stroke-linecap:butt;stroke-linejoin:miter;stroke-miterlimit:4;stroke-dasharray:none;stroke-dashoffset:0;stroke-opacity:1;stroke:none"
     min="0,0"
     max="22,22" />
  <g
     id="22-22-kleopatra"
     transform="translate(-26,10)">
    <path
       id="rect825"
       d="M 2,2 V 3 5 H 3 V 3 H 5 V 2 H 3 Z m 15,0 v 1 h 2 v 2 h 1 V 3 2 H 19 Z M 4,4 V 8 H 5 V 4 Z M 6,4 V 8 H 7 V 4 Z M 8,4 V 8 H 9 V 4 Z m 2,0 v 4 h 1 V 4 Z m 2,0 v 4 h 1 V 4 Z m 3,0 v 4 h 1 V 4 Z m 2,0 v 4 h 1 V 4 Z M 2,9 v 1 H 20 V 9 Z m 2,2 v 7 h 1 v -7 z m 2,0 v 4 h 1 v -4 z m 2,0 v 5 h 1 v -5 z m 2,0 v 7 h 1 v -7 z m 2,0 v 4 h 1 v -4 z m 3,0 v 3 h 1 v -3 z m 2,0 v 7 h 1 v -7 z m -2,4 v 3 h 1 v -3 z m -9,1 v 2 h 1 v -2 z m 6,0 v 2 h 1 V 16 Z M 2,17 v 2 1 H 3 5 V 19 H 3 v -2 z m 6,0 v 1 h 1 v -1 z m 11,0 v 2 h -2 v 1 h 2 1 v -1 -2 z"
       style="opacity:1;fill:#C3C7D1;fill-opacity:1"
       inkscape:connector-curvature="0" />
    <rect
       y="0"
       x="0"
       height="22"
       width="22"
       id="rect893"
       style="opacity:1;fill:#ff00ff;fill-opacity:0" />
  </g>
  <g
     id="kleopatra">
    <path
       id="rect826"
       d="M 3,3 V 4 7 H 4 V 4 H 7 V 3 H 4 Z m 22,0 v 1 h 3 v 3 h 1 V 4 3 H 28 Z M 5,6 v 5 H 6 V 6 Z m 2,0 v 5 H 8 V 6 Z m 2,0 v 5 h 1 V 6 Z m 2,0 v 5 h 1 V 6 Z m 2,0 v 5 h 1 V 6 Z m 2,0 v 5 h 1 V 6 Z m 2,0 v 5 h 1 V 6 Z m 3,0 v 5 h 1 V 6 Z m 2,0 v 5 h 1 V 6 Z m 2,0 v 5 h 1 V 6 Z m 2,0 v 5 h 1 V 6 Z M 5,12 a 2,2 0 0 0 -2,2 2,2 0 0 0 2,2 h 22 a 2,2 0 0 0 2,-2 2,2 0 0 0 -2,-2 z m 0,1 h 22 a 1,1 0 0 1 1,1 1,1 0 0 1 -1,1 H 5 A 1,1 0 0 1 4,14 1,1 0 0 1 5,13 Z m 0,4 v 9 h 1 v -9 z m 2,0 v 5 h 1 v -5 z m 2,0 v 7 h 1 v -7 z m 2,0 v 6 h 1 v -6 z m 2,0 v 9 h 1 v -9 z m 2,0 v 7 h 1 v -7 z m 2,0 v 5 h 1 v -5 z m 3,0 v 6 h 1 v -6 z m 2,0 v 7 h 1 v -7 z m 2,0 v 4 h 1 v -4 z m 2,0 v 5 h 1 v -5 z m -2,5 v 4 h 1 V 22 Z M 7,23 v 3 h 1 v -3 z m 10,0 v 3 h 1 v -3 z m 9,0 v 3 h 1 v -3 z m -15,1 v 2 h 1 v -2 z m 9,0 v 2 h 1 V 24 Z M 3,25 v 3 1 H 4 7 V 28 H 4 v -3 z m 6,0 v 1 h 1 v -1 z m 6,0 v 1 h 1 v -1 z m 7,0 v 1 h 1 v -1 z m 6,0 v 3 h -3 v 1 h 3 1 v -1 -3 z"
       style="opacity:1;fill:#C3C7D1;fill-opacity:1;stroke-width:0.89442718"
       inkscape:connector-curvature="0" />
    <rect
       y="0"
       x="0"
       height="32"
       width="32"
       id="rect935"
       style="opacity:1;fill:#00ffff;fill-opacity:0" />
  </g>
</svg>
