<?xml version="1.0" encoding="UTF-8" standalone="no"?>
<!-- Created with Inkscape (http://www.inkscape.org/) -->

<svg
   xmlns:dc="http://purl.org/dc/elements/1.1/"
   xmlns:cc="http://creativecommons.org/ns#"
   xmlns:rdf="http://www.w3.org/1999/02/22-rdf-syntax-ns#"
   xmlns:svg="http://www.w3.org/2000/svg"
   xmlns="http://www.w3.org/2000/svg"
   xmlns:sodipodi="http://sodipodi.sourceforge.net/DTD/sodipodi-0.dtd"
   xmlns:inkscape="http://www.inkscape.org/namespaces/inkscape"
   id="svg4153"
   version="1.1"
   inkscape:version="0.92.2 (5c3e80d, 2017-08-06)"
   width="32.000004"
   height="32"
   sodipodi:docname="klipper.svgz"
   viewBox="0 0 32.000004 32">
  <metadata
     id="metadata4159">
    <rdf:RDF>
      <cc:Work
         rdf:about="">
        <dc:format>image/svg+xml</dc:format>
        <dc:type
           rdf:resource="http://purl.org/dc/dcmitype/StillImage" />
        <dc:title></dc:title>
      </cc:Work>
    </rdf:RDF>
  </metadata>
  <defs
     id="defs4157">
    <style
       type="text/css"
       id="current-color-scheme">
      .ColorScheme-Text {
        color:#31363b;
      }
      .ColorScheme-Background {
        color:#eff0f1;
      }
      .ColorScheme-Highlight {
        color:#3daee9;
      }
      .ColorScheme-ViewText {
        color:#31363b;
      }
      .ColorScheme-ViewBackground {
        color:#fcfcfc;
      }
      .ColorScheme-ViewHover {
        color:#93cee9;
      }
      .ColorScheme-ViewFocus{
        color:#3daee9;
      }
      .ColorScheme-ButtonText {
        color:#31363b;
      }
      .ColorScheme-ButtonBackground {
        color:#eff0f1;
      }
      .ColorScheme-ButtonHover {
        color:#93cee9;
      }
      .ColorScheme-ButtonFocus{
        color:#3daee9;
      }
      </style>
  </defs>
  <sodipodi:namedview
     pagecolor="#ffffff"
     bordercolor="#666666"
     borderopacity="1"
     objecttolerance="10"
     gridtolerance="10000"
     guidetolerance="10"
     inkscape:pageopacity="0"
     inkscape:pageshadow="2"
     inkscape:window-width="1920"
     inkscape:window-height="1017"
     id="namedview4155"
     inkscape:document-units="px"
     showgrid="true"
     inkscape:showpageshadow="false"
     borderlayer="true"
     inkscape:zoom="1.0137039"
     inkscape:cx="-181.38269"
     inkscape:cy="6.6851303"
     inkscape:window-x="-8"
     inkscape:window-y="-8"
     inkscape:window-maximized="1"
     inkscape:current-layer="svg4153"
     fit-margin-top="0"
     fit-margin-left="0"
     fit-margin-right="0"
     fit-margin-bottom="0">
    <inkscape:grid
       type="xygrid"
       id="grid818" />
  </sodipodi:namedview>
  <inkscape:clipboard
     style="opacity:0.01000001;fill:#00000f;fill-opacity:0;stroke-width:1;stroke-linecap:butt;stroke-linejoin:miter;stroke-miterlimit:4;stroke-dasharray:none;stroke-dashoffset:0;stroke-opacity:1;stroke:none"
     min="0,0"
     max="22,22" />
  <g
     style="clip-rule:evenodd;fill-rule:evenodd;stroke-linejoin:round;stroke-miterlimit:1.41420996"
     id="klipper"
     transform="translate(1.9073486e-6)">
    <path
       inkscape:connector-curvature="0"
       id="path2"
       style="fill:#C3C7D1"
       d="M 12,6 V 5 c 0,-1.104 0.896,-2 2,-2 h 4 c 1.104,0 2,0.896 2,2 v 1 h 4 c 1.104,0 2,0.896 2,2 v 19 c 0,1.104 -0.896,2 -2,2 H 8 C 6.896,29 6,28.104 6,27 V 8 C 6,6.896 6.896,6 8,6 Z m 8,2 h 1 c 1.104,0 2,0.896 2,2 v 15 c 0,1.104 -0.896,2 -2,2 H 11 C 9.896,27 9,26.104 9,25 V 10 C 9,8.896 9.896,8 11,8 h 1 c 0,0 0,-1 0,-1 H 8 C 7.448,7 7,7.448 7,8 v 19 c 0,0.552 0.448,1 1,1 h 16 c 0.552,0 1,-0.448 1,-1 V 8 C 25,7.448 24.552,7 24,7 H 20 Z M 12.268,9 H 11 c -0.552,0 -1,0.448 -1,1 v 15 c 0,0.552 0.448,1 1,1 h 10 c 0.552,0 1,-0.448 1,-1 V 10 C 22,9.448 21.552,9 21,9 H 19.732 C 19.386,9.598 18.74,10 18,10 H 14 C 13.26,10 12.614,9.598 12.268,9 Z M 18,23 h 3 v 1 h -3 z m -3,-2 h 6 v 1 h -6 z m -4,-4 h 7 v 1 h -7 z m 0,-2 h 10 v 1 H 11 Z m 0,-2 h 10 v 1 H 11 Z m 0,-2 h 10 v 1 H 11 Z m 3,-7 c -0.552,0 -1,0.448 -1,1 v 3 c 0,0.552 0.448,1 1,1 h 4 c 0.552,0 1,-0.448 1,-1 0,0 0,-3 0,-3 0,-0.552 -0.448,-1 -1,-1 z" />
    <rect
       y="0"
       x="0"
       height="32"
       width="32"
       id="rect817"
       style="fill:#ffffff;fill-opacity:0;stroke-width:1.04811275" />
  </g>
  <g
     style="clip-rule:evenodd;fill-rule:evenodd;stroke-linejoin:round;stroke-miterlimit:1.41420996"
     id="22-22-klipper"
     transform="translate(32.000004,5)">
    <path
       inkscape:connector-curvature="0"
       id="path2-9"
       style="fill:#C3C7D1"
       d="M 8,4 C 8,2.896 8.896,2 10,2 h 2 c 1.104,0 2,0.896 2,2 h 2 c 1.104,0 2,0.896 2,2 v 12 c 0,1.104 -0.896,2 -2,2 H 6 C 4.896,20 4,19.104 4,18 V 6 C 4,4.896 4.896,4 6,4 Z m 6,1 c 0,1.104 -0.896,2 -2,2 H 10 C 8.896,7 8,6.104 8,5 H 6 C 5.448,5 5,5.448 5,6 v 12 c 0,0.552 0.448,1 1,1 h 10 c 0.552,0 1,-0.448 1,-1 V 6 C 17,5.448 16.552,5 16,5 Z m -8,9 h 5 v 1 H 6 Z m 0,-3 h 7 v 1 H 6 Z M 6,8 H 16 V 9 H 6 Z M 12,3 H 10 C 9.448,3 9,3.448 9,4 v 1 c 0,0.552 0.448,1 1,1 h 2 c 0.552,0 1,-0.448 1,-1 V 4 C 13,3.448 12.552,3 12,3 Z"
       sodipodi:nodetypes="csscssssssssccsscssssssssccccccccccccccccsssssssss" />
    <rect
       y="0"
       x="0"
       height="22"
       width="22"
       id="rect817-1"
       style="fill:#ffffff;fill-opacity:0;stroke-width:0.72782332" />
  </g>
</svg>
