<?xml version="1.0" encoding="UTF-8" standalone="no"?>
<!-- Created with Inkscape (http://www.inkscape.org/) -->

<svg
   xmlns:dc="http://purl.org/dc/elements/1.1/"
   xmlns:cc="http://creativecommons.org/ns#"
   xmlns:rdf="http://www.w3.org/1999/02/22-rdf-syntax-ns#"
   xmlns:svg="http://www.w3.org/2000/svg"
   xmlns="http://www.w3.org/2000/svg"
   xmlns:sodipodi="http://sodipodi.sourceforge.net/DTD/sodipodi-0.dtd"
   xmlns:inkscape="http://www.inkscape.org/namespaces/inkscape"
   id="svg4153"
   version="1.1"
   inkscape:version="0.92.3 (2405546, 2018-03-11)"
   width="32"
   height="32"
   sodipodi:docname="korgac.svg"
   viewBox="0 0 32 32">
  <metadata
     id="metadata4159">
    <rdf:RDF>
      <cc:Work
         rdf:about="">
        <dc:format>image/svg+xml</dc:format>
        <dc:type
           rdf:resource="http://purl.org/dc/dcmitype/StillImage" />
        <dc:title></dc:title>
      </cc:Work>
    </rdf:RDF>
  </metadata>
  <defs
     id="defs4157">
    <style
       type="text/css"
       id="current-color-scheme">
      .ColorScheme-Text {
        color:#31363b;
      }
      .ColorScheme-Background {
        color:#eff0f1;
      }
      .ColorScheme-Highlight {
        color:#3daee9;
      }
      .ColorScheme-ViewText {
        color:#31363b;
      }
      .ColorScheme-ViewBackground {
        color:#fcfcfc;
      }
      .ColorScheme-ViewHover {
        color:#93cee9;
      }
      .ColorScheme-ViewFocus{
        color:#3daee9;
      }
      .ColorScheme-ButtonText {
        color:#31363b;
      }
      .ColorScheme-ButtonBackground {
        color:#eff0f1;
      }
      .ColorScheme-ButtonHover {
        color:#93cee9;
      }
      .ColorScheme-ButtonFocus{
        color:#3daee9;
      }
      </style>
  </defs>
  <sodipodi:namedview
     pagecolor="#ffffff"
     bordercolor="#666666"
     borderopacity="1"
     objecttolerance="10"
     gridtolerance="10000"
     guidetolerance="10"
     inkscape:pageopacity="0"
     inkscape:pageshadow="2"
     inkscape:window-width="1920"
     inkscape:window-height="1009"
     id="namedview4155"
     inkscape:document-units="px"
     showgrid="true"
     inkscape:showpageshadow="false"
     borderlayer="true"
     inkscape:zoom="22.627417"
     inkscape:cx="11.892987"
     inkscape:cy="14.282558"
     inkscape:window-x="0"
     inkscape:window-y="0"
     inkscape:window-maximized="1"
     inkscape:current-layer="svg4153"
     fit-margin-top="0"
     fit-margin-left="0"
     fit-margin-right="0"
     fit-margin-bottom="0"
     inkscape:pagecheckerboard="false">
    <inkscape:grid
       type="xygrid"
       id="grid818" />
  </sodipodi:namedview>
  <inkscape:clipboard
     style="opacity:0.01000001;fill:#00000f;fill-opacity:0;stroke-width:1;stroke-linecap:butt;stroke-linejoin:miter;stroke-miterlimit:4;stroke-dasharray:none;stroke-dashoffset:0;stroke-opacity:1;stroke:none"
     min="0,0"
     max="22,22" />
  <g
     style="clip-rule:evenodd;fill-rule:evenodd;stroke-linejoin:round;stroke-miterlimit:1.41420996"
     id="22-22-korgac"
     transform="translate(-22,10)">
    <path
       inkscape:connector-curvature="0"
       id="path2"
       style="fill:#C3C7D1"
       d="M 19,8 V 6 C 19,5.448 18.552,5 18,5 H 16 V 4 h 2 c 1.104,0 2,0.896 2,2 v 12 c 0,1.104 -0.896,2 -2,2 H 4 C 2.896,20 2,19.104 2,18 V 6 C 2,4.896 2.896,4 4,4 H 6 V 5 H 4 C 3.448,5 3,5.448 3,6 v 2 z m 0,1 H 3 v 9 c 0,0.552 0.448,1 1,1 h 14 c 0.552,0 1,-0.448 1,-1 z m -7,8 h -1 v -4.5 l -1,0.056 v -0.88 L 11.886,11 H 12 Z M 8,2 V 7 H 7 V 2 Z m 7,0 V 7 H 14 V 2 Z M 13,5 H 9 V 4 h 4 z" />
    <rect
       y="0"
       x="0"
       height="22"
       width="22"
       id="rect817"
       style="fill:#ffffff;fill-opacity:0;stroke-width:1.07718778" />
  </g>
  <g
     id="korgac">
    <path
       inkscape:connector-curvature="0"
       id="path844"
       d="M 10,3 V 7.0507812 C 8.8361219,7.2883568 8.0001287,8.3121219 8,9.5 8,10.880712 9.1192881,12 10.5,12 11.880712,12 13,10.880712 13,9.5 12.998017,8.3135898 12.162442,7.2919682 11,7.0546875 V 3 Z M 21,3 V 7.0507812 C 19.836122,7.2883568 19.000129,8.3121219 19,9.5 19,10.880712 20.119288,12 21.5,12 22.880712,12 24,10.880712 24,9.5 23.998017,8.3135898 23.162442,7.2919682 22,7.0546875 V 3 Z M 5,5 C 3.892,5 3,5.892 3,7 v 6 1 13 c 0,1.108 0.892,2 2,2 h 22 c 1.108,0 2,-0.892 2,-2 V 14 13 7 C 29,5.892 28.108,5 27,5 h -4 v 1 h 4 c 0.277,0 0.526281,0.1122188 0.707031,0.2929688 C 27.887781,6.4737185 28,6.723 28,7 v 6 H 4 V 7 C 4,6.723 4.1122188,6.4737184 4.2929688,6.2929688 4.4737187,6.1122188 4.723,6 5,6 H 9 V 5 Z m 7,0 v 1 h 8 V 5 Z M 10.5,8 C 11.328427,8 12,8.6715729 12,9.5 12,10.328427 11.328427,11 10.5,11 9.6715729,11 9,10.328427 9,9.5 9,8.6715729 9.6715729,8 10.5,8 Z m 11,0 C 22.328427,8 23,8.6715729 23,9.5 23,10.328427 22.328427,11 21.5,11 20.671573,11 20,10.328427 20,9.5 20,8.6715729 20.671573,8 21.5,8 Z M 4,14 h 24 v 13 c 0,0.277 -0.112219,0.526281 -0.292969,0.707031 C 27.526281,27.887781 27.277,28 27,28 H 5 C 4.723,28 4.4737187,27.887781 4.2929688,27.707031 4.1122188,27.526281 4,27.277 4,27 Z M 16.886719,17 15,17.675781 v 0.88086 L 16,18.5 V 25 h 1 v -8 z"
       style="fill:#C3C7D1;fill-opacity:1;stroke-linecap:butt;stroke-linejoin:miter;paint-order:markers stroke fill"
       sodipodi:nodetypes="cccscccccccsccccssccssssccssccsssccscsccscccccssssssssssccssssssccccccccc" />
    <rect
       y="0"
       x="0"
       height="32"
       width="32"
       id="rect897"
       style="fill:#ffff00;fill-opacity:0;stroke-linecap:butt;stroke-linejoin:miter;paint-order:markers stroke fill" />
  </g>
</svg>
