<?xml version="1.0" encoding="UTF-8" standalone="no"?>
<svg
   xmlns:dc="http://purl.org/dc/elements/1.1/"
   xmlns:cc="http://creativecommons.org/ns#"
   xmlns:rdf="http://www.w3.org/1999/02/22-rdf-syntax-ns#"
   xmlns:svg="http://www.w3.org/2000/svg"
   xmlns="http://www.w3.org/2000/svg"
   xmlns:sodipodi="http://sodipodi.sourceforge.net/DTD/sodipodi-0.dtd"
   xmlns:inkscape="http://www.inkscape.org/namespaces/inkscape"
   version="1.1"
   id="svg2"
   viewBox="0 0 54 32"
   inkscape:version="0.92.3 (2405546, 2018-03-11)"
   sodipodi:docname="nepomuk.svgz">
  <sodipodi:namedview
     pagecolor="#ffffff"
     bordercolor="#666666"
     borderopacity="1"
     objecttolerance="10"
     gridtolerance="10"
     guidetolerance="10"
     inkscape:pageopacity="0"
     inkscape:pageshadow="2"
     inkscape:window-width="1920"
     inkscape:window-height="968"
     id="namedview12"
     showgrid="false"
     inkscape:zoom="1"
     inkscape:cx="15.764049"
     inkscape:cy="19.978042"
     inkscape:window-x="0"
     inkscape:window-y="30"
     inkscape:window-maximized="1"
     inkscape:current-layer="svg2" />
  <metadata
     id="metadata18">
    <rdf:RDF>
      <cc:Work
         rdf:about="">
        <dc:format>image/svg+xml</dc:format>
        <dc:type
           rdf:resource="http://purl.org/dc/dcmitype/StillImage" />
        <dc:title />
      </cc:Work>
    </rdf:RDF>
  </metadata>
  <defs
     id="defs3051">
    <style
       type="text/css"
       id="current-color-scheme">
      .ColorScheme-Text {
        color:#31363b;
      }
      .ColorScheme-Background {
        color:#eff0f1;
      }
      .ColorScheme-Highlight {
        color:#3daee9;
      }
      .ColorScheme-ViewText {
        color:#31363b;
      }
      .ColorScheme-ViewBackground {
        color:#fcfcfc;
      }
      .ColorScheme-ViewHover {
        color:#93cee9;
      }
      .ColorScheme-ViewFocus{
        color:#3daee9;
      }
      .ColorScheme-ButtonText {
        color:#31363b;
      }
      .ColorScheme-ButtonBackground {
        color:#eff0f1;
      }
      .ColorScheme-ButtonHover {
        color:#93cee9;
      }
      .ColorScheme-ButtonFocus{
        color:#3daee9;
      }
      </style>
  </defs>
  <g
     style="clip-rule:evenodd;fill-rule:evenodd;stroke-linejoin:round;stroke-miterlimit:1.41420996"
     id="nepomuk"
     transform="translate(22)">
    <path
       inkscape:connector-curvature="0"
       id="path2"
       style="fill:#C3C7D1"
       d="m 16.793125,17.500125 c -2.944,2.581 -7.433,2.467 -10.241,-0.342 -2.927,-2.927 -2.927,-7.679 0,-10.606 2.927,-2.927 7.679,-2.927 10.606,0 2.809,2.808 2.923,7.297 0.342,10.241 l 1.471,1.471 c 0.767,-0.453 1.772,-0.35 2.43,0.309 l 5.657,5.657 c 0.78,0.78 0.78,2.047 0,2.828 -0.781,0.78 -2.048,0.78 -2.828,0 l -5.657,-5.657 c -0.659,-0.658 -0.762,-1.663 -0.309,-2.43 z m 3.901,1.78 c -0.39,-0.39 -1.024,-0.39 -1.414,0 -0.39,0.39 -0.39,1.024 0,1.414 l 5.657,5.657 c 0.39,0.39 1.024,0.39 1.414,0 0.39,-0.39 0.39,-1.024 0,-1.414 z m -13.435,-12.021 c 2.537,-2.537 6.656,-2.537 9.192,0 2.537,2.537 2.537,6.656 0,9.192 -2.536,2.537 -6.655,2.537 -9.192,0 -2.537,-2.536 -2.537,-6.655 0,-9.192 z"
       sodipodi:nodetypes="ccsccccscscccsssssssscccs" />
    <rect
       y="0"
       x="0"
       height="32"
       width="32"
       id="rect4506"
       style="fill:#ffffff;fill-opacity:0;stroke-width:0.85809672" />
  </g>
  <g
     style="clip-rule:evenodd;fill-rule:evenodd;stroke-linejoin:round;stroke-miterlimit:1.41420996"
     id="22-22-nepomuk"
     transform="translate(0,10)">
    <path
       inkscape:connector-curvature="0"
       id="path2-2"
       style="fill:#C3C7D1"
       d="m 12.832,13.575 c -1.04,0.866 -2.377,1.387 -3.835,1.387 -3.311,0 -6,-2.689 -6,-6 0,-3.312 2.689,-6 6,-6 3.312,0 6,2.688 6,6 0,1.494 -0.547,2.861 -1.452,3.912 l 5.458,5.457 -0.708,0.707 z M 8.997,3.962 c 2.76,0 5,2.24 5,5 0,2.76 -2.24,5 -5,5 -2.759,0 -5,-2.24 -5,-5 0,-2.76 2.241,-5 5,-5 z"
       sodipodi:nodetypes="cssssccccsssss" />
    <rect
       y="0"
       x="0"
       height="22"
       width="22"
       id="rect817"
       style="fill:#ffffff;fill-opacity:0;stroke-width:0.97047877" />
  </g>
</svg>
