<?xml version="1.0" encoding="UTF-8" standalone="no"?>
<!-- Created with Inkscape (http://www.inkscape.org/) -->

<svg
   xmlns:dc="http://purl.org/dc/elements/1.1/"
   xmlns:cc="http://creativecommons.org/ns#"
   xmlns:rdf="http://www.w3.org/1999/02/22-rdf-syntax-ns#"
   xmlns:svg="http://www.w3.org/2000/svg"
   xmlns="http://www.w3.org/2000/svg"
   xmlns:sodipodi="http://sodipodi.sourceforge.net/DTD/sodipodi-0.dtd"
   xmlns:inkscape="http://www.inkscape.org/namespaces/inkscape"
   width="32"
   height="32"
   id="svg3869"
   version="1.1"
   inkscape:version="0.92.2 (5c3e80d, 2017-08-06)"
   sodipodi:docname="phone.svgz"
   viewBox="0 0 32 32">
  <defs
     id="defs3871">
    <style
       type="text/css"
       id="current-color-scheme">
      .ColorScheme-Text {
        color:#31363b;
      }
      .ColorScheme-Background {
        color:#eff0f1;
      }
      .ColorScheme-Highlight {
        color:#3daee9;
      }
      .ColorScheme-ViewText {
        color:#31363b;
      }
      .ColorScheme-ViewBackground {
        color:#fcfcfc;
      }
      .ColorScheme-ViewHover {
        color:#93cee9;
      }
      .ColorScheme-ViewFocus{
        color:#3daee9;
      }
      .ColorScheme-ButtonText {
        color:#31363b;
      }
      .ColorScheme-ButtonBackground {
        color:#eff0f1;
      }
      .ColorScheme-ButtonHover {
        color:#93cee9;
      }
      .ColorScheme-ButtonFocus{
        color:#3daee9;
      }
      </style>
  </defs>
  <sodipodi:namedview
     id="base"
     pagecolor="#ffffff"
     bordercolor="#666666"
     borderopacity="1.0"
     inkscape:pageopacity="0.0"
     inkscape:pageshadow="2"
     inkscape:zoom="8.275359"
     inkscape:cx="-8.7766394"
     inkscape:cy="-2.4433464"
     inkscape:document-units="px"
     inkscape:current-layer="layer1"
     showgrid="true"
     fit-margin-top="0"
     fit-margin-left="0"
     fit-margin-right="0"
     fit-margin-bottom="0"
     inkscape:window-width="1920"
     inkscape:window-height="1017"
     inkscape:window-x="-8"
     inkscape:window-y="-8"
     inkscape:window-maximized="1"
     inkscape:showpageshadow="false">
    <inkscape:grid
       type="xygrid"
       id="grid4132"
       originx="5"
       originy="4.9999826" />
  </sodipodi:namedview>
  <metadata
     id="metadata3874">
    <rdf:RDF>
      <cc:Work
         rdf:about="">
        <dc:format>image/svg+xml</dc:format>
        <dc:type
           rdf:resource="http://purl.org/dc/dcmitype/StillImage" />
        <dc:title />
      </cc:Work>
    </rdf:RDF>
  </metadata>
  <g
     inkscape:label="Capa 1"
     inkscape:groupmode="layer"
     id="layer1"
     transform="translate(-321,-529.36218)">
    <g
       style="clip-rule:evenodd;fill-rule:evenodd;stroke-linejoin:round;stroke-miterlimit:1.41420996"
       id="phone"
       transform="translate(321,529.36218)">
      <path
         inkscape:connector-curvature="0"
         id="path2"
         style="fill:#C3C7D1"
         d="M 8,6 V 5 C 8,3.896 8.896,3 10,3 h 12 c 1.104,0 2,0.896 2,2 v 22 c 0,1.104 -0.896,2 -2,2 H 10 C 8.896,29 8,28.104 8,27 V 25 24 7 Z M 23,25 H 9 v 2 c 0,0.552 0.448,1 1,1 h 12 c 0.552,0 1,-0.448 1,-1 z m -5,2 h -4 v -1 h 4 z M 23,7 H 9 V 24 H 23 Z M 22,4 H 10 C 9.448,4 9,4.448 9,5 V 6 H 23 V 5 C 23,4.448 22.552,4 22,4 Z"
         sodipodi:nodetypes="cssssssssccccccsssscccccccccccsssccss" />
      <rect
         y="0"
         x="0"
         height="32"
         width="32"
         id="rect817"
         style="fill:#ffffff;fill-opacity:0;stroke-width:1.28437436" />
    </g>
    <g
       style="clip-rule:evenodd;fill-rule:evenodd;stroke-linejoin:round;stroke-miterlimit:1.41420996"
       id="22-22-phone"
       transform="translate(353,534.36218)">
      <path
         inkscape:connector-curvature="0"
         id="path2-9"
         style="fill:#C3C7D1"
         d="M 5,3 C 5,2.448 5.448,2 6,2 h 10 c 0.552,0 1,0.448 1,1 v 16 c 0,0.552 -0.448,1 -1,1 H 6 C 5.448,20 5,19.552 5,19 Z M 16,16 H 6 v 3 h 10 z m -3,1 v 1 H 9 V 17 Z M 16,5 H 6 V 15 H 16 Z M 6,3 V 4 H 16 V 3 Z" />
      <rect
         y="0"
         x="0"
         height="22"
         width="22"
         id="rect817-8"
         style="fill:#ffffff;fill-opacity:0;stroke-width:1.33304608" />
    </g>
    <g
       style="clip-rule:evenodd;fill-rule:evenodd;stroke-linejoin:round;stroke-miterlimit:1.41420996"
       id="16-16-phone"
       transform="translate(303,538.3622)">
      <path
         inkscape:connector-curvature="0"
         id="path2-4"
         style="fill:#C3C7D1"
         d="M 4,15 C 3.448,15 3,14.552 3,14 V 2 C 3,1.448 3.448,1 4,1 h 8 c 0.552,0 1,0.448 1,1 v 12 c 0,0.552 -0.448,1 -1,1 z m 6,-2 H 6 v 1 h 4 c 0,0 0,-1 0,-1 z M 12,2 H 4 v 10 h 8 V 7 Z" />
      <rect
         y="0"
         x="0"
         height="16"
         width="16"
         id="rect817-4"
         style="fill:#ffffff;fill-opacity:0;stroke-width:0.7392419" />
    </g>
    <g
       style="clip-rule:evenodd;fill-rule:evenodd;stroke-linejoin:round;stroke-miterlimit:1.41420996"
       id="22-22-phone-battery"
       transform="translate(353,566.36218)">
      <path
         inkscape:connector-curvature="0"
         id="path2-97"
         d="M 6,2 C 5.448,2 5,2.448 5,3 v 16 c 0,0.552 0.448,1 1,1 h 10 c 0.552,0 1,-0.448 1,-1 V 3 C 17,2.448 16.552,2 16,2 Z M 6,3 H 16 V 4 H 6 Z M 6,5 H 16 V 15 H 6 Z m 5,1 -2,5 h 2 v 3 L 13,9 H 11 Z M 6,16 h 10 v 3 H 6 Z m 3,1 v 1 h 4 v -1 z"
         style="fill:#C3C7D1" />
      <rect
         y="0"
         x="0"
         height="22"
         width="22"
         id="rect822"
         style="fill:#ffffff;fill-opacity:0;stroke-width:1.01527214" />
    </g>
    <g
       style="clip-rule:evenodd;fill-rule:evenodd;stroke-linejoin:round;stroke-miterlimit:1.41420996"
       id="phone-battery"
       transform="translate(321,561.36218)">
      <path
         inkscape:connector-curvature="0"
         id="path2-8"
         d="M 10,3 C 8.896,3 8,3.896 8,5 v 1 1 17 1 2 c 0,1.104 0.896,2 2,2 h 12 c 1.104,0 2,-0.896 2,-2 V 5 C 24,3.896 23.104,3 22,3 Z m 0,1 h 12 c 0.552,0 1,0.448 1,1 V 6 H 9 V 5 C 9,4.448 9.448,4 10,4 Z M 9,7 H 23 V 24 H 9 Z m 7,2 -3,7 h 3 v 5 l 3,-7 H 16 Z M 9,25 h 14 v 2 c 0,0.552 -0.448,1 -1,1 H 10 C 9.448,28 9,27.552 9,27 Z m 5,1 v 1 h 4 v -1 z"
         style="fill:#C3C7D1" />
      <rect
         y="0"
         x="0"
         height="32"
         width="32"
         id="rect823"
         style="fill:#ffffff;fill-opacity:0;stroke-width:1.03616464" />
    </g>
    <g
       style="clip-rule:evenodd;fill-rule:evenodd;stroke-linejoin:round;stroke-miterlimit:1.41420996"
       id="16-16-phone-battery"
       transform="translate(303,570.3622)">
      <g
         id="g826">
        <path
           inkscape:connector-curvature="0"
           d="M 4,15 C 3.448,15 3,14.552 3,14 V 2 C 3,1.448 3.448,1 4,1 h 8 c 0.552,0 1,0.448 1,1 v 12 c 0,0.552 -0.448,1 -1,1 z m 6,-2 H 6 v 1 h 4 c 0,0 0,-1 0,-1 z M 12,2 H 4 v 10 h 8 V 7 Z"
           style="fill:#C3C7D1"
           id="path2-96" />
        <path
           inkscape:connector-curvature="0"
           d="m 8,6 h 2 L 8,11 V 8 H 6 L 8,3 Z"
           style="fill:#C3C7D1"
           id="path4" />
      </g>
      <rect
         y="0"
         x="0"
         height="16"
         width="16"
         id="rect822-9"
         style="fill:#ffffff;fill-opacity:0;stroke-width:1.01676917" />
    </g>
  </g>
</svg>
