<?xml version="1.0" encoding="UTF-8" standalone="no"?>
<!-- Created with Inkscape (http://www.inkscape.org/) -->

<svg
   xmlns:dc="http://purl.org/dc/elements/1.1/"
   xmlns:cc="http://creativecommons.org/ns#"
   xmlns:rdf="http://www.w3.org/1999/02/22-rdf-syntax-ns#"
   xmlns:svg="http://www.w3.org/2000/svg"
   xmlns="http://www.w3.org/2000/svg"
   xmlns:sodipodi="http://sodipodi.sourceforge.net/DTD/sodipodi-0.dtd"
   xmlns:inkscape="http://www.inkscape.org/namespaces/inkscape"
   id="svg4153"
   version="1.1"
   inkscape:version="0.92.3 (2405546, 2018-03-11)"
   width="32.000004"
   height="32"
   sodipodi:docname="plasmavault_error.svgz"
   viewBox="0 0 32.000004 32">
  <metadata
     id="metadata4159">
    <rdf:RDF>
      <cc:Work
         rdf:about="">
        <dc:format>image/svg+xml</dc:format>
        <dc:type
           rdf:resource="http://purl.org/dc/dcmitype/StillImage" />
        <dc:title />
      </cc:Work>
    </rdf:RDF>
  </metadata>
  <defs
     id="defs4157">
    <style
       type="text/css"
       id="current-color-scheme">
      .ColorScheme-Text {
        color:#31363b;
      }
      .ColorScheme-Background {
        color:#eff0f1;
      }
      .ColorScheme-Highlight {
        color:#3daee9;
      }
      .ColorScheme-ViewText {
        color:#31363b;
      }
      .ColorScheme-ViewBackground {
        color:#fcfcfc;
      }
      .ColorScheme-ViewHover {
        color:#93cee9;
      }
      .ColorScheme-ViewFocus{
        color:#3daee9;
      }
      .ColorScheme-ButtonText {
        color:#31363b;
      }
      .ColorScheme-ButtonBackground {
        color:#eff0f1;
      }
      .ColorScheme-ButtonHover {
        color:#93cee9;
      }
      .ColorScheme-ButtonFocus{
        color:#3daee9;
      }
      </style>
  </defs>
  <sodipodi:namedview
     pagecolor="#ffffff"
     bordercolor="#666666"
     borderopacity="1"
     objecttolerance="10"
     gridtolerance="10000"
     guidetolerance="10"
     inkscape:pageopacity="0"
     inkscape:pageshadow="2"
     inkscape:window-width="1920"
     inkscape:window-height="1011"
     id="namedview4155"
     inkscape:document-units="px"
     showgrid="true"
     inkscape:showpageshadow="false"
     borderlayer="true"
     inkscape:zoom="8"
     inkscape:cx="47.982435"
     inkscape:cy="9.5364216"
     inkscape:window-x="0"
     inkscape:window-y="0"
     inkscape:window-maximized="1"
     inkscape:current-layer="svg4153"
     fit-margin-top="0"
     fit-margin-left="0"
     fit-margin-right="0"
     fit-margin-bottom="0" />
  <inkscape:clipboard
     style="opacity:0.01000001;fill:#00000f;fill-opacity:0;stroke-width:1;stroke-linecap:butt;stroke-linejoin:miter;stroke-miterlimit:4;stroke-dasharray:none;stroke-dashoffset:0;stroke-opacity:1;stroke:none"
     min="0,0"
     max="22,22" />
  <g
     style="clip-rule:evenodd;fill-rule:evenodd;stroke-linejoin:round;stroke-miterlimit:1.41420996"
     id="22-22-plasmavault_error"
     transform="translate(32.000004,10)">
    <path
       inkscape:connector-curvature="0"
       id="path2-9"
       style="fill:#ff4d62;fill-opacity:1"
       d="m 14,9 h 1 V 6 C 15,4.344 13.656,3 12,3 H 10 C 8.344,3 7,4.344 7,6 V 9 H 8 V 6 C 8,4.896 8.896,4 10,4 h 2 c 1.104,0 2,0.896 2,2 z m 3,3 v -1 c 0,-0.552 -0.448,-1 -1,-1 H 6 c -0.552,0 -1,0.448 -1,1 v 7 c 0,0.552 0.448,1 1,1 h 10 c 0.552,0 1,-0.448 1,-1 v -1 h -4 v -1 h 4 v -1 h -4 v -1 h 4 V 13 H 13 V 12 Z M 13,9 V 6 C 13,5.448 12.552,5 12,5 H 10 C 9.448,5 9,5.448 9,6 v 3 z m 3,0 c 1.104,0 2,0.896 2,2 v 7 c 0,1.104 -0.896,2 -2,2 H 6 C 4.896,20 4,19.104 4,18 V 11 C 4,9.896 4.896,9 6,9 V 6 C 6,3.792 7.792,2 10,2 h 2 c 2.208,0 4,1.792 4,4 z" />
    <rect
       ry="0.86131382"
       y="0"
       x="0"
       height="22"
       width="22"
       id="rect817-1"
       style="fill:#ffff00;fill-opacity:0;stroke-width:0.91839218;stroke-miterlimit:1.41420996;stroke-dasharray:none" />
  </g>
  <g
     id="plasmavault_error">
    <path
       inkscape:connector-curvature="0"
       id="rect828-3-3"
       d="M 5,3 C 3.892,3 3,3.892 3,5 v 8 1 13 c 0,1.108 0.892,2 2,2 h 22 c 1.108,0 2,-0.892 2,-2 V 9 C 29,7.892 28.108,7 27,7 H 25 19 C 17,7 16,3 13,3 Z m 0,1 h 8 c 1.561278,0 2.517469,2.430576 4.287109,3.5 C 15.517469,8.569424 14.561278,11 13,11 H 7 5 C 4.63307,11 4.295001,11.104291 4,11.275391 V 5 C 4,4.446 4.446,4 5,4 Z m 14,4 h 6 2 c 0.554,0 1,0.446 1,1 v 18 c 0,0.554 -0.446,1 -1,1 H 5 C 4.446,28 4,27.554 4,27 V 14 13 c 0,-0.554 1,-1 1,-1 h 2 6 c 3,0 4,-4 6,-4 z m -3,7 a 3,3 0 0 0 -3,3 3,3 0 0 0 1,2.230469 V 23 c 0,1.108 0.892,2 2,2 1.108,0 2,-0.892 2,-2 V 20.230469 A 3,3 0 0 0 19,18 3,3 0 0 0 16,15 Z m 0,1 a 2,2 0 0 1 2,2 2,2 0 0 1 -1,1.728516 V 20 20.824219 23 c 0,0.554 -0.446,1 -1,1 -0.554,0 -1,-0.446 -1,-1 V 20.826172 20 19.730469 A 2,2 0 0 1 14,18 2,2 0 0 1 16,16 Z"
       style="opacity:1;fill:#ff4d62;fill-opacity:1;stroke-width:1.02353263" />
    <rect
       y="0"
       x="1.9073486e-06"
       height="32"
       width="32"
       id="rect869"
       style="opacity:1;fill:#00ffff;fill-opacity:0" />
  </g>
</svg>
