<?xml version="1.0" encoding="UTF-8" standalone="no"?>
<svg
   xmlns:dc="http://purl.org/dc/elements/1.1/"
   xmlns:cc="http://creativecommons.org/ns#"
   xmlns:rdf="http://www.w3.org/1999/02/22-rdf-syntax-ns#"
   xmlns:svg="http://www.w3.org/2000/svg"
   xmlns="http://www.w3.org/2000/svg"
   xmlns:sodipodi="http://sodipodi.sourceforge.net/DTD/sodipodi-0.dtd"
   xmlns:inkscape="http://www.inkscape.org/namespaces/inkscape"
   viewBox="0 0 32 32"
   id="svg"
   version="1.1"
   inkscape:version="0.92.3 (2405546, 2018-03-11)"
   width="32"
   height="32"
   sodipodi:docname="printer.svg">
  <defs
     id="defs81">
    <style
       id="current-color-scheme"
       type="text/css">
      .ColorScheme-Text {
        color:#7B7C7E;
      }
      .ColorScheme-Background{
        color:#EFF0F1;
      }
      .ColorScheme-Highlight{
        color:#3DAEE6;
      }
      .ColorScheme-ViewText {
        color:#7B7C7E;
      }
      .ColorScheme-ViewBackground{
        color:#FCFCFC;
      }
      .ColorScheme-ViewHover {
        color:#3DAEE6;
      }
      .ColorScheme-ViewFocus{
        color:#1E92FF;
      }
      .ColorScheme-ButtonText {
        color:#7B7C7E;
      }
      .ColorScheme-ButtonBackground{
        color:#EFF0F1;
      }
      .ColorScheme-ButtonHover {
        color:#3DAEE6;
      }
      .ColorScheme-ButtonFocus{
        color:#1E92FF;
      }
</style>
    <style
       type="text/css"
       id="style3">
      .ColorScheme-Text {
        color:#31363b;
      }
      .ColorScheme-Background {
        color:#eff0f1;
      }
      .ColorScheme-Highlight {
        color:#3daee9;
      }
      .ColorScheme-ViewText {
        color:#31363b;
      }
      .ColorScheme-ViewBackground {
        color:#fcfcfc;
      }
      .ColorScheme-ViewHover {
        color:#93cee9;
      }
      .ColorScheme-ViewFocus{
        color:#3daee9;
      }
      .ColorScheme-ButtonText {
        color:#31363b;
      }
      .ColorScheme-ButtonBackground {
        color:#eff0f1;
      }
      .ColorScheme-ButtonHover {
        color:#93cee9;
      }
      .ColorScheme-ButtonFocus{
        color:#3daee9;
      }
      </style>
  </defs>
  <metadata
     id="metadata34">
    <rdf:RDF>
      <cc:Work
         rdf:about="">
        <dc:format>image/svg+xml</dc:format>
        <dc:type
           rdf:resource="http://purl.org/dc/dcmitype/StillImage" />
        <dc:title></dc:title>
      </cc:Work>
    </rdf:RDF>
  </metadata>
  <sodipodi:namedview
     pagecolor="#ffffff"
     bordercolor="#666666"
     borderopacity="1"
     objecttolerance="10"
     gridtolerance="10"
     guidetolerance="10"
     inkscape:pageopacity="0"
     inkscape:pageshadow="2"
     inkscape:window-width="1920"
     inkscape:window-height="1009"
     id="namedview32"
     showgrid="true"
     inkscape:zoom="1"
     inkscape:cx="25.214034"
     inkscape:cy="7.828084"
     inkscape:window-x="0"
     inkscape:window-y="0"
     inkscape:window-maximized="1"
     inkscape:current-layer="svg"
     borderlayer="true"
     showguides="true"
     inkscape:guide-bbox="true"
     inkscape:snap-bbox="true"
     inkscape:showpageshadow="false"
     fit-margin-top="0"
     fit-margin-left="0"
     fit-margin-right="0"
     fit-margin-bottom="0" />
  <g
     style="clip-rule:evenodd;fill-rule:evenodd;stroke-linejoin:round;stroke-miterlimit:1.41420996"
     id="printer">
    <path
       inkscape:connector-curvature="0"
       id="path2"
       style="fill:#C3C7D1"
       d="m 27,24 h -1 v 2 h -2 v 3 H 8 V 26 H 6 V 24 H 5 C 3.896,24 3,23.104 3,22 V 12 C 3,10.896 3.896,10 5,10 H 8 V 3 h 16 v 7 h 3 c 1.104,0 2,0.896 2,2 v 10 c 0,1.104 -0.896,2 -2,2 z M 9,19 v 9 h 14 v -9 z m 7,7 h 5 v 1 H 16 Z M 27,11 H 5 c -0.552,0 -1,0.448 -1,1 v 10 c 0,0.552 0.448,1 1,1 h 1 v -2 h 1 v 4 H 8 V 19 H 4 v -1 h 24 v -6 c 0,-0.552 -0.448,-1 -1,-1 z M 11,23 h 10 v 1 H 11 Z m 0,-3 h 10 v 1 H 11 Z M 24.5,12 C 25.88,12 27,13.12 27,14.5 27,15.88 25.88,17 24.5,17 23.12,17 22,15.88 22,14.5 22,13.12 23.12,12 24.5,12 Z m 0,1 C 25.328,13 26,13.672 26,14.5 26,15.328 25.328,16 24.5,16 23.672,16 23,15.328 23,14.5 23,13.672 23.672,13 24.5,13 Z M 9,4 v 6 H 23 V 4 Z m 15,15 v 6 h 1 v -4 h 1 v 2 h 1 c 0.552,0 1,-0.448 1,-1 v -3 z" />
    <rect
       y="0"
       x="0"
       height="32"
       width="32"
       id="rect817"
       style="fill:#ffffff;fill-opacity:0;stroke-width:1.01498103" />
  </g>
  <g
     style="clip-rule:evenodd;fill-rule:evenodd;stroke-linejoin:round;stroke-miterlimit:1.41420996"
     id="22-22-printer"
     transform="translate(32,10)">
    <path
       inkscape:connector-curvature="0"
       id="path2-1"
       style="fill:#C3C7D1"
       d="m 17,6.016 h 1 c 1.104,0 2,0.896 2,2 v 6.988 c 0,1.103 -0.896,2 -2,2 H 17 V 20 H 5 V 17.004 H 4.019 c -1.104,0 -2,-0.897 -2,-2 V 14.01 H 2 v -1 H 2.019 V 8.016 c 0,-1.104 0.896,-2 2,-2 H 5 V 2 H 17 Z M 16,14.01 H 6 V 19 h 10 z m -8.991,2.994 h 8 V 18 h -8 z M 19.013,14.01 H 17 v 2.006 h 1.013 c 0.552,0 1,-0.448 1,-1 z M 5,16.016 V 14.01 H 3.006 v 1.006 c 0,0.552 0.448,1 1,1 z M 7.009,15 h 8 v 1 h -8 z M 19.013,13.01 V 8.004 c 0,-0.552 -0.448,-1 -1,-1 H 4.006 c -0.552,0 -1,0.448 -1,1 V 13.01 Z M 16,8 c 1.104,0 2,0.896 2,2 0,1.104 -0.896,2 -2,2 -1.104,0 -2,-0.896 -2,-2 0,-1.104 0.896,-2 2,-2 z m 0,1 c 0.552,0 1,0.448 1,1 0,0.552 -0.448,1 -1,1 -0.552,0 -1,-0.448 -1,-1 0,-0.552 0.448,-1 1,-1 z M 16,6.016 V 3 H 6 v 3.016 z" />
    <rect
       style="fill:#ff0000;fill-opacity:0;stroke-width:0.87534779"
       y="0"
       x="0"
       height="22"
       width="22"
       id="rect12" />
  </g>
</svg>
