<?xml version="1.0" encoding="UTF-8" standalone="no"?>
<svg
   xmlns:dc="http://purl.org/dc/elements/1.1/"
   xmlns:cc="http://creativecommons.org/ns#"
   xmlns:rdf="http://www.w3.org/1999/02/22-rdf-syntax-ns#"
   xmlns:svg="http://www.w3.org/2000/svg"
   xmlns="http://www.w3.org/2000/svg"
   xmlns:sodipodi="http://sodipodi.sourceforge.net/DTD/sodipodi-0.dtd"
   xmlns:inkscape="http://www.inkscape.org/namespaces/inkscape"
   viewBox="0 0 22 22"
   id="svg"
   version="1.1"
   inkscape:version="0.92.3 (2405546, 2018-03-11)"
   width="100%"
   height="100%"
   sodipodi:docname="quassel.svgz">
  <defs
     id="defs81">
    <style
       id="current-color-scheme"
       type="text/css">
      .ColorScheme-Text {
        color:#7B7C7E;
      }
      .ColorScheme-Background{
        color:#EFF0F1;
      }
      .ColorScheme-Highlight{
        color:#3DAEE6;
      }
      .ColorScheme-ViewText {
        color:#7B7C7E;
      }
      .ColorScheme-ViewBackground{
        color:#FCFCFC;
      }
      .ColorScheme-ViewHover {
        color:#3DAEE6;
      }
      .ColorScheme-ViewFocus{
        color:#1E92FF;
      }
      .ColorScheme-ButtonText {
        color:#7B7C7E;
      }
      .ColorScheme-ButtonBackground{
        color:#EFF0F1;
      }
      .ColorScheme-ButtonHover {
        color:#3DAEE6;
      }
      .ColorScheme-ButtonFocus{
        color:#1E92FF;
      }
</style>
  </defs>
  <metadata
     id="metadata34">
    <rdf:RDF>
      <cc:Work
         rdf:about="">
        <dc:format>image/svg+xml</dc:format>
        <dc:type
           rdf:resource="http://purl.org/dc/dcmitype/StillImage" />
        <dc:title />
      </cc:Work>
    </rdf:RDF>
  </metadata>
  <sodipodi:namedview
     pagecolor="#ffffff"
     bordercolor="#666666"
     borderopacity="1"
     objecttolerance="10"
     gridtolerance="10"
     guidetolerance="10"
     inkscape:pageopacity="0.03921569"
     inkscape:pageshadow="2"
     inkscape:window-width="1920"
     inkscape:window-height="1011"
     id="namedview32"
     showgrid="true"
     inkscape:zoom="11.313708"
     inkscape:cx="-29.748102"
     inkscape:cy="19.076154"
     inkscape:window-x="0"
     inkscape:window-y="0"
     inkscape:window-maximized="1"
     inkscape:current-layer="svg"
     borderlayer="true"
     showguides="true"
     inkscape:guide-bbox="true"
     inkscape:snap-bbox="true">
    <inkscape:grid
       type="xygrid"
       id="grid884" />
  </sodipodi:namedview>
  <g
     style="clip-rule:evenodd;fill-rule:evenodd;stroke-linejoin:round;stroke-miterlimit:1.41420996"
     id="quassel">
    <path
       inkscape:connector-curvature="0"
       style="fill:#C3C7D1;fill-opacity:1"
       id="path2-0"
       d="m 14,9 v 5 H 8 V 9 8 h 6 z M 13,9 H 9 v 4 h 4 z m 4,11 H 13 V 17 H 9 v 3 H 5 V 17 H 2 V 13 H 5 V 9 H 2 V 5 H 5 V 2 h 4 v 3 h 4 V 2 h 4 v 3 h 3 v 4 h -3 v 4 h 3 v 4 H 17 Z M 6,6 H 3 v 2 h 3 v 6 H 3 v 2 h 3 v 3 h 2 v -3 h 6 v 3 h 2 v -3 h 3 V 14 H 16 V 13 9 8 h 3 V 6 H 16 V 5 3 H 14 V 6 H 8 V 5 3 H 6 Z" />
    <rect
       ry="0.91828799"
       y="0"
       x="0"
       height="22"
       width="22"
       id="rect817-66"
       style="opacity:1;fill:#ffffff;fill-opacity:0;stroke-width:0.80311143;stroke-miterlimit:1.41420996;stroke-dasharray:none" />
  </g>
  <g
     style="clip-rule:evenodd;fill-rule:evenodd;stroke-linejoin:round;stroke-miterlimit:1.41420996"
     id="quassel_message"
     transform="translate(22)">
    <path
       inkscape:connector-curvature="0"
       style="fill:#268aff;fill-opacity:1"
       id="path2-0-2"
       d="m 14,9 v 5 H 8 V 9 8 h 6 z M 13,9 H 9 v 4 h 4 z m 4,11 H 13 V 17 H 9 v 3 H 5 V 17 H 2 V 13 H 5 V 9 H 2 V 5 H 5 V 2 h 4 v 3 h 4 V 2 h 4 v 3 h 3 v 4 h -3 v 4 h 3 v 4 H 17 Z M 6,6 H 3 v 2 h 3 v 6 H 3 v 2 h 3 v 3 h 2 v -3 h 6 v 3 h 2 v -3 h 3 V 14 H 16 V 13 9 8 h 3 V 6 H 16 V 5 3 H 14 V 6 H 8 V 5 3 H 6 Z" />
    <rect
       ry="0.91828799"
       y="0"
       x="0"
       height="22"
       width="22"
       id="rect817-66-5"
       style="opacity:1;fill:#ffffff;fill-opacity:0;stroke-width:0.80311143;stroke-miterlimit:1.41420996;stroke-dasharray:none" />
  </g>
  <g
     style="clip-rule:evenodd;fill-rule:evenodd;stroke-linejoin:round;stroke-miterlimit:1.41420996"
     id="quassel_inactive"
     transform="translate(-22)">
    <path
       inkscape:connector-curvature="0"
       style="opacity:0.6;fill:#C3C7D1;fill-opacity:1"
       id="path2-0-2-7"
       d="m 14,9 v 5 H 8 V 9 8 h 6 z M 13,9 H 9 v 4 h 4 z m 4,11 H 13 V 17 H 9 v 3 H 5 V 17 H 2 V 13 H 5 V 9 H 2 V 5 H 5 V 2 h 4 v 3 h 4 V 2 h 4 v 3 h 3 v 4 h -3 v 4 h 3 v 4 H 17 Z M 6,6 H 3 v 2 h 3 v 6 H 3 v 2 h 3 v 3 h 2 v -3 h 6 v 3 h 2 v -3 h 3 V 14 H 16 V 13 9 8 h 3 V 6 H 16 V 5 3 H 14 V 6 H 8 V 5 3 H 6 Z" />
    <rect
       ry="0.91828799"
       y="0"
       x="0"
       height="22"
       width="22"
       id="rect817-66-5-7"
       style="opacity:1;fill:#ffffff;fill-opacity:0;stroke-width:0.80311143;stroke-miterlimit:1.41420996;stroke-dasharray:none" />
  </g>
</svg>
