<?xml version="1.0" encoding="UTF-8" standalone="no"?>
<svg
   xmlns:dc="http://purl.org/dc/elements/1.1/"
   xmlns:cc="http://creativecommons.org/ns#"
   xmlns:rdf="http://www.w3.org/1999/02/22-rdf-syntax-ns#"
   xmlns:svg="http://www.w3.org/2000/svg"
   xmlns="http://www.w3.org/2000/svg"
   xmlns:sodipodi="http://sodipodi.sourceforge.net/DTD/sodipodi-0.dtd"
   xmlns:inkscape="http://www.inkscape.org/namespaces/inkscape"
   viewBox="0 0 22 22"
   id="svg"
   version="1.1"
   inkscape:version="0.92.2 (5c3e80d, 2017-08-06)"
   width="100%"
   height="100%"
   sodipodi:docname="slc.svgz">
  <defs
     id="defs81">
    <style
       id="current-color-scheme"
       type="text/css">
      .ColorScheme-Text {
        color:#7B7C7E;
      }
      .ColorScheme-Background{
        color:#EFF0F1;
      }
      .ColorScheme-Highlight{
        color:#3DAEE6;
      }
      .ColorScheme-ViewText {
        color:#7B7C7E;
      }
      .ColorScheme-ViewBackground{
        color:#FCFCFC;
      }
      .ColorScheme-ViewHover {
        color:#3DAEE6;
      }
      .ColorScheme-ViewFocus{
        color:#1E92FF;
      }
      .ColorScheme-ButtonText {
        color:#7B7C7E;
      }
      .ColorScheme-ButtonBackground{
        color:#EFF0F1;
      }
      .ColorScheme-ButtonHover {
        color:#3DAEE6;
      }
      .ColorScheme-ButtonFocus{
        color:#1E92FF;
      }
</style>
  </defs>
  <metadata
     id="metadata34">
    <rdf:RDF>
      <cc:Work
         rdf:about="">
        <dc:format>image/svg+xml</dc:format>
        <dc:type
           rdf:resource="http://purl.org/dc/dcmitype/StillImage" />
        <dc:title></dc:title>
      </cc:Work>
    </rdf:RDF>
  </metadata>
  <sodipodi:namedview
     pagecolor="#ffffff"
     bordercolor="#666666"
     borderopacity="1"
     objecttolerance="10"
     gridtolerance="10"
     guidetolerance="10"
     inkscape:pageopacity="0.12156863"
     inkscape:pageshadow="2"
     inkscape:window-width="1920"
     inkscape:window-height="1017"
     id="namedview32"
     showgrid="true"
     inkscape:zoom="9.8538752"
     inkscape:cx="-1.4981653"
     inkscape:cy="6.4269587"
     inkscape:window-x="-8"
     inkscape:window-y="-8"
     inkscape:window-maximized="1"
     inkscape:current-layer="svg"
     borderlayer="true"
     showguides="true"
     inkscape:guide-bbox="true"
     inkscape:snap-bbox="true"
     inkscape:bbox-nodes="true">
    <inkscape:grid
       type="xygrid"
       id="grid3046"
       empspacing="4"
       visible="true"
       enabled="true"
       snapvisiblegridlinesonly="true"
       color="#0000ff"
       opacity="0.03921569"
       empcolor="#0000ff"
       empopacity="0.07843137" />
  </sodipodi:namedview>
  <g
     style="clip-rule:evenodd;fill-rule:evenodd;stroke-linejoin:round;stroke-miterlimit:1.41420996"
     id="slc-like"
     transform="translate(0,-22)">
    <path
       inkscape:connector-curvature="0"
       id="path2"
       style="fill:#C3C7D1"
       d="M 9,6 C 9,7.649 7.666,8.989 6.019,9 H 6 v 8.264 C 6.125,17.688 6.54,18 7,18 h 9.2 c 0.525,0 0.761,-0.366 0.936,-0.915 l 1.811,-6.759 h -10e-4 c 0.002,-0.006 0.004,-0.012 0.005,-0.018 l 0.027,-0.099 C 18.992,10.141 19,10.072 19,10 19,9.448 18.552,9 18,9 H 11 V 8 h 7 c 1.104,0 2,0.896 2,2 0,0.086 -0.005,0.171 -0.016,0.255 L 20,10.259 19.951,10.442 c -0.012,0.051 -0.025,0.102 -0.041,0.151 l -1.719,6.415 C 18,18.177 17.301,19 16.2,19 H 7 C 6.593,19 6.208,18.878 5.885,18.668 5.61,19.444 4.87,20 4,20 H 2 V 6 H 4 C 5.104,6 6,6.896 6,8 7.104,8 8,7.104 8,6 V 3 h 2 c 1.104,0 2,0.896 2,2 v 3 c 0,0 -1,0 -1,0 V 5 C 11,4.448 10.552,4 10,4 H 9 Z M 5,16.962 V 8 C 5,7.448 4.552,7 4,7 H 3 c 0,0 0,12 0,12 0,0 1,0 1,0 0.552,0 1,-0.448 1,-1 V 17.383 C 4.975,17.259 4.962,17.131 4.962,17 Z" />
    <rect
       y="0"
       x="0"
       height="22"
       width="22"
       id="rect817"
       style="fill:#ffffff;fill-opacity:0;stroke-width:0.95112514" />
  </g>
  <g
     style="clip-rule:evenodd;fill-rule:evenodd;stroke-linejoin:round;stroke-miterlimit:1.41420996"
     id="slc-share"
     transform="translate(22)">
    <path
       inkscape:connector-curvature="0"
       id="path2-2"
       style="fill:#C3C7D1"
       d="M 7.417,6.777 C 6.871,7.518 5.991,8 5,8 3.344,8 2,6.656 2,5 2,3.344 3.344,2 5,2 6.656,2 8,3.344 8,5 8,5.307 7.954,5.603 7.868,5.882 l 6.469,3.735 C 14.838,8.657 15.843,8 17,8 c 1.656,0 3,1.344 3,3 0,1.656 -1.344,3 -3,3 -1.157,0 -2.162,-0.657 -2.663,-1.617 L 7.868,16.118 C 7.954,16.397 8,16.693 8,17 8,18.656 6.656,20 5,20 3.344,20 2,18.656 2,17 c 0,-1.656 1.344,-3 3,-3 0.991,0 1.871,0.482 2.417,1.223 l 6.61,-3.816 C 14.009,11.274 14,11.138 14,11 c 0,-0.138 0.009,-0.274 0.027,-0.407 z M 5,15 c 1.104,0 2,0.896 2,2 0,1.104 -0.896,2 -2,2 C 3.896,19 3,18.104 3,17 3,15.896 3.896,15 5,15 Z M 17,9 c 1.104,0 2,0.896 2,2 0,1.104 -0.896,2 -2,2 -1.104,0 -2,-0.896 -2,-2 0,-1.104 0.896,-2 2,-2 z M 5,3 C 6.104,3 7,3.896 7,5 7,6.104 6.104,7 5,7 3.896,7 3,6.104 3,5 3,3.896 3.896,3 5,3 Z" />
    <rect
       y="0"
       x="0"
       height="22"
       width="22"
       id="rect817-7"
       style="fill:#ffffff;fill-opacity:0;stroke-width:0.85659748" />
  </g>
  <g
     style="clip-rule:evenodd;fill-rule:evenodd;stroke-linejoin:round;stroke-miterlimit:1.41420996"
     id="slc-connect">
    <path
       inkscape:connector-curvature="0"
       id="path2-8"
       style="fill:#C3C7D1"
       d="M 18.057,7.406 C 17.51,7.728 16.843,7.769 16.266,7.527 l -2.309,3.682 c 0.52,0.865 0.565,1.937 0.135,2.838 L 11.384,11.34 6.434,16.289 3.943,18.04 5.727,15.582 10.677,10.632 7.97,7.925 C 8.871,7.495 9.942,7.54 10.808,8.06 L 14.49,5.751 C 14.248,5.174 14.288,4.506 14.611,3.96 Z" />
    <rect
       y="0"
       x="0"
       height="22"
       width="22"
       id="rect817-3"
       style="fill:#ffffff;fill-opacity:0;stroke-width:0.94403017" />
  </g>
</svg>
