<?xml version="1.0" encoding="UTF-8" standalone="no"?>
<svg
   xmlns:dc="http://purl.org/dc/elements/1.1/"
   xmlns:cc="http://creativecommons.org/ns#"
   xmlns:rdf="http://www.w3.org/1999/02/22-rdf-syntax-ns#"
   xmlns:svg="http://www.w3.org/2000/svg"
   xmlns="http://www.w3.org/2000/svg"
   xmlns:xlink="http://www.w3.org/1999/xlink"
   xmlns:sodipodi="http://sodipodi.sourceforge.net/DTD/sodipodi-0.dtd"
   xmlns:inkscape="http://www.inkscape.org/namespaces/inkscape"
   inkscape:version="1.0rc1 (09960d6f05, 2020-04-09)"
   sodipodi:docname="system.svg"
   viewBox="0 0 54 128"
   id="svg2"
   version="1.1">
  <sodipodi:namedview
     inkscape:document-rotation="0"
     showguides="false"
     inkscape:showpageshadow="false"
     inkscape:current-layer="svg2"
     inkscape:window-maximized="1"
     inkscape:window-y="22"
     inkscape:window-x="0"
     inkscape:cy="85.452642"
     inkscape:cx="30.972544"
     inkscape:zoom="2.1960622"
     showgrid="false"
     id="namedview66"
     inkscape:window-height="722"
     inkscape:window-width="1366"
     inkscape:pageshadow="2"
     inkscape:pageopacity="0"
     guidetolerance="10"
     gridtolerance="10"
     objecttolerance="10"
     borderopacity="1"
     bordercolor="#666666"
     pagecolor="#ffffff" />
  <metadata
     id="metadata62">
    <rdf:RDF>
      <cc:Work
         rdf:about="">
        <dc:format>image/svg+xml</dc:format>
        <dc:type
           rdf:resource="http://purl.org/dc/dcmitype/StillImage" />
        <dc:title />
      </cc:Work>
    </rdf:RDF>
  </metadata>
  <defs
     id="defs3051">
    <style
       id="current-color-scheme"
       type="text/css">
      .ColorScheme-Text {
        color:#C3C7D1;
      }
      .ColorScheme-Background {
        color:#ffffff;
      }
      .ColorScheme-Highlight {
        color:#009bff;
      }
      .ColorScheme-ViewText {
        color:#C3C7D1;
      }
      .ColorScheme-ViewBackground {
        color:#ffffff;
      }
      .ColorScheme-ViewHover {
        color:#2dacff;
      }
      .ColorScheme-ViewFocus{
        color:#009bff;
      }
      .ColorScheme-ButtonText {
        color:#C3C7D1;
      }
      .ColorScheme-ButtonBackground {
        color:#ffffff;
      }
      .ColorScheme-ButtonHover {
        color:#2dacff;
      }
      .ColorScheme-ButtonFocus{
        color:#009bff;
      }
      </style>
    <linearGradient
       y2="81.676857"
       x2="98.057564"
       y1="81.676857"
       x1="84.740021"
       id="_lgradient_30"
       gradientTransform="matrix(1.1807231,0,0,1.152802,-92.120519,-77.655116)"
       gradientUnits="userSpaceOnUse"
       xlink:href="#_lgradient_55">
      <stop
         id="stop9"
         style="stop-color:rgb(88,0,226)"
         stop-opacity="1"
         offset="0%" />
      <stop
         id="stop11"
         style="stop-color:rgb(255,0,230)"
         stop-opacity="1"
         offset="100%" />
    </linearGradient>
    <linearGradient
       gradientUnits="userSpaceOnUse"
       gradientTransform="matrix(28,0,0,28.000594,1.7961501,2.1127368)"
       y2="0.5"
       x2="1"
       y1="0.5"
       x1="0"
       id="_lgradient_31">
      <stop
         id="stop16"
         style="stop-color:#5433ff;stop-opacity:1"
         stop-opacity="1"
         offset="0%" />
      <stop
         offset="0.5"
         stop-opacity="1"
         style="stop-color:#20bdff;stop-opacity:1"
         id="stop948" />
      <stop
         id="stop18"
         style="stop-color:#a5fecb;stop-opacity:1"
         stop-opacity="1"
         offset="100%" />
    </linearGradient>
    <linearGradient
       xlink:href="#_lgradient_31"
       y2="85.542641"
       x2="69.545692"
       y1="85.542641"
       x1="60.00079"
       id="_lgradient_47"
       gradientTransform="matrix(1.3482934,0,0,1.3185393,-76.665046,-102.14916)"
       gradientUnits="userSpaceOnUse">
      <stop
         id="stop27"
         style="stop-color:rgb(88,0,226)"
         stop-opacity="1"
         offset="0%" />
      <stop
         id="stop29"
         style="stop-color:rgb(255,0,230)"
         stop-opacity="1"
         offset="100%" />
    </linearGradient>
    <linearGradient
       spreadMethod="pad"
       gradientUnits="userSpaceOnUse"
       gradientTransform="matrix(21.333334,0,0,21.333334,0.0016241,-0.3211577)"
       y2="0.5"
       x2="1"
       y1="0.5"
       x1="0"
       id="_lgradient_48">
      <stop
         id="stop34"
         style="stop-color:rgb(88,0,226)"
         stop-opacity="1"
         offset="0%" />
      <stop
         id="stop36"
         style="stop-color:rgb(255,0,230)"
         stop-opacity="1"
         offset="100%" />
    </linearGradient>
    <linearGradient
       gradientUnits="userSpaceOnUse"
       gradientTransform="matrix(18.261382,0,0,18.261384,6.8360137,6.8565346)"
       y2="0.5"
       x2="1"
       y1="0.5"
       x1="0"
       id="_lgradient_55">
      <stop
         id="stop107"
         style="stop-color:rgb(255,153,102)"
         stop-opacity="1"
         offset="0%" />
      <stop
         id="stop109"
         style="stop-color:rgb(255,94,98)"
         stop-opacity="1"
         offset="98.26086956521739%" />
    </linearGradient>
    <linearGradient
       y2="79.5"
       x2="46.228"
       y1="79.5"
       x1="28.772"
       id="_lgradient_56"
       gradientUnits="userSpaceOnUse"
       gradientTransform="matrix(1.0769229,0,0,1.0769232,-24.418443,-69.628697)">
      <stop
         id="stop112"
         style="stop-color:rgb(255,153,102)"
         stop-opacity="1"
         offset="0%" />
      <stop
         id="stop114"
         style="stop-color:rgb(255,94,98)"
         stop-opacity="1"
         offset="98.26086956521739%" />
    </linearGradient>
    <linearGradient
       xlink:href="#_lgradient_48"
       gradientUnits="userSpaceOnUse"
       gradientTransform="matrix(27.999997,0,0,28,1.966163,1.9866881)"
       y2="0.5"
       x2="1"
       y1="0.5"
       x1="0"
       id="_lgradient_57">
      <stop
         id="stop119"
         style="stop-color:rgb(255,153,102)"
         stop-opacity="1"
         offset="0%" />
      <stop
         id="stop121"
         style="stop-color:rgb(255,94,98)"
         stop-opacity="1"
         offset="98.26086956521739%" />
    </linearGradient>
    <linearGradient
       gradientUnits="userSpaceOnUse"
       gradientTransform="matrix(14.609885,0,0,14.128909,3.3597622,4.0727295)"
       y2="0.5"
       x2="1"
       y1="0.5"
       x1="0"
       id="_lgradient_58">
      <stop
         id="stop130"
         style="stop-color:rgb(255,153,102)"
         stop-opacity="1"
         offset="0%" />
      <stop
         id="stop132"
         style="stop-color:rgb(255,94,98)"
         stop-opacity="1"
         offset="98.26086956521739%" />
    </linearGradient>
    <linearGradient
       y2="85.5"
       x2="17.62"
       y1="85.5"
       x1="5.38"
       id="_lgradient_59"
       gradientUnits="userSpaceOnUse"
       gradientTransform="matrix(1.2445596,0,0,1.2035871,-3.6471084,-91.768907)">
      <stop
         id="stop135"
         style="stop-color:rgb(255,153,102)"
         stop-opacity="1"
         offset="0%" />
      <stop
         id="stop137"
         style="stop-color:rgb(255,94,98)"
         stop-opacity="1"
         offset="98.26086956521739%" />
    </linearGradient>
    <linearGradient
       gradientUnits="userSpaceOnUse"
       gradientTransform="matrix(22.402073,0,0,21.664567,-0.5357089,0.30550149)"
       y2="0.5"
       x2="1"
       y1="0.5"
       x1="0"
       id="_lgradient_60">
      <stop
         id="stop142"
         style="stop-color:rgb(255,153,102)"
         stop-opacity="1"
         offset="0%" />
      <stop
         id="stop144"
         style="stop-color:rgb(255,94,98)"
         stop-opacity="1"
         offset="98.26086956521739%" />
    </linearGradient>
    <linearGradient
       gradientUnits="userSpaceOnUse"
       gradientTransform="matrix(28.000003,0,0,28.000001,1.8087433,2.1151544)"
       y2="0.5"
       x2="1"
       y1="0.5"
       x1="0"
       id="_lgradient_14">
      <stop
         id="stop147"
         style="stop-color:#16b5e4;stop-opacity:1"
         stop-opacity="1"
         offset="0%" />
      <stop
         id="stop149"
         style="stop-color:#f520fa;stop-opacity:1"
         stop-opacity="1"
         offset="100%" />
    </linearGradient>
    <linearGradient
       xlink:href="#_lgradient_14"
       gradientUnits="userSpaceOnUse"
       gradientTransform="matrix(-21.951523,0,0,21.61011,21.87215,0.163323)"
       y2="0.5"
       x2="1"
       y1="0.5"
       x1="0"
       id="_lgradient_15">
      <stop
         id="stop158"
         style="stop-color:rgb(0,255,169)"
         stop-opacity="1"
         offset="0%" />
      <stop
         id="stop160"
         style="stop-color:rgb(240,116,179)"
         stop-opacity="1"
         offset="100%" />
    </linearGradient>
    <linearGradient
       gradientUnits="userSpaceOnUse"
       gradientTransform="matrix(28,0,0,28,1.8201499,1.7452183)"
       y2="0.5"
       x2="1"
       y1="0.5"
       x1="0"
       id="_lgradient_12">
      <stop
         id="stop125"
         style="stop-color:#f9d423;stop-opacity:1"
         stop-opacity="1"
         offset="0%" />
      <stop
         offset="0.5"
         stop-opacity="1"
         style="stop-color:#ff4e50;stop-opacity:1"
         id="stop982" />
      <stop
         id="stop127"
         style="stop-color:#8a2387;stop-opacity:1"
         stop-opacity="1"
         offset="100%" />
    </linearGradient>
    <linearGradient
       xlink:href="#_lgradient_12"
       gradientUnits="userSpaceOnUse"
       gradientTransform="matrix(21.907734,0,0,21.344431,0.281331,0.622092)"
       y2="0.5"
       x2="1"
       y1="0.5"
       x1="0"
       id="_lgradient_13">
      <stop
         id="stop136"
         style="stop-color:rgb(255,224,49)"
         stop-opacity="1"
         offset="0%" />
      <stop
         id="stop138"
         style="stop-color:rgb(250,0,117)"
         stop-opacity="1"
         offset="100%" />
    </linearGradient>
    <linearGradient
       gradientUnits="userSpaceOnUse"
       gradientTransform="matrix(28,0,0,28,1.989041,2.0344726)"
       y2="0.5"
       x2="1"
       y1="0.5"
       x1="0"
       id="_lgradient_4">
      <stop
         id="stop57"
         style="stop-color:#fccb90;stop-opacity:1"
         stop-opacity="1"
         offset="0%" />
      <stop
         id="stop59"
         style="stop-color:#d57eeb;stop-opacity:1"
         stop-opacity="1"
         offset="97.82608695652173%" />
    </linearGradient>
    <linearGradient
       gradientUnits="userSpaceOnUse"
       gradientTransform="matrix(21.528625,0,0,21.414821,0.34500001,0.301332)"
       y2="0.5"
       x2="1"
       y1="0.5"
       x1="0"
       id="_lgradient_5">
      <stop
         id="stop68"
         style="stop-color:rgb(67,233,123)"
         stop-opacity="1"
         offset="0%" />
      <stop
         id="stop70"
         style="stop-color:rgb(56,249,215)"
         stop-opacity="1"
         offset="97.82608695652173%" />
    </linearGradient>
    <linearGradient
       gradientUnits="userSpaceOnUse"
       y2="16.502125"
       x2="23.658331"
       y1="16.502125"
       x1="7.9339705"
       id="linearGradient956"
       xlink:href="#_lgradient_31"
       inkscape:collect="always" />
    <linearGradient
       gradientUnits="userSpaceOnUse"
       y2="10.34583"
       x2="21.334965"
       y1="10.34583"
       x1="0.0016241"
       id="linearGradient964"
       xlink:href="#_lgradient_31"
       inkscape:collect="always" />
    <linearGradient
       gradientUnits="userSpaceOnUse"
       y2="10.642174"
       x2="17.102968"
       y1="10.642174"
       x1="4.2336292"
       id="linearGradient972"
       xlink:href="#_lgradient_31"
       inkscape:collect="always" />
    <linearGradient
       gradientUnits="userSpaceOnUse"
       y2="10.968378"
       x2="21.87215"
       y1="10.968378"
       x1="-0.079373263"
       id="linearGradient980"
       xlink:href="#_lgradient_14"
       inkscape:collect="always" />
    <linearGradient
       gradientUnits="userSpaceOnUse"
       y2="11.294308"
       x2="22.189066"
       y1="11.294308"
       x1="0.281331"
       id="linearGradient990"
       xlink:href="#_lgradient_12"
       inkscape:collect="always" />
    <linearGradient
       gradientUnits="userSpaceOnUse"
       y2="15.986688"
       x2="29.966164"
       y1="15.986688"
       x1="1.966163"
       id="linearGradient998"
       xlink:href="#_lgradient_55"
       inkscape:collect="always" />
    <linearGradient
       y2="0.5"
       x2="1"
       y1="0.5"
       x1="0"
       gradientTransform="matrix(18.261382,0,0,18.261384,6.8360137,6.8565346)"
       gradientUnits="userSpaceOnUse"
       id="linearGradient1000"
       xlink:href="#_lgradient_55"
       inkscape:collect="always" />
    <linearGradient
       gradientUnits="userSpaceOnUse"
       y2="11.137786"
       x2="18.276871"
       y1="11.137786"
       x1="3.0538285"
       id="linearGradient1008"
       xlink:href="#_lgradient_55"
       inkscape:collect="always" />
    <linearGradient
       gradientUnits="userSpaceOnUse"
       y2="11.137789"
       x2="21.866364"
       y1="11.137789"
       x1="-0.5357089"
       id="linearGradient1016"
       xlink:href="#_lgradient_55"
       inkscape:collect="always" />
    <linearGradient
       gradientUnits="userSpaceOnUse"
       y2="11.008742"
       x2="21.873625"
       y1="11.008742"
       x1="0.345"
       id="linearGradient1024"
       xlink:href="#_lgradient_4"
       inkscape:collect="always" />
  </defs>
  <g
     transform="translate(76,64)"
     id="system-reboot"
     style="clip-rule:evenodd;fill-rule:evenodd;stroke-linejoin:round;stroke-miterlimit:1.41421">
    <rect
       style="fill:#ffdfff;fill-opacity:0;stroke-width:0.797917"
       id="rect817"
       width="32"
       height="32"
       x="0"
       y="0" />
    <path
       style="isolation:isolate;vector-effect:non-scaling-stroke;fill:none;stroke:url(#linearGradient956);stroke-width:2.33336;stroke-linecap:square;stroke-linejoin:miter;stroke-miterlimit:3;stroke-opacity:1"
       inkscape:connector-curvature="0"
       id="path14"
       stroke-miterlimit="3"
       d="m 9.1006504,16.502709 c 0,-3.59341 2.9995006,-6.5101394 6.6955006,-6.5101394 3.696,0 6.6955,2.9167294 6.6955,6.5101394 0,3.592242 -2.9995,6.508971 -6.6955,6.508971 -3.696,0 -6.6955006,-2.916729 -6.6955006,-6.508971 z" />
    <path
       style="isolation:isolate;fill:url(#_lgradient_31);fill-rule:evenodd;stroke-width:1.16668"
       inkscape:connector-curvature="0"
       id="path21"
       d="m 9.753984,5.5486422 v 0 c 1.856167,-0.9683541 3.931667,-1.4746975 6.042167,-1.4746975 2.245833,0 4.4555,0.5751785 6.403833,1.6695352 v 0 c 0.288167,0.1633371 0.659167,0.066501 0.827167,-0.2158381 v 0 c 0.168,-0.2823388 0.07,-0.6451801 -0.219333,-0.8085171 v 0 C 20.677484,3.5185993 18.255484,2.8909196 15.796151,2.8909196 c -2.408,0 -4.774,0.6055128 -6.8716669,1.7535371 L 9.2243177,2.917753 v 0 c 0.065336,-0.3756744 -0.196,-0.7315155 -0.5821672,-0.7945168 v 0 c -0.3861664,-0.064165 -0.7525,0.1901712 -0.8178327,0.5658456 v 0 L 7.4019842,5.1449673 c -0.1306664,0.759516 0.3803336,1.4781976 1.1421663,1.6042003 l 2.5655005,0.4211761 v 0 c 0.386167,0.063001 0.7525,-0.1901712 0.817833,-0.5658456 v 0 C 11.99282,6.2288238 11.732651,5.8718163 11.345318,5.808815 v 0 z M 4.7548171,22.763175 v 0 c 0.1680009,0.281172 0.068836,0.642846 -0.2193327,0.808517 v 0 c -0.2893337,0.164503 -0.6626664,0.07 -0.8341672,-0.210005 v 0 C 2.4529845,21.277976 1.7961509,18.91076 1.7961509,16.502709 c 0,-2.166547 0.5296664,-4.296925 1.5458335,-6.226633 v 0 c 0.1551664,-0.2905064 0.5226664,-0.4036754 0.8225,-0.254338 v 0 c 0.2986663,0.150503 0.4153327,0.508677 0.2613336,0.799183 v 0 c -0.9310008,1.758204 -1.4128336,3.704245 -1.4128336,5.681788 0,2.201546 0.5973328,4.361092 1.7418327,6.260466 z m 17.4813339,4.474261 v 0 c 0.289333,-0.163337 0.6615,-0.06767 0.830667,0.213504 v 0 c 0.170333,0.280006 0.0735,0.644014 -0.215834,0.810851 v 0 c -2.143167,1.212192 -4.578,1.851539 -7.054833,1.851539 -2.391667,0 -4.754167,-0.597346 -6.8413333,-1.733703 v 0 C 8.6619841,28.21979 8.5581505,27.859282 8.7226505,27.57461 v 0 c 0.1645,-0.283506 0.5354999,-0.387342 0.8283335,-0.231005 v 0 c 1.905167,1.041855 4.06,1.5867 6.245167,1.5867 2.2645,0 4.485833,-0.579846 6.44,-1.692869 z m 5.083167,-16.114342 v 0 c -0.144668,-0.294006 -0.01634,-0.646347 0.285832,-0.787517 v 0 c 0.302167,-0.140003 0.667334,-0.01516 0.815501,0.27884 v 0 c 0.9065,1.834039 1.3755,3.846581 1.3755,5.888292 0,2.319381 -0.609,4.59793 -1.771001,6.627973 v 0 c -0.1645,0.283506 -0.5355,0.386175 -0.828332,0.227505 v 0 c -0.291668,-0.15867 -0.399,-0.520344 -0.236834,-0.80735 v 0 c 1.065166,-1.846873 1.619333,-3.929417 1.619333,-6.048128 0,-1.864373 -0.427,-3.699579 -1.259999,-5.379615 z M 25.230984,7.9216926 c 0,-0.326674 0.273,-0.5926791 0.609,-0.5926791 0.336,0 0.607834,0.2660051 0.607834,0.5926791 0,0.326674 -0.271834,0.591512 -0.607834,0.591512 -0.336,0 -0.609,-0.264838 -0.609,-0.591512 z m -0.609,17.7535434 c 0,-0.326674 0.273,-0.591512 0.609,-0.591512 0.336,0 0.609,0.264838 0.609,0.591512 0,0.326673 -0.273,0.591513 -0.609,0.591513 -0.336,0 -0.609,-0.26484 -0.609,-0.591513 z m -19.4774997,0 c 0,-0.326674 0.2718327,-0.591512 0.6078336,-0.591512 0.336,0 0.609,0.264838 0.609,0.591512 0,0.326673 -0.273,0.591513 -0.609,0.591513 -0.3360009,0 -0.6078336,-0.26484 -0.6078336,-0.591513 z" />
  </g>
  <g
     transform="translate(54,74)"
     id="22-22-system-reboot"
     style="clip-rule:evenodd;fill-rule:evenodd;stroke-linejoin:round;stroke-miterlimit:1.41421">
    <rect
       style="fill:#ffebff;fill-opacity:0;stroke-width:0.782849"
       id="rect817-7"
       width="22"
       height="22"
       x="0"
       y="0" />
    <path
       style="isolation:isolate;vector-effect:non-scaling-stroke;fill:none;stroke:url(#linearGradient972);stroke-width:2.66667;stroke-linecap:square;stroke-linejoin:miter;stroke-miterlimit:3;stroke-opacity:1"
       inkscape:connector-curvature="0"
       id="path32"
       stroke-miterlimit="3"
       d="m 5.5669641,10.641507 c 0,-2.7373337 2.28533,-4.9586667 5.1013299,-4.9586667 2.816,0 5.10134,2.221333 5.10134,4.9586667 0,2.737333 -2.28534,4.96 -5.10134,4.96 -2.8159999,0 -5.1013299,-2.222667 -5.1013299,-4.96 z" />
    <path
       style="isolation:isolate;fill:url(#linearGradient964);fill-rule:evenodd;stroke-width:1.33333;fill-opacity:1.0"
       inkscape:connector-curvature="0"
       id="path39"
       d="m 6.0656241,2.2961733 v 0 c 1.41334,-0.737334 2.9946699,-1.122667 4.6026699,-1.122667 1.71067,0 3.39467,0.437334 4.87867,1.272 v 0 c 0.22,0.124 0.50267,0.05067 0.63067,-0.165333 v 0 c 0.128,-0.214667 0.0533,-0.490667 -0.16667,-0.614667 v 0 c -1.62267,-0.916 -3.46933,-1.393333 -5.34267,-1.393333 -1.83467,0 -3.6373299,0.46 -5.2359999,1.334666 l 0.22933,-1.314666 v 0 c 0.0493,-0.285334 -0.14933,-0.557334 -0.444,-0.605334 v 0 c -0.29466,-0.048 -0.57333,0.144 -0.62266,0.430667 v 0 l -0.32267,1.870667 c -0.1,0.58 0.29067,1.128 0.87067,1.222666 l 1.95466,0.321334 v 0 c 0.29467,0.048 0.57334,-0.145333 0.624,-0.432 v 0 c 0.0493,-0.285334 -0.14933,-0.557333 -0.444,-0.605333 v 0 z m -3.81066,13.1159997 v 0 c 0.128,0.214667 0.0533,0.490667 -0.16667,0.616001 v 0 c -0.22,0.125333 -0.504,0.05333 -0.63467,-0.16 v 0 c -0.95066,-1.588001 -1.452,-3.390667 -1.452,-5.226667 0,-1.649334 0.404,-3.2733337 1.17734,-4.7426667 v 0 c 0.11866,-0.221334 0.39866,-0.308 0.62666,-0.193334 v 0 c 0.228,0.113334 0.31734,0.386667 0.2,0.608 v 0 c -0.71066,1.338667 -1.076,2.8226667 -1.076,4.3280007 0,1.677333 0.45467,3.324 1.32534,4.770666 z m 13.3199999,3.409334 v 0 c 0.22,-0.125333 0.504,-0.052 0.63333,0.161333 v 0 c 0.12934,0.214667 0.0547,0.492 -0.16533,0.618667 v 0 c -1.632,0.924 -3.48667,1.410667 -5.37467,1.410667 -1.82267,0 -3.6226699,-0.454667 -5.2133299,-1.321334 v 0 c -0.22267,-0.121333 -0.30134,-0.396 -0.176,-0.613333 v 0 c 0.12533,-0.216 0.408,-0.294667 0.63066,-0.174667 v 0 c 1.452,0.793334 3.0933399,1.208 4.7586699,1.208 1.72534,0 3.41734,-0.442666 4.90667,-1.289333 z m 3.872,-12.2773337 v 0 c -0.10933,-0.224 -0.012,-0.493333 0.21867,-0.6 v 0 c 0.23066,-0.106667 0.508,-0.012 0.62133,0.212 v 0 c 0.69067,1.397333 1.048,2.9306667 1.048,4.4853337 0,1.768 -0.464,3.504 -1.34933,5.050666 v 0 c -0.12534,0.216001 -0.408,0.294667 -0.63067,0.173334 v 0 c -0.22267,-0.12 -0.304,-0.396 -0.18133,-0.616 v 0 c 0.812,-1.406667 1.23333,-2.993334 1.23333,-4.608 0,-1.420001 -0.324,-2.8173337 -0.96,-4.0973337 z m -1.59067,-2.44 c 0,-0.249333 0.208,-0.450667 0.464,-0.450667 0.256,0 0.464,0.201334 0.464,0.450667 0,0.249333 -0.208,0.450667 -0.464,0.450667 -0.256,0 -0.464,-0.201334 -0.464,-0.450667 z m -0.464,13.5266667 c 0,-0.249333 0.208,-0.450666 0.464,-0.450666 0.256,0 0.464,0.201333 0.464,0.450666 0,0.249334 -0.208,0.450667 -0.464,0.450667 -0.256,0 -0.464,-0.201333 -0.464,-0.450667 z m -14.8399999,0 c 0,-0.249333 0.208,-0.450666 0.464,-0.450666 0.256,0 0.464,0.201333 0.464,0.450666 0,0.249334 -0.208,0.450667 -0.464,0.450667 -0.256,0 -0.464,-0.201333 -0.464,-0.450667 z" />
  </g>
  <g
     transform="translate(22,96)"
     id="system-suspend"
     style="clip-rule:evenodd;fill-rule:evenodd;stroke-linejoin:round;stroke-miterlimit:1.41421">
    <rect
       style="fill:#ff92ac;fill-opacity:0;stroke-width:1.01507;stroke-miterlimit:1.41421;stroke-dasharray:none"
       id="rect826"
       width="32"
       height="32"
       x="0"
       y="0"
       ry="1.0085471" />
    <path
       style="isolation:isolate;fill:url(#_lgradient_4);fill-rule:evenodd;stroke-width:1.07692"
       inkscape:connector-curvature="0"
       id="path62"
       d="m 26.617195,8.9310901 v 0 C 26.428733,8.6521671 26.501964,8.2730902 26.780887,8.0846289 v 0 c 0.278924,-0.1873846 0.658,-0.1141536 0.846461,0.1647692 v 0 c 1.540001,2.3067689 2.361693,5.0152309 2.361693,7.7850769 0,3.713231 -1.473231,7.273539 -4.103077,9.896923 -2.623384,2.629846 -6.183692,4.103077 -9.896923,4.103077 -3.713231,0 -7.2735388,-1.473231 -9.8969233,-4.103077 C 3.4622717,23.308014 1.989041,19.747706 1.989041,16.034475 v 0 c 0,-3.713231 1.4732307,-7.2735389 4.1030767,-9.8969232 2.6233845,-2.6244612 6.1836923,-4.1030767 9.8969233,-4.1030767 2.081692,0 4.145077,0.4630766 6.026462,1.3633845 v 0 c 0.301538,0.144308 0.429692,0.5072308 0.285384,0.8098464 v 0 C 22.15658,4.5103208 21.793656,4.638475 21.492118,4.4930903 v 0 c -1.716616,-0.8152304 -3.598,-1.2416919 -5.503077,-1.2416919 -3.390153,0 -6.6413847,1.3461532 -9.0386154,3.7444613 C 4.5521183,9.3930901 3.2059643,12.644322 3.2059643,16.034475 v 0 c 0,3.390154 1.346154,6.641384 3.7444613,9.038615 2.3972307,2.398308 5.6484624,3.744462 9.0386154,3.744462 3.390154,0 6.641384,-1.346154 9.038615,-3.744462 2.398308,-2.397231 3.744462,-5.648461 3.744462,-9.038615 0,-2.531846 -0.749538,-5.003385 -2.154923,-7.1033849 z M 17.866117,22.780322 v 0 c 0.337079,-0.09477 0.687078,0.103384 0.779693,0.441538 v 0 c 0.09261,0.33923 -0.105538,0.691384 -0.442614,0.786154 v 0 c -0.718309,0.197076 -1.46354,0.299383 -2.214155,0.299383 -2.195847,0 -4.302308,-0.872306 -5.847692,-2.425229 -1.5529234,-1.545385 -2.4252311,-3.651846 -2.4252311,-5.847693 0,-1.642307 0.4900002,-3.252308 1.4064612,-4.62 v 0 C 9.319656,11.122629 9.7159639,11.046167 10.006733,11.242167 v 0 c 0.291847,0.197078 0.369385,0.593384 0.172308,0.885231 v 0 c -0.7764617,1.157693 -1.19,2.513539 -1.19,3.907077 0,1.857692 0.7376919,3.64 2.049385,4.950615 1.310615,1.311693 3.092923,2.049385 4.950615,2.049385 0.636461,0 1.266461,-0.08292 1.877076,-0.254153 z M 14.761348,9.1421671 v 0 c -0.347846,0.06031 -0.678461,-0.172307 -0.738769,-0.518 v 0 c -0.05922,-0.345692 0.171231,-0.6752305 0.515846,-0.7355385 v 0 c 0.477077,-0.081846 0.967078,-0.1270766 1.450616,-0.1270766 2.195847,0 4.302308,0.8723081 5.847693,2.425231 1.552923,1.545384 2.425229,3.651845 2.425229,5.847692 0,1.667077 -0.502922,3.296462 -1.450615,4.677077 v 0 c -0.197076,0.288616 -0.592307,0.360769 -0.881999,0.162615 v 0 c -0.289692,-0.198154 -0.361846,-0.596615 -0.162615,-0.887384 v 0 c 0.795845,-1.158769 1.222307,-2.539385 1.222307,-3.952308 0,-1.857692 -0.737692,-3.64 -2.049385,-4.950615 -1.310615,-1.3116929 -3.092923,-2.0493849 -4.950615,-2.0493849 -0.413538,0 -0.820616,0.03769 -1.227693,0.107692 z m -0.112,3.7099999 v 0 c 0.351078,0 0.636462,0.285384 0.636462,0.636462 v 5.091692 c 0,0.351077 -0.285384,0.636462 -0.636462,0.636462 v 0 c -0.351076,0 -0.636461,-0.285385 -0.636461,-0.636462 v -5.091692 c 0,-0.351078 0.285385,-0.636462 0.636461,-0.636462 z m 2.748308,0 v 0 c 0.351078,0 0.636462,0.285384 0.636462,0.636462 v 5.091692 c 0,0.351077 -0.285384,0.636462 -0.636462,0.636462 v 0 c -0.351076,0 -0.636461,-0.285385 -0.636461,-0.636462 v -5.091692 c 0,-0.351078 0.285385,-0.636462 0.636461,-0.636462 z" />
  </g>
  <g
     transform="translate(0,106)"
     id="22-22-system-suspend"
     style="clip-rule:evenodd;fill-rule:evenodd;stroke-linejoin:round;stroke-miterlimit:1.41421">
    <rect
       style="fill:#ffff92;fill-opacity:0;stroke-width:1.00001;stroke-miterlimit:1.41421;stroke-dasharray:none"
       id="rect821"
       width="22"
       height="22"
       x="0"
       y="0"
       ry="1.0042553" />
    <path
       style="isolation:isolate;fill:url(#linearGradient1024);fill-rule:evenodd;stroke-width:1.26304;fill-opacity:1.0"
       inkscape:connector-curvature="0"
       id="path73"
       d="m 19.281325,5.5756792 v 0 C 19.13569,5.3627844 19.192681,5.0730608 19.406697,4.9281895 v 0 c 0.215287,-0.1436053 0.506557,-0.086919 0.650925,0.1259758 v 0 c 1.184074,1.7648302 1.816003,3.8357692 1.816003,5.9545767 0,2.839353 -1.132153,5.562814 -3.154577,7.569509 -2.017359,2.011734 -4.755294,3.137901 -7.609736,3.137901 -2.8544424,0 -5.5923771,-1.126167 -7.6097358,-3.137901 C 1.4771523,16.571556 0.345,13.848095 0.345,11.008742 v 0 C 0.345,8.1693885 1.4771523,5.4459242 3.4995762,3.4392297 5.5169349,1.4325352 8.2548696,0.301332 11.109312,0.301332 c 1.600717,0 3.187503,0.35397751 4.63372,1.0430277 v 0 c 0.23175,0.11085 0.330528,0.3879893 0.219085,0.6185135 v 0 C 15.851941,2.194654 15.57207,2.2929102 15.34032,2.1820602 v 0 C 14.020742,1.558511 12.574526,1.2322436 11.109312,1.2322436 8.5030826,1.2322436 6.0032285,2.261421 4.1593655,4.0955341 2.3155026,5.9296472 1.2808616,8.4162894 1.2808616,11.008742 v 0 c 0,2.592453 1.034641,5.079091 2.8785039,6.913208 1.843863,1.834116 4.3437171,2.863287 6.9499465,2.863287 2.60623,0 5.106083,-1.029171 6.949947,-2.863287 1.843863,-1.834117 2.878503,-4.320755 2.878503,-6.913208 0,-1.936151 -0.576206,-3.8269542 -1.656437,-5.4330628 z M 12.552997,16.167194 v 0 c 0.258343,-0.0718 0.528084,0.07936 0.599002,0.338859 v 0 c 0.07218,0.259497 -0.08105,0.529072 -0.339393,0.600874 v 0 c -0.553412,0.151164 -1.12582,0.229265 -1.703294,0.229265 -1.6880976,0 -3.3078096,-0.667639 -4.4969495,-1.854272 -1.192939,-1.182853 -1.8641258,-2.794004 -1.8641258,-4.473178 0,-1.2559156 0.3773838,-2.4866382 1.0814971,-3.5334449 v 0 C 5.9817005,7.252331 6.285634,7.193125 6.509785,7.3442885 v 0 c 0.224151,0.149904 0.2836706,0.4534902 0.1329709,0.6764563 v 0 C 6.0450194,8.9063112 5.7271562,9.9430401 5.7271562,11.008742 c 0,1.420936 0.5673422,2.783927 1.5753881,3.786644 1.0080467,1.002717 2.3782806,1.567061 3.8067677,1.567061 0.488827,0 0.973854,-0.06299 1.443685,-0.195253 z M 10.164585,5.7381798 v 0 C 9.8973775,5.7835289 9.6428332,5.6059118 9.5972432,5.3413758 v 0 C 9.5516532,5.0768398 9.7289471,4.8248976 9.9936228,4.7795486 v 0 c 0.3672532,-0.064244 0.7433712,-0.098256 1.1156892,-0.098256 1.688097,0 3.30781,0.6676416 4.49695,1.8542717 1.192939,1.1828538 1.864126,2.7940037 1.864126,4.4731777 0,1.274812 -0.386249,2.52065 -1.115689,3.577535 v 0 c -0.151967,0.220446 -0.454635,0.275873 -0.67752,0.12345 v 0 c -0.222883,-0.151164 -0.278605,-0.456009 -0.125372,-0.678976 v 0 c 0.611666,-0.885566 0.939662,-1.94119 0.939662,-3.022009 0,-1.4209358 -0.567344,-2.7839264 -1.575389,-3.7866435 C 13.908034,6.2193803 12.5378,5.65504 11.109312,5.65504 c -0.317864,0 -0.630662,0.029004 -0.944727,0.08314 z m -0.08612,2.8368312 v 0 c 0.271007,0 0.490093,0.2179267 0.490093,0.4875021 v 3.8924579 c 0,0.269575 -0.219086,0.487502 -0.490093,0.487502 v 0 c -0.2697422,0 -0.4888269,-0.217927 -0.4888269,-0.487502 V 9.0625131 c 0,-0.2695754 0.2190847,-0.4875021 0.4888269,-0.4875021 z m 2.113604,0 v 0 c 0.271007,0 0.490093,0.2179267 0.490093,0.4875021 v 3.8924579 c 0,0.269575 -0.219086,0.487502 -0.490093,0.487502 v 0 c -0.269741,0 -0.488827,-0.217927 -0.488827,-0.487502 V 9.0625131 c 0,-0.2695754 0.219086,-0.4875021 0.488827,-0.4875021 z" />
  </g>
  <g
     transform="translate(22,64)"
     id="system-suspend-hibernate"
     style="clip-rule:evenodd;fill-rule:evenodd;stroke-linejoin:round;stroke-miterlimit:1.41421">
    <rect
       style="fill:#ffa6bc;fill-opacity:0;stroke-width:1;stroke-miterlimit:1.41421;stroke-dasharray:none"
       id="rect817-2"
       width="32"
       height="32"
       x="0"
       y="0"
       ry="1" />
    <path
       style="isolation:isolate;vector-effect:non-scaling-stroke;fill:url(#linearGradient1000);fill-opacity:1;fill-rule:evenodd;stroke:url(#_lgradient_56);stroke-width:0.538462;stroke-linecap:butt;stroke-linejoin:round;stroke-miterlimit:1.41421"
       inkscape:connector-curvature="0"
       id="path117"
       stroke-miterlimit="1.41420996"
       d="m 14.470319,7.7094577 c -3.94908,0.6999995 -6.9321541,4.1429223 -6.9321541,8.2772303 0,4.65123 3.7767691,8.428 8.4279991,8.428 4.130001,0 7.57077,-2.976616 8.275078,-6.920308 l 0.0021,-0.01185 c -1.145846,0.833538 -2.549077,1.313845 -4.06323,1.313845 -3.875847,0 -7.023693,-3.147843 -7.023693,-7.02369 0,-1.514155 0.480308,-2.9173859 1.313847,-4.0632313 z m 10.179076,8.5324603 0.421078,-0.511537 0.02585,0.256307 -0.08723,0.863693 -0.0011,0.014 c -0.400615,4.631847 -4.30123,8.252462 -9.041846,8.252462 -5.038926,0 -9.1301536,-4.091231 -9.1301536,-9.130154 0,-4.744923 3.6270796,-8.6498459 8.2664626,-9.0429223 l 0.863691,-0.087231 0.256309,0.025847 -0.511539,0.4210766 -0.252,0.3069231 -0.01184,0.011848 c -0.997249,1.1006177 -1.58848,2.5566166 -1.58848,4.1504626 0,3.488154 2.833383,6.321539 6.321539,6.321539 1.599229,0 3.060613,-0.596616 4.162305,-1.600309 z" />
    <path
       style="isolation:isolate;fill:url(#linearGradient998);fill-opacity:1;stroke-width:1.07692"
       inkscape:connector-curvature="0"
       id="path124"
       d="m 26.594318,8.8833031 v 0 C 26.405856,8.6043811 26.479086,8.2253033 26.758011,8.036842 v 0 c 0.278922,-0.1873846 0.657999,-0.1141536 0.84646,0.1647692 v 0 c 1.540001,2.3067688 2.361692,5.0152318 2.361692,7.7850768 0,3.713231 -1.47323,7.273539 -4.103077,9.896923 -2.623383,2.629846 -6.183691,4.103077 -9.896922,4.103077 -3.713233,0 -7.2735404,-1.473231 -9.8969248,-4.103077 C 3.4393936,23.260227 1.966163,19.699919 1.966163,15.986688 v 0 c 0,-3.713231 1.4732306,-7.2735389 4.1030762,-9.8969231 2.6233844,-2.6244612 6.1836918,-4.1030768 9.8969248,-4.1030768 2.081693,0 4.145077,0.4630766 6.026461,1.3633846 v 0 c 0.301539,0.1443079 0.429694,0.5072308 0.285385,0.8098463 v 0 c -0.144307,0.3026157 -0.507231,0.430769 -0.808769,0.2853844 v 0 c -1.716615,-0.8152304 -3.597999,-1.241692 -5.503077,-1.241692 -3.390151,0 -6.6413841,1.3461533 -9.0386145,3.7444613 C 4.529245,9.3453031 3.1830886,12.596534 3.1830886,15.986688 v 0 c 0,3.390154 1.3461564,6.641384 3.7444609,9.038615 2.3972304,2.398308 5.6484635,3.744462 9.0386145,3.744462 3.390155,0 6.641385,-1.346154 9.038615,-3.744462 2.398308,-2.397231 3.744462,-5.648461 3.744462,-9.038615 0,-2.531846 -0.749539,-5.003385 -2.154923,-7.1033849 z" />
  </g>
  <g
     transform="translate(0,74)"
     id="22-22-system-suspend-hibernate"
     style="clip-rule:evenodd;fill-rule:evenodd;stroke-linejoin:round;stroke-miterlimit:1.41421">
    <rect
       style="fill:#98ffff;fill-opacity:0;stroke-width:0.755863;stroke-miterlimit:1.41421;stroke-dasharray:none"
       id="rect817-76"
       width="22"
       height="22"
       x="0"
       y="0"
       ry="0.70447761" />
    <path
       style="isolation:isolate;vector-effect:non-scaling-stroke;fill:url(#linearGradient1008);fill-opacity:1.0;fill-rule:evenodd;stroke:url(#_lgradient_59);stroke-width:0.611951;stroke-linecap:butt;stroke-linejoin:round;stroke-miterlimit:1.41421"
       inkscape:connector-curvature="0"
       id="path140"
       stroke-miterlimit="1.41420996"
       d="M 9.4680613,4.7335033 C 6.3081241,5.2751175 3.9223034,7.938655 3.9223034,11.13779 c 0,3.598725 3.0217903,6.521035 6.7430246,6.521035 3.304305,0 6.057271,-2.303666 6.621056,-5.354759 l 0.0012,-0.0084 c -0.917241,0.64392 -2.039834,1.015828 -3.25079,1.015828 -3.101443,0 -5.6191873,-2.434857 -5.6191873,-5.4341963 0,-1.1710899 0.3845699,-2.2567257 1.0504088,-3.1437687 z m 8.1443987,6.6016747 0.337275,-0.39598 0.02116,0.198592 -0.0697,0.667991 -0.0012,0.01083 c -0.321097,3.584283 -3.442453,6.386233 -7.234625,6.386233 -4.0323741,0 -7.305566,-3.165434 -7.305566,-7.065056 0,-3.6709406 2.9023135,-6.6919443 6.6148351,-6.9976557 l 0.6907309,-0.067404 0.205352,0.020464 -0.40946,0.3261727 -0.201619,0.237106 -0.01,0.00963 C 9.4519103,5.5182444 8.9789775,6.6448019 8.9789775,7.8772756 c 0,2.6996454 2.2663425,4.8913774 5.0578905,4.8913774 1.279407,0 2.449293,-0.460974 3.330441,-1.238491 z" />
    <path
       style="isolation:isolate;fill:url(#linearGradient1016);fill-opacity:1.0;stroke-width:1.2239"
       inkscape:connector-curvature="0"
       id="path147"
       d="m 19.168158,5.6410076 v 0 c -0.150591,-0.2154424 -0.09085,-0.507914 0.131924,-0.6535477 v 0 c 0.222776,-0.1456338 0.526449,-0.089068 0.67704,0.1263766 v 0 c 1.232114,1.7849193 1.889242,3.8815682 1.889242,6.0239535 0,2.872962 -1.178598,5.627973 -3.281904,7.658424 -2.099571,2.034062 -4.948369,3.173859 -7.919132,3.173859 -2.9707649,0 -5.8195617,-1.139797 -7.9191334,-3.173859 -2.10330623,-2.030451 -3.2819035,-4.785462 -3.2819035,-7.658424 v 0 c 0,-2.8729624 1.17859727,-5.6279731 3.2819035,-7.658425 2.0995717,-2.0292477 4.9483685,-3.173859 7.9191334,-3.173859 1.665221,0 3.316751,0.35746535 4.821423,1.0555455 v 0 c 0.241445,0.1107303 0.344744,0.3923697 0.229,0.6258659 v 0 c -0.115744,0.2334953 -0.405727,0.3333933 -0.648416,0.2214597 v 0 C 13.694585,1.5776972 12.189913,1.2479146 10.665328,1.2479146 7.9521869,1.2479146 5.3523023,2.2878138 3.4331915,4.143745 1.5140807,5.9996762 0.43878123,8.5139702 0.43878123,11.13779 v 0 c 0,2.623819 1.07529947,5.138113 2.99441027,6.994044 1.9191108,1.855932 4.5189954,2.895831 7.2321365,2.895831 2.713139,0 5.313025,-1.039899 7.232135,-2.895831 1.919111,-1.855931 2.994411,-4.370225 2.994411,-6.994044 0,-1.9594398 -0.598633,-3.8719399 -1.723716,-5.4967824 z" />
  </g>
  <g
     transform="translate(22,32)"
     id="system-shutdown"
     style="clip-rule:evenodd;fill-rule:evenodd;stroke-linejoin:round;stroke-miterlimit:1.41421">
    <rect
       style="fill:#ffffd9;fill-opacity:0;stroke-width:1.51399;stroke-miterlimit:1.41421;stroke-dasharray:none"
       id="rect817-75"
       width="32"
       height="32"
       x="0"
       y="0"
       ry="1.1469223" />
    <path
       style="isolation:isolate;fill:url(#_lgradient_12);fill-rule:evenodd;stroke-width:1.07692"
       inkscape:connector-curvature="0"
       id="path130"
       d="m 26.448305,8.6418333 v 0 C 26.259843,8.3629113 26.333073,7.9838334 26.611997,7.7953722 v 0 c 0.278923,-0.1873846 0.657999,-0.1141536 0.846461,0.1647692 v 0 c 1.54,2.3067686 2.361692,5.0152306 2.361692,7.7850766 0,3.713231 -1.473231,7.273539 -4.103077,9.896923 -2.623384,2.629846 -6.183692,4.103077 -9.896923,4.103077 -3.713231,0 -7.2735388,-1.473231 -9.8969233,-4.103077 C 3.2933806,23.018757 1.8201499,19.458449 1.8201499,15.745218 v 0 c 0,-3.71323 1.4732307,-7.2735387 4.1030768,-9.8969229 2.6233845,-2.6244612 6.1836923,-4.1030768 9.8969233,-4.1030768 2.081693,0 4.145076,0.4630766 6.026462,1.3633846 v 0 c 0.301538,0.1443079 0.429693,0.5072307 0.285384,0.8098464 v 0 c -0.144307,0.3026156 -0.507231,0.4307689 -0.808769,0.2853843 v 0 c -1.716616,-0.8152305 -3.598,-1.241692 -5.503077,-1.241692 -3.390154,0 -6.6413847,1.3461533 -9.0386154,3.7444614 -2.3983073,2.3972303 -3.7444614,5.648462 -3.7444614,9.038615 v 0 c 0,3.390154 1.3461541,6.641385 3.7444614,9.038616 2.3972307,2.398307 5.6484614,3.744462 9.0386154,3.744462 3.390154,0 6.641385,-1.346155 9.038615,-3.744462 2.398309,-2.397231 3.744462,-5.648462 3.744462,-9.038616 0,-2.531847 -0.749538,-5.003385 -2.154922,-7.1033847 z M 15.94615,6.863834 v 0 c 0.351077,0 0.636461,0.2853844 0.636461,0.6364615 v 8.8372305 c 0,0.351076 -0.285384,0.636462 -0.636461,0.636462 v 0 c -0.351076,0 -0.636461,-0.285386 -0.636461,-0.636462 V 7.5002955 c 0,-0.3510771 0.285385,-0.6364615 0.636461,-0.6364615 z m 2.737539,4.181691 v 0 c -0.312308,-0.158307 -0.438308,-0.539538 -0.28,-0.852922 v 0 c 0.158307,-0.3123077 0.540615,-0.4383077 0.852922,-0.2799997 v 0 c 1.260001,0.6364617 2.322924,1.6099997 3.060616,2.8129217 0.745231,1.202924 1.139385,2.583539 1.139385,3.996462 0,0.350001 -0.02585,0.693539 -0.07,1.037077 -0.248769,1.826462 -1.152308,3.506461 -2.539384,4.722308 -1.39354,1.214769 -3.17477,1.883539 -5.020617,1.890001 -0.343538,0 -0.693539,-0.02585 -1.030614,-0.07 -1.832928,-0.248772 -3.512928,-1.152311 -4.728775,-2.539388 -1.2147694,-1.393539 -1.8835386,-3.175846 -1.8835386,-5.020615 0,-0.35 0.019384,-0.693539 0.070003,-1.037077 0.3564612,-2.654615 2.0870766,-4.925846 4.5435396,-5.9887697 v 0 c 0.323076,-0.136769 0.697846,0.01292 0.836767,0.3338467 v 0 c 0.138924,0.322 -0.0075,0.696769 -0.327384,0.836768 v 0 c -2.049383,0.885231 -3.4935378,2.781693 -3.7929227,4.989386 -0.037695,0.286461 -0.057079,0.572923 -0.057079,0.865846 0,1.533538 0.5600007,3.022923 1.5712317,4.180615 1.012307,1.157692 2.412307,1.909385 3.932922,2.112923 0.286463,0.03769 0.579386,0.06354 0.865846,0.06354 1.540001,-0.0064 3.022923,-0.56 4.180616,-1.578769 1.15877,-1.011231 1.909385,-2.411231 2.119385,-3.931846 0.0377,-0.286462 0.05708,-0.572924 0.05708,-0.865847 0,-2.392922 -1.36123,-4.594154 -3.499999,-5.676461 z" />
  </g>
  <g
     transform="translate(0,42)"
     id="22-22-system-shutdown"
     style="clip-rule:evenodd;fill-rule:evenodd;stroke-linejoin:round;stroke-miterlimit:1.41421">
    <rect
       style="fill:#5c74ff;fill-opacity:0;stroke-width:0.895715;stroke-miterlimit:1.41421;stroke-dasharray:none"
       id="rect823"
       width="22"
       height="22"
       x="0"
       y="0"
       ry="0.90769231" />
    <path
       style="isolation:isolate;fill:url(#linearGradient990);fill-rule:evenodd;stroke-width:1.20135;fill-opacity:1.0"
       inkscape:connector-curvature="0"
       id="path141"
       d="m 19.5504,5.8787512 v 0 C 19.403132,5.6664924 19.461555,5.3783426 19.679413,5.2348609 v 0 c 0.217859,-0.1434817 0.514832,-0.087752 0.6621,0.1245092 v 0 c 1.204925,1.7585436 1.847552,3.8242104 1.847552,5.9349379 0,2.830508 -1.15259,5.544809 -3.209483,7.545256 -2.053241,2.004005 -4.839175,3.126959 -7.744384,3.126959 -2.9052087,0 -5.6911421,-1.122954 -7.7443832,-3.126959 C 1.4339215,16.839117 0.281331,14.124816 0.281331,11.294308 v 0 c 0,-2.8305087 1.1525905,-5.5448089 3.2094838,-7.5452569 C 5.5440559,1.7497894 8.3299893,0.622092 11.235198,0.622092 c 1.628475,0 3.243562,0.3521831 4.715031,1.0399478 v 0 c 0.236117,0.109094 0.337136,0.3865716 0.223947,0.6166175 v 0 c -0.11319,0.2300449 -0.396774,0.3284667 -0.634108,0.2181872 v 0 c -1.342457,-0.6213604 -2.813927,-0.9462698 -4.30487,-0.9462698 -2.6532697,0 -5.1957836,1.0245327 -7.072546,2.8530389 C 2.2858886,6.2321198 1.2343174,8.7092602 1.2343174,11.294308 v 0 c 0,2.585047 1.0515712,5.062188 2.9283346,6.890694 1.8767624,1.828506 4.4192763,2.853039 7.072546,2.853039 2.65327,0 5.195785,-1.024533 7.072547,-2.853039 1.876762,-1.828506 2.928334,-4.305647 2.928334,-6.890694 0,-1.9304853 -0.585423,-3.8147245 -1.685679,-5.4155568 z M 11.333783,4.5245654 v 0 c 0.275064,0 0.497792,0.2170017 0.497792,0.4849935 v 6.7365401 c 0,0.266805 -0.222728,0.484992 -0.497792,0.484992 v 0 c -0.275064,0 -0.497793,-0.218187 -0.497793,-0.484992 V 5.0095589 c 0,-0.2679918 0.222729,-0.4849935 0.497793,-0.4849935 z m 2.142089,3.187435 v 0 C 13.231236,7.5910487 13.132651,7.3005277 13.256795,7.0621816 v 0 c 0.124144,-0.2383461 0.422333,-0.3343961 0.666969,-0.2134443 v 0 c 0.985848,0.4849926 1.817125,1.2273048 2.395245,2.1439289 0.581773,0.916625 0.890915,1.9696168 0.890915,3.0463248 0,0.266806 -0.01947,0.528868 -0.05477,0.79093 -0.193519,1.392132 -0.900651,2.672797 -1.986302,3.598908 -1.090518,0.927297 -2.485311,1.436006 -3.928786,1.440749 -0.268979,0 -0.542826,-0.01897 -0.806935,-0.05336 C 8.999392,17.627675 7.684928,16.938725 6.7343761,15.880989 5.7826065,14.81851 5.2604722,13.460768 5.2604722,12.053221 c 0,-0.266805 0.014605,-0.528868 0.054769,-0.790929 0.278716,-2.0229785 1.6333442,-3.7542493 3.5551389,-4.5641521 v 0 c 0.2531566,-0.1043503 0.5464765,0.00949 0.6547975,0.2549477 v 0 c 0.1083219,0.2442754 -0.00612,0.5300533 -0.256807,0.6379611 v 0 C 7.6654548,8.2645846 6.534772,9.7100765 6.3010895,11.393915 c -0.030424,0.218188 -0.04503,0.436375 -0.04503,0.659306 0,1.169201 0.4381547,2.304013 1.2304844,3.187435 0.7911128,0.882236 1.8864995,1.454979 3.0768191,1.610319 0.223946,0.02964 0.45276,0.04862 0.676706,0.04862 1.204926,-0.0047 2.364819,-0.426889 3.271554,-1.20359 0.90552,-0.770771 1.493377,-1.837993 1.657685,-2.997707 0.03043,-0.218187 0.04503,-0.436374 0.04503,-0.659305 0,-1.823763 -1.066176,-3.5028584 -2.738468,-4.3269909 z" />
  </g>
  <g
     transform="translate(22)"
     id="system-log-out"
     style="clip-rule:evenodd;fill-rule:evenodd;stroke-linejoin:round;stroke-miterlimit:1.41421">
    <rect
       style="fill:#ffdeff;fill-opacity:0.0144927;stroke-width:1.00855;stroke-miterlimit:1.41421;stroke-dasharray:none"
       id="rect817-28"
       width="32"
       height="32"
       x="0"
       y="0"
       ry="1.0085471" />
    <path
       sodipodi:nodetypes="ccccccscsccccsccccccsccccscscccccccccccccccccccccccccccccccccccccccccccccccccccccsccc"
       style="isolation:isolate;fill:url(#_lgradient_14);fill-rule:evenodd;stroke-width:1.07692"
       inkscape:connector-curvature="0"
       id="path152"
       d="m 26.436901,9.0117704 v 0 c -0.188462,-0.278924 -0.115236,-0.658001 0.163686,-0.8464622 v 0 c 0.278922,-0.1873839 0.658,-0.1141538 0.846461,0.1647699 v 0 c 1.54,2.3067679 2.361695,5.0152309 2.361695,7.7850769 0,3.713231 -1.473234,7.273539 -4.103078,9.896923 -2.623383,2.629846 -6.183687,4.103076 -9.896922,4.103076 -3.71323,0 -7.2735381,-1.47323 -9.8969232,-4.103076 C 3.2819736,23.388694 1.8087433,19.828386 1.8087433,16.115155 v 0 c 0,-3.713231 1.4732303,-7.2735396 4.1030765,-9.8969243 C 8.5352049,3.59377 12.095513,2.1151544 15.808743,2.1151544 c 2.081696,0 4.145078,0.4630767 6.026461,1.3633845 v 0 c 0.301539,0.1443081 0.429695,0.5072309 0.285383,0.8098466 v 0 C 21.976283,4.5910011 21.61336,4.7191543 21.311823,4.5737697 v 0 c -1.716619,-0.8152305 -3.597513,-1.241692 -5.502592,-1.241692 -3.390156,0 -6.6413859,1.3461541 -9.0386163,3.7444617 C 4.3723073,9.4737694 3.0256669,12.725 3.0256669,16.115155 v 0 c 0,3.390153 1.3461533,6.641384 3.7444608,9.038615 2.3972312,2.398308 5.6484623,3.744461 9.0386153,3.744461 3.390156,0 6.641383,-1.346153 9.038617,-3.744461 2.398305,-2.397231 3.744462,-5.648462 3.744462,-9.038615 0,-2.531847 -0.74954,-5.003385 -2.154921,-7.1033846 z M 12.50582,10.031616 c 0.05061,0.07 0.102306,0.133538 0.165846,0.190615 l 0.0064,0.0065 2.954,2.955078 c 0.248771,0.247691 0.248771,0.651537 0,0.89923 l -3.972769,3.97277 v 0 c -0.24877,0.249846 -0.652616,0.249846 -0.900308,0 v 0 c -0.247656,-0.248773 -0.245502,-0.653695 0.0033,-0.903543 v 0 l 3.519376,-3.51942 -2.500615,-2.500615 c -0.165845,-0.159385 -0.305844,-0.343538 -0.426461,-0.540616 -0.121692,-0.203537 -0.18523,-0.439384 -0.191692,-0.6741516 0,-0.395232 0.222923,-0.758154 0.566462,-0.94877 0.305846,-0.159385 0.649384,-0.235847 0.999384,-0.216462 h 0.07 l 7.750617,0.235847 h 0.0063 c 0.502922,0.01939 0.979999,0.222922 1.336461,0.579384 0.362923,0.350001 0.585845,0.8206156 0.617076,1.3235376 v 0.0065 l 0.477076,8.08123 0.0063,0.159385 c 0.01939,0.324154 -0.05061,0.65477 -0.209999,0.947693 -0.184155,0.331692 -0.534154,0.541692 -0.916463,0.547076 -0.23477,-0.0054 -0.470616,-0.07539 -0.667692,-0.197075 -0.197078,-0.114156 -0.382306,-0.260616 -0.540615,-0.426463 l -2.163521,-2.163542 -5.062615,5.05723 c -0.497538,0.496463 -1.304154,0.496463 -1.800616,0 L 9.406385,20.678078 v 0 C 9.1608467,20.428231 9.1619233,20.025463 9.4096191,19.77777 v 0 c 0.2476923,-0.247692 0.6515379,-0.249846 0.9013839,-0.0032 v 0 l 1.771539,1.775846 c 0.247692,0.248769 0.650459,0.249847 0.899231,0.001 l 5.062614,-5.056154 c 0.24769,-0.24877 0.651539,-0.24877 0.899229,0 l 2.617999,2.616924 c 0.0063,0.0065 0.0063,0.0065 0.01296,0.01292 0.04418,0.04415 0.09478,0.08939 0.14646,0.133538 v -0.05708 -0.01939 l -0.0063,-0.146432 -0.471693,-8.062922 c -0.01184,-0.190643 -0.101234,-0.361874 -0.234784,-0.495412 -0.133538,-0.134616 -0.312307,-0.21 -0.502925,-0.216461 L 12.77304,10.025142 h -0.07646 c -0.01184,0 -0.01831,0 -0.03122,-0.0065 -0.05061,0 -0.102308,0 -0.159383,0.01293 z" />
  </g>
  <g
     transform="matrix(-1,0,0,1,22,10)"
     id="22-22-system-log-out"
     style="clip-rule:evenodd;fill-rule:evenodd;stroke-linejoin:round;stroke-miterlimit:1.41421">
    <rect
       style="fill:#cfffff;fill-opacity:0;stroke-width:1.00001;stroke-miterlimit:1.41421;stroke-dasharray:none"
       id="rect817-20"
       width="22"
       height="22"
       x="0"
       y="0"
       ry="0.99578059" />
    <path
       style="isolation:isolate;fill:url(#linearGradient980);fill-rule:evenodd;stroke-width:1.21001;fill-opacity:1.0"
       inkscape:connector-curvature="0"
       id="path163"
       d="m 2.564566,5.485413 v 0 C 2.7121287,5.2705122 2.6535885,4.9787757 2.4352953,4.8335081 v 0 C 2.2170002,4.6882404 1.9194345,4.7446635 1.7718718,4.959567 v 0 c -1.20733374,1.7804335 -1.85124506,3.8718113 -1.85124506,6.008812 0,2.86574 1.15489426,5.613826 3.21589806,7.639173 2.0573451,2.028949 4.848848,3.165881 7.7598632,3.165881 2.911016,0 5.702518,-1.136932 7.759864,-3.165881 2.061004,-2.025347 3.215898,-4.773433 3.215898,-7.639173 v 0 c 0,-2.8657413 -1.154894,-5.6138269 -3.215898,-7.639175 -2.057346,-2.0241469 -4.848848,-3.165881 -7.759864,-3.165881 -1.6317299,0 -3.2500446,0.35656681 -4.7244552,1.0528932 v 0 C 5.9353439,1.3266672 5.8341226,1.6075986 5.9475388,1.8405079 v 0 c 0.1134162,0.2329093 0.3975668,0.3325553 0.635375,0.220903 v 0 C 7.9280546,1.4323172 9.4024652,1.1033628 10.896388,1.1033628 c 2.658573,0 5.20617,1.0372852 7.086684,2.8885512 1.880514,1.8512661 2.934187,4.3592399 2.934187,6.976465 v 0 c 0,2.617223 -1.053673,5.125197 -2.934187,6.976463 -1.880514,1.851266 -4.428111,2.888552 -7.086684,2.888552 -2.6585727,0 -5.2061695,-1.037286 -7.0866832,-2.888552 -1.8805138,-1.851266 -2.93418684,-4.35924 -2.93418684,-6.976463 0,-1.954515 0.58659314,-3.8622078 1.68904804,-5.482966 z m 10.920882,0.7875688 c -0.04024,0.054025 -0.07927,0.1032477 -0.129269,0.147669 0,0 -0.0048,0.00477 -0.0048,0.00477 l -2.317106,2.2798665 c -0.193905,0.1920896 -0.193905,0.5030356 0,0.6951252 l 3.114678,3.0662355 v 0 c 0.196344,0.192089 0.512202,0.192089 0.706107,0 v 0 c 0.193905,-0.193291 0.192686,-0.505437 -0.0025,-0.697527 v 0 L 12.093966,9.0534555 14.054969,7.1229524 c 0.129269,-0.1224573 0.239027,-0.2653244 0.33415,-0.4177955 0.0939,-0.1572738 0.143905,-0.3385584 0.148783,-0.521044 0,-0.3037418 -0.174393,-0.583473 -0.443908,-0.7311421 C 13.854966,5.3305136 13.585449,5.2716863 13.311056,5.2860931 h -0.05488 L 7.1792635,5.4673776 c 0,0 0,0 -0.00485,0 -0.3939081,0.014407 -0.7683032,0.1716806 -1.047576,0.4466089 -0.2841497,0.2701264 -0.4585426,0.6338966 -0.4841527,1.0216783 0,0 0,0 0,0.00477 l -0.3743951,6.2381182 -0.00485,0.122458 c -0.014634,0.250917 0.040245,0.506637 0.1646365,0.732343 0.1451242,0.254518 0.4195183,0.416594 0.7183032,0.422597 0.1853678,-0.006 0.3695173,-0.06003 0.5243971,-0.152471 0.1548808,-0.08884 0.298785,-0.201694 0.4243961,-0.328954 l 1.6963652,-1.669981 3.9683472,3.903026 c 0.38903,0.382979 1.021965,0.382979 1.410996,-0.0012 l 1.743864,-1.716832 v 0 c 0.193905,-0.192089 0.192686,-0.504236 -0.0025,-0.695125 v 0 c -0.193906,-0.190889 -0.509763,-0.192089 -0.704888,-0.0024 v 0 l -1.389043,1.371041 c -0.195126,0.19209 -0.510983,0.19329 -0.706108,0.0012 L 9.143922,11.2612 c -0.1951244,-0.190889 -0.5109821,-0.190889 -0.7061073,0 l -2.0512481,2.020545 c -0.00485,0.0048 -0.00485,0.0048 -0.00976,0.0096 -0.035369,0.03482 -0.075614,0.06843 -0.1146364,0.103248 0,-0.01441 0,-0.03001 0,-0.04442 0,-0.0048 0,-0.0096 0,-0.01441 l 0.00485,-0.112853 0.368298,-6.2225107 C 6.6462924,6.8527432 6.7158055,6.7194808 6.8206844,6.6162322 6.9255642,6.5141848 7.0645905,6.4541564 7.2145926,6.4493545 L 13.27569,6.2681249 h 0.05975 c 0.01097,0 0.01585,0 0.02561,-0.00477 0.04024,0 0.07927,0 0.124392,0.00961 z" />
  </g>
</svg>
