<?xml version="1.0" encoding="UTF-8" standalone="no"?>
<svg
   xmlns:dc="http://purl.org/dc/elements/1.1/"
   xmlns:cc="http://creativecommons.org/ns#"
   xmlns:rdf="http://www.w3.org/1999/02/22-rdf-syntax-ns#"
   xmlns:svg="http://www.w3.org/2000/svg"
   xmlns="http://www.w3.org/2000/svg"
   xmlns:sodipodi="http://sodipodi.sourceforge.net/DTD/sodipodi-0.dtd"
   xmlns:inkscape="http://www.inkscape.org/namespaces/inkscape"
   version="1.1"
   id="svg2"
   viewBox="0 0 54 64"
   inkscape:version="0.92.3 (2405546, 2018-03-11)"
   sodipodi:docname="touchpad.svgz">
  <sodipodi:namedview
     pagecolor="#ffffff"
     bordercolor="#666666"
     borderopacity="1"
     objecttolerance="10"
     gridtolerance="10"
     guidetolerance="10"
     inkscape:pageopacity="0"
     inkscape:pageshadow="2"
     inkscape:window-width="1920"
     inkscape:window-height="1011"
     id="namedview20"
     showgrid="false"
     inkscape:zoom="1"
     inkscape:cx="-243.82312"
     inkscape:cy="57.680601"
     inkscape:window-x="0"
     inkscape:window-y="0"
     inkscape:window-maximized="1"
     inkscape:current-layer="svg2" />
  <metadata
     id="metadata32">
    <rdf:RDF>
      <cc:Work
         rdf:about="">
        <dc:format>image/svg+xml</dc:format>
        <dc:type
           rdf:resource="http://purl.org/dc/dcmitype/StillImage" />
        <dc:title />
      </cc:Work>
    </rdf:RDF>
  </metadata>
  <defs
     id="defs3051">
    <style
       type="text/css"
       id="current-color-scheme">
      .ColorScheme-Text {
        color:#31363b;
      }
      .ColorScheme-Background {
        color:#eff0f1;
      }
      .ColorScheme-Highlight {
        color:#3daee9;
      }
      .ColorScheme-ViewText {
        color:#31363b;
      }
      .ColorScheme-ViewBackground {
        color:#fcfcfc;
      }
      .ColorScheme-ViewHover {
        color:#93cee9;
      }
      .ColorScheme-ViewFocus{
        color:#3daee9;
      }
      .ColorScheme-ButtonText {
        color:#31363b;
      }
      .ColorScheme-ButtonBackground {
        color:#eff0f1;
      }
      .ColorScheme-ButtonHover {
        color:#93cee9;
      }
      .ColorScheme-ButtonFocus{
        color:#3daee9;
      }
      .ColorScheme-NegativeText {
        color:#da4453;
      }
      </style>
  </defs>
  <g
     style="clip-rule:evenodd;fill-rule:evenodd;stroke-linejoin:round;stroke-miterlimit:1.41420996"
     id="22-22-touchpad_enabled"
     transform="translate(0,42)">
    <path
       inkscape:connector-curvature="0"
       id="path2-1"
       style="fill:#C3C7D1"
       d="M 17,20 H 5 C 3.344,20 2,18.656 2,17 V 5 C 2,3.344 3.344,2 5,2 h 12 c 1.656,0 3,1.344 3,3 v 12 c 0,1.656 -1.344,3 -3,3 z M 10,19 V 16 H 3 v 1 c 0,1.104 0.896,2 2,2 z m 9,-3 h -7 v 3 h 5 c 1.104,0 2,-0.896 2,-2 z m 0,-1 V 5 C 19,3.896 18.104,3 17,3 H 5 C 3.896,3 3,3.896 3,5 v 10 z" />
    <rect
       y="0"
       x="0"
       height="22"
       width="22"
       id="rect822-1"
       style="fill:#ffffff;fill-opacity:0;stroke-width:1.28277922" />
  </g>
  <g
     style="clip-rule:evenodd;fill-rule:evenodd;stroke-linejoin:round;stroke-miterlimit:1.41420996"
     id="22-22-touchpad_disabled"
     transform="translate(0,10)">
    <path
       inkscape:connector-curvature="0"
       id="path2-1-0"
       style="fill:#C3C7D1"
       d="M 17,20 H 5 C 3.344,20 2,18.656 2,17 V 5 C 2,3.344 3.344,2 5,2 h 12 c 1.656,0 3,1.344 3,3 v 12 c 0,1.656 -1.344,3 -3,3 z M 10,19 V 16 H 3 v 1 c 0,1.104 0.896,2 2,2 z m 9,-3 h -7 v 3 h 5 c 1.104,0 2,-0.896 2,-2 z m 0,-1 V 5 C 19,3.896 18.104,3 17,3 H 5 C 3.896,3 3,3.896 3,5 v 10 z" />
    <path
       inkscape:connector-curvature="0"
       id="path4-9-9"
       style="fill:#ff4d62;fill-opacity:1"
       d="M 8.879,5.429 11,7.55 13.121,5.429 14.536,6.843 12.414,8.964 14.536,11.086 13.121,12.5 11,10.379 8.879,12.5 7.464,11.086 9.586,8.964 7.464,6.843 Z" />
    <rect
       y="0"
       x="0"
       height="22"
       width="22"
       id="rect822-1-4"
       style="fill:#ffffff;fill-opacity:0;stroke-width:1.28277922" />
  </g>
  <g
     style="clip-rule:evenodd;fill-rule:evenodd;stroke-linejoin:round;stroke-miterlimit:1.41420996"
     id="touchpad_disabled"
     transform="translate(22)">
    <path
       inkscape:connector-curvature="0"
       id="path2"
       style="fill:#C3C7D1"
       d="M 4,22 V 6 C 4,4.344 5.344,3 7,3 h 18 c 1.656,0 3,1.344 3,3 v 20 c 0,1.656 -1.344,3 -3,3 H 7 C 5.344,29 4,27.656 4,26 v -3 z m 11,6 V 23 H 5 v 3 c 0,1.104 0.896,2 2,2 z M 27,23 H 17 v 5 h 8 c 1.104,0 2,-0.896 2,-2 z m 0,-1 V 6 C 27,4.896 26.104,4 25,4 H 7 C 5.896,4 5,4.896 5,6 V 22 Z M 12.515,8 16.05,11.536 19.586,8 21,9.414 17.464,12.95 21,16.485 19.586,17.899 16.05,14.364 12.515,17.899 11.101,16.485 14.636,12.95 11.101,9.414 Z" />
    <rect
       y="0"
       x="0"
       height="32"
       width="32"
       id="rect817"
       style="fill:#ffffff;fill-opacity:0;stroke-width:0.68962526" />
  </g>
  <g
     style="clip-rule:evenodd;fill-rule:evenodd;stroke-linejoin:round;stroke-miterlimit:1.41420996"
     id="touchpad_enabled"
     transform="translate(22,32)">
    <path
       inkscape:connector-curvature="0"
       id="path2-4"
       style="fill:#C3C7D1"
       d="M 4,22 V 6 C 4,4.344 5.344,3 7,3 h 18 c 1.656,0 3,1.344 3,3 v 20 c 0,1.656 -1.344,3 -3,3 H 7 C 5.344,29 4,27.656 4,26 v -3 z m 11,6 V 23 H 5 v 3 c 0,1.104 0.896,2 2,2 z M 27,23 H 17 v 5 h 8 c 1.104,0 2,-0.896 2,-2 z m 0,-1 V 6 C 27,4.896 26.104,4 25,4 H 7 C 5.896,4 5,4.896 5,6 v 16 z"
       sodipodi:nodetypes="csssssssscccccssccccssccsssscc" />
    <rect
       y="0"
       x="0"
       height="32"
       width="32"
       id="rect817-3"
       style="fill:#ffffff;fill-opacity:0;stroke-width:0.68962526" />
  </g>
</svg>
