<?xml version="1.0" encoding="UTF-8" standalone="no"?>
<!-- Created with Inkscape (http://www.inkscape.org/) -->

<svg
   xmlns:dc="http://purl.org/dc/elements/1.1/"
   xmlns:cc="http://creativecommons.org/ns#"
   xmlns:rdf="http://www.w3.org/1999/02/22-rdf-syntax-ns#"
   xmlns:svg="http://www.w3.org/2000/svg"
   xmlns="http://www.w3.org/2000/svg"
   xmlns:xlink="http://www.w3.org/1999/xlink"
   xmlns:sodipodi="http://sodipodi.sourceforge.net/DTD/sodipodi-0.dtd"
   xmlns:inkscape="http://www.inkscape.org/namespaces/inkscape"
   version="1.1"
   width="32"
   height="32"
   viewBox="0 0 32 32"
   id="svg"
   inkscape:version="0.92.3 (2405546, 2018-03-11)"
   sodipodi:docname="video.svg">
  <sodipodi:namedview
     pagecolor="#ffffff"
     bordercolor="#666666"
     borderopacity="1"
     objecttolerance="10"
     gridtolerance="10"
     guidetolerance="10"
     inkscape:pageopacity="0"
     inkscape:pageshadow="2"
     inkscape:window-width="1920"
     inkscape:window-height="1009"
     id="namedview13"
     showgrid="true"
     inkscape:zoom="1"
     inkscape:cx="9.4323953"
     inkscape:cy="15.464608"
     inkscape:window-x="0"
     inkscape:window-y="0"
     inkscape:window-maximized="1"
     inkscape:current-layer="svg"
     inkscape:snap-bbox="true"
     inkscape:snap-bbox-midpoints="false"
     fit-margin-top="0"
     fit-margin-left="0"
     fit-margin-right="0"
     fit-margin-bottom="0"
     inkscape:measure-start="8,25"
     inkscape:measure-end="8,10"
     inkscape:bbox-nodes="true">
    <inkscape:grid
       type="xygrid"
       id="grid2990"
       empspacing="4"
       visible="true"
       enabled="true"
       snapvisiblegridlinesonly="true"
       originx="4"
       originy="3" />
  </sodipodi:namedview>
  <defs
     id="defs81">
    <style
       type="text/css"
       id="current-color-scheme">
      .ColorScheme-Text {
        color:#7B7C7E;
      }
      .ColorScheme-Background{
        color:#EFF0F1;
      }
      .ColorScheme-Highlight{
        color:#3DAEE6;
      }
      .ColorScheme-ViewText {
        color:#7B7C7E;
      }
      .ColorScheme-ViewBackground{
        color:#FCFCFC;
      }
      .ColorScheme-ViewHover {
        color:#3DAEE6;
      }
      .ColorScheme-ViewFocus{
        color:#1E92FF;
      }
      .ColorScheme-ButtonText {
        color:#7B7C7E;
      }
      .ColorScheme-ButtonBackground{
        color:#EFF0F1;
      }
      .ColorScheme-ButtonHover {
        color:#3DAEE6;
      }
      .ColorScheme-ButtonFocus{
        color:#1E92FF;
      }
</style>
    <linearGradient
       inkscape:collect="always"
       xlink:href="#linearGradient7992"
       id="linearGradient7865"
       gradientUnits="userSpaceOnUse"
       gradientTransform="matrix(1.2500008,0,0,1.2000018,-100.14269,-103.49382)"
       x1="401.57144"
       y1="535.79797"
       x2="401.57144"
       y2="520.79797" />
    <linearGradient
       id="linearGradient7992">
      <stop
         id="stop7994"
         offset="0"
         style="stop-color:#31363b;stop-opacity:0;" />
      <stop
         id="stop7996"
         offset="1"
         style="stop-color:#31363b;stop-opacity:0.12612613;" />
    </linearGradient>
    <linearGradient
       inkscape:collect="always"
       xlink:href="#linearGradient7992-0"
       id="linearGradient7865-9"
       gradientUnits="userSpaceOnUse"
       gradientTransform="matrix(1.2500008,0,0,1.2000018,-100.14269,-103.49382)"
       x1="401.57144"
       y1="535.79797"
       x2="401.57144"
       y2="520.79797" />
    <linearGradient
       id="linearGradient7992-0">
      <stop
         id="stop7994-2"
         offset="0"
         style="stop-color:#31363b;stop-opacity:0;" />
      <stop
         id="stop7996-1"
         offset="1"
         style="stop-color:#31363b;stop-opacity:0.12612613;" />
    </linearGradient>
    <linearGradient
       inkscape:collect="always"
       xlink:href="#linearGradient7992-0-8"
       id="linearGradient7865-9-1"
       gradientUnits="userSpaceOnUse"
       gradientTransform="matrix(1.2500008,0,0,1.2000018,-100.14269,-103.49382)"
       x1="401.57144"
       y1="535.79797"
       x2="401.57144"
       y2="520.79797" />
    <linearGradient
       id="linearGradient7992-0-8">
      <stop
         id="stop7994-2-5"
         offset="0"
         style="stop-color:#31363b;stop-opacity:0;" />
      <stop
         id="stop7996-1-6"
         offset="1"
         style="stop-color:#31363b;stop-opacity:0.12612613;" />
    </linearGradient>
    <linearGradient
       inkscape:collect="always"
       xlink:href="#linearGradient7992-0-8"
       id="linearGradient3144"
       gradientUnits="userSpaceOnUse"
       gradientTransform="matrix(1.2500008,0,0,1.2000018,-100.14269,-103.49382)"
       x1="401.57144"
       y1="535.79797"
       x2="401.57144"
       y2="520.79797" />
    <linearGradient
       inkscape:collect="always"
       xlink:href="#linearGradient7992-0-8"
       id="linearGradient3147"
       gradientUnits="userSpaceOnUse"
       gradientTransform="matrix(0.93750184,0,0,0.90000254,603.47407,1318.8338)"
       x1="401.57144"
       y1="535.79797"
       x2="401.57144"
       y2="520.79797" />
  </defs>
  <metadata
     id="metadata34">
    <rdf:RDF>
      <cc:Work
         rdf:about="">
        <dc:format>image/svg+xml</dc:format>
        <dc:type
           rdf:resource="http://purl.org/dc/dcmitype/StillImage" />
        <dc:title />
      </cc:Work>
    </rdf:RDF>
  </metadata>
  <rect
     style="clip-rule:evenodd;fill:#ffffff;fill-opacity:0;fill-rule:evenodd;stroke-width:0.87144214;stroke-linejoin:round;stroke-miterlimit:1.41420996"
     id="rect818-0-3"
     width="32"
     height="32"
     x="73.136002"
     y="3.05" />
  <g
     id="22-22-video-display-brightness"
     transform="translate(-22,10)">
    <path
       id="rect858"
       d="m 2,2.000034 v 11 1 3 h 6 v 2 H 6 v 1 h 10 v -1 h -2 v -2 h 6 v -3 -1 -11 z m 1,1 h 16 v 10 H 3 Z m 0,11 h 16 v 2 H 3 Z m 6,3 h 4 v 2 H 9 Z"
       style="opacity:1;fill:#C3C7D1;fill-opacity:1;stroke-width:1.00157475;stroke-miterlimit:4;stroke-dasharray:none"
       inkscape:connector-curvature="0" />
    <rect
       y="-3.3227539e-07"
       x="0"
       height="22"
       width="22"
       id="rect876"
       style="opacity:1;fill:#ff0000;fill-opacity:0;stroke-width:1.00157475;stroke-miterlimit:4;stroke-dasharray:none" />
    <path
       sodipodi:nodetypes="cssscccccscc"
       style="clip-rule:evenodd;fill:#C3C7D1;fill-rule:evenodd;stroke-linejoin:round;stroke-miterlimit:1.41420996"
       d="M 10.974609,4 C 8.778609,4.014 7,5.801 7,8 c 0,2.208 1.792,4 4,4 2.208,0 4,-1.792 4,-4 0,-2.199 -1.778609,-3.986 -3.974609,-4 z m 0.0059,1 H 11 v 6 C 9.344,11 8,9.656 8,8 8,6.351 9.333469,5.011 10.980469,5 Z"
       id="path848"
       inkscape:connector-curvature="0" />
  </g>
  <rect
     y="-10"
     x="-57"
     height="22"
     width="22"
     id="rect850"
     style="clip-rule:evenodd;fill:#ffffff;fill-opacity:0;fill-rule:evenodd;stroke-width:0.77324283;stroke-linejoin:round;stroke-miterlimit:1.41420996" />
  <g
     id="video-display-brightness">
    <path
       inkscape:connector-curvature="0"
       id="path3-5-5"
       d="M 16,17.449 16.45,17 l 1,-1 h 1.414 l -1,1 -1.157,1.156 c -0.39,0.391 -1.024,0.391 -1.414,0 L 14.136,17 l -1,-1 H 14.55 Z M 14.136,17 H 12.5 c -0.552,0 -1,-0.449 -1,-1 v -1.636 l 1,1 V 16 h 0.636 z m 5.364,0 h -1.636 l 1,-1 H 19.5 v -0.636 l 1,-1 V 16 c 0,0.519 -0.396,0.946 -1,1 z M 16,9.5 c 1.656,0 3,1.344 3,3 0,1.655 -1.344,3 -3,3 -1.656,0 -3,-1.345 -3,-3 0,-1.656 1.344,-3 3,-3 z M 19.5,9 H 18.864 17.45 L 16.45,8 16,7.55 14.55,9 H 12.5 v 2.05 l -1,1 -0.45,0.45 1.45,1.449 v 1.415 l -1,-1 -1.157,-1.157 c -0.39,-0.391 -0.39,-1.024 0,-1.415 L 11.5,10.636 V 9 c 0,-0.552 0.448,-1 1,-1 h 1.636 l 1.157,-1.157 c 0.39,-0.391 1.024,-0.391 1.414,0 L 17.864,8 H 19.5 c 0.552,0 1,0.448 1,1 v 1.636 l 1.157,1.156 c 0.39,0.391 0.39,1.024 0,1.415 l -1.157,1.157 -1,1 v -1.415 l 1.45,-1.449 -0.45,-0.45 -1,-1 z m -3.513,1.5 C 14.889,10.507 14,11.4 14,12.5 c 0,1.103 0.896,2 2,2 v -4 z"
       style="clip-rule:evenodd;fill:#C3C7D1;fill-opacity:1;fill-rule:evenodd;stroke-linejoin:round;stroke-miterlimit:1.41420996" />
    <rect
       style="clip-rule:evenodd;fill:#ffffff;fill-opacity:0;fill-rule:evenodd;stroke-width:1.05890942;stroke-linejoin:round;stroke-miterlimit:1.41420996"
       id="rect844-0-1-6"
       width="32"
       height="32"
       x="0"
       y="0" />
    <g
       style="fill:#C3C7D1;fill-opacity:1"
       transform="matrix(3.7795276,0,0,3.7795276,2.824147e-8,-1089.5196)"
       id="g894">
      <path
         inkscape:connector-curvature="0"
         style="opacity:1;fill:#C3C7D1;fill-opacity:1;stroke-width:0.26499999;stroke-miterlimit:4;stroke-dasharray:none"
         d="m 0.79375,289.06247 v 0.52917 0.26458 3.96875 0.26459 0.79375 h 2.6458333 v 0.79375 h -0.79375 v 0.26458 h 0.79375 0.2645833 1.0583333 0.2645834 0.79375 v -0.26458 h -0.79375 v -0.79375 h 2.6458333 v -0.79375 -0.26459 -3.96875 -0.26458 -0.52917 z m 0.2645833,0.32453 h 6.3499999 v 4.43797 H 1.0583333 Z m 0,4.70256 h 6.3499999 v 0.52916 H 5.0270833 4.7624999 3.7041666 3.4395833 1.0583333 Z m 2.6458333,0.79375 h 1.0583333 v 0.79375 H 3.7041666 Z"
         id="rect825"
         sodipodi:nodetypes="cccccccccccccccccccccccccccccccccccccccccccc" />
    </g>
  </g>
  <rect
     style="opacity:1;fill:#800000;fill-opacity:0;stroke-width:1.15651894;stroke-miterlimit:4;stroke-dasharray:none"
     id="rect843"
     width="32"
     height="32"
     x="42"
     y="6.2499995" />
</svg>
