<?xml version="1.0" encoding="UTF-8" standalone="no"?>
<!-- Created with Inkscape (http://www.inkscape.org/) -->

<svg
   xmlns:dc="http://purl.org/dc/elements/1.1/"
   xmlns:cc="http://creativecommons.org/ns#"
   xmlns:rdf="http://www.w3.org/1999/02/22-rdf-syntax-ns#"
   xmlns:svg="http://www.w3.org/2000/svg"
   xmlns="http://www.w3.org/2000/svg"
   xmlns:sodipodi="http://sodipodi.sourceforge.net/DTD/sodipodi-0.dtd"
   xmlns:inkscape="http://www.inkscape.org/namespaces/inkscape"
   width="22"
   height="22"
   viewBox="0 0 22 22"
   id="svg2"
   version="1.1"
   inkscape:version="0.92.3 (2405546, 2018-03-11)"
   sodipodi:docname="video-card.svgz">
  <sodipodi:namedview
     pagecolor="#ffffff"
     bordercolor="#666666"
     borderopacity="1"
     objecttolerance="10"
     gridtolerance="10"
     guidetolerance="10"
     inkscape:pageopacity="0"
     inkscape:pageshadow="2"
     inkscape:window-width="1920"
     inkscape:window-height="1011"
     id="namedview13"
     showgrid="true"
     inkscape:zoom="16"
     inkscape:cx="-10.580949"
     inkscape:cy="2.5904746"
     inkscape:window-x="0"
     inkscape:window-y="0"
     inkscape:window-maximized="1"
     inkscape:current-layer="layer1"
     showguides="false"
     inkscape:guide-bbox="true"
     inkscape:snap-bbox="true"
     inkscape:bbox-nodes="true">
    <inkscape:grid
       type="xygrid"
       id="grid819" />
    <sodipodi:guide
       position="5,20"
       orientation="0,1"
       id="guide821"
       inkscape:locked="false" />
    <sodipodi:guide
       position="2,13"
       orientation="1,0"
       id="guide823"
       inkscape:locked="false" />
    <sodipodi:guide
       position="20,12"
       orientation="1,0"
       id="guide825"
       inkscape:locked="false" />
    <sodipodi:guide
       position="15,2"
       orientation="0,1"
       id="guide827"
       inkscape:locked="false" />
  </sodipodi:namedview>
  <defs
     id="defs4">
    <style
       id="current-color-scheme"
       type="text/css">
      .ColorScheme-Text {
        color:#31363b;
      }
      </style>
  </defs>
  <metadata
     id="metadata7">
    <rdf:RDF>
      <cc:Work
         rdf:about="">
        <dc:format>image/svg+xml</dc:format>
        <dc:type
           rdf:resource="http://purl.org/dc/dcmitype/StillImage" />
        <dc:title />
      </cc:Work>
    </rdf:RDF>
  </metadata>
  <g
     inkscape:label="Layer 1"
     inkscape:groupmode="layer"
     id="layer1"
     transform="translate(0,-1030.3621)">
    <g
       id="22-22-video-card-inactive"
       transform="translate(0,3.9453125e-5)">
      <path
         id="rect825"
         transform="translate(0,1030.3621)"
         d="M 2,2 V 3 H 4 V 4 5 H 2 v 1 4 h 1 1 v 2 H 3 2 v 1 3 h 1 1 v 1 3 h 1 v -3 h 2 v 2 h 1 10 v -1 -1 h 2 V 16 4 H 5 V 3 2 H 4 Z M 5,5 H 19 V 16 H 5 V 15 10 9 Z M 3,6 H 4 V 9 H 3 Z M 6,6 V 7 H 8 V 6 Z m 7.5,0 A 4.5,4.5 0 0 0 9,10.5 4.5,4.5 0 0 0 13.5,15 4.5,4.5 0 0 0 18,10.5 4.5,4.5 0 0 0 13.5,6 Z m 0,1 A 3.5,3.5 0 0 1 17,10.5 3.5,3.5 0 0 1 13.5,14 3.5,3.5 0 0 1 10,10.5 3.5,3.5 0 0 1 13.5,7 Z M 3,13 h 1 v 2 H 3 Z m 3,1 v 1 h 2 v -1 z m 2,3 h 9 v 1 H 8 Z"
         style="opacity:1;fill:#ff4d62;fill-opacity:1"
         inkscape:connector-curvature="0" />
      <rect
         y="1030.3621"
         x="0"
         height="22"
         width="22"
         id="rect822"
         style="opacity:1;fill:#ff00ff;fill-opacity:0" />
    </g>
  </g>
</svg>
