<?xml version="1.0" encoding="UTF-8" standalone="no"?>
<svg
   xmlns:dc="http://purl.org/dc/elements/1.1/"
   xmlns:cc="http://creativecommons.org/ns#"
   xmlns:rdf="http://www.w3.org/1999/02/22-rdf-syntax-ns#"
   xmlns:svg="http://www.w3.org/2000/svg"
   xmlns="http://www.w3.org/2000/svg"
   xmlns:sodipodi="http://sodipodi.sourceforge.net/DTD/sodipodi-0.dtd"
   xmlns:inkscape="http://www.inkscape.org/namespaces/inkscape"
   viewBox="0 0 22 22"
   id="svg"
   version="1.1"
   inkscape:version="0.92.2 (5c3e80d, 2017-08-06)"
   width="100%"
   height="100%"
   sodipodi:docname="wallet.svgz">
  <defs
     id="defs81">
    <style
       id="current-color-scheme"
       type="text/css">
      .ColorScheme-Text {
        color:#7B7C7E;
      }
      .ColorScheme-Background{
        color:#EFF0F1;
      }
      .ColorScheme-Highlight{
        color:#3DAEE6;
      }
      .ColorScheme-ViewText {
        color:#7B7C7E;
      }
      .ColorScheme-ViewBackground{
        color:#FCFCFC;
      }
      .ColorScheme-ViewHover {
        color:#3DAEE6;
      }
      .ColorScheme-ViewFocus{
        color:#1E92FF;
      }
      .ColorScheme-ButtonText {
        color:#7B7C7E;
      }
      .ColorScheme-ButtonBackground{
        color:#EFF0F1;
      }
      .ColorScheme-ButtonHover {
        color:#3DAEE6;
      }
      .ColorScheme-ButtonFocus{
        color:#1E92FF;
      }
</style>
    <style
       type="text/css"
       id="style3">
      .ColorScheme-Text {
        color:#31363b;
      }
      .ColorScheme-Background {
        color:#eff0f1;
      }
      .ColorScheme-Highlight {
        color:#3daee9;
      }
      .ColorScheme-ViewText {
        color:#31363b;
      }
      .ColorScheme-ViewBackground {
        color:#fcfcfc;
      }
      .ColorScheme-ViewHover {
        color:#93cee9;
      }
      .ColorScheme-ViewFocus{
        color:#3daee9;
      }
      .ColorScheme-ButtonText {
        color:#31363b;
      }
      .ColorScheme-ButtonBackground {
        color:#eff0f1;
      }
      .ColorScheme-ButtonHover {
        color:#93cee9;
      }
      .ColorScheme-ButtonFocus{
        color:#3daee9;
      }
      </style>
  </defs>
  <metadata
     id="metadata34">
    <rdf:RDF>
      <cc:Work
         rdf:about="">
        <dc:format>image/svg+xml</dc:format>
        <dc:type
           rdf:resource="http://purl.org/dc/dcmitype/StillImage" />
        <dc:title></dc:title>
      </cc:Work>
    </rdf:RDF>
  </metadata>
  <sodipodi:namedview
     pagecolor="#ffffff"
     bordercolor="#666666"
     borderopacity="1"
     objecttolerance="10"
     gridtolerance="10000"
     guidetolerance="10"
     inkscape:pageopacity="0"
     inkscape:pageshadow="2"
     inkscape:window-width="1920"
     inkscape:window-height="1017"
     id="namedview32"
     showgrid="true"
     inkscape:zoom="1"
     inkscape:cx="28.850598"
     inkscape:cy="8.831282"
     inkscape:window-x="-8"
     inkscape:window-y="-8"
     inkscape:window-maximized="1"
     inkscape:current-layer="svg"
     borderlayer="true"
     showguides="true"
     inkscape:guide-bbox="true"
     inkscape:snap-bbox="true"
     inkscape:showpageshadow="false" />
  <g
     style="clip-rule:evenodd;fill-rule:evenodd;stroke-linejoin:round;stroke-miterlimit:1.41420996"
     id="wallet-closed"
     transform="translate(22)">
    <path
       id="path2"
       style="fill:#C3C7D1"
       d="M 16.013,6 C 17.111,6.007 18,6.9 18,8 v 3 c 1.104,0 2,0.896 2,2 v 2 c 0,1.104 -0.896,2 -2,2 v 1 c 0,1.104 -0.896,2 -2,2 H 4 C 2.896,20 2,19.104 2,18 v -10.464 0 C 2,7.524 2,7.512 2,7.5 2,6.672 2.672,6 3.5,6 H 16 Z M 3.5,9 C 3.325,9 3.156,8.97 3,8.915 V 18 c 0,0.552 0.448,1 1,1 h 12 c 0.552,0 1,-0.448 1,-1 v -1 h -2 c -1.104,0 -2,-0.896 -2,-2 v -2 c 0,-1.104 0.896,-2 2,-2 h 2 V 10 C 17,9.448 16.552,9 16,9 Z M 18,12 h -3 c -0.552,0 -1,0.448 -1,1 v 2 c 0,0.552 0.448,1 1,1 h 3 c 0.552,0 1,-0.448 1,-1 v -2 c 0,-0.552 -0.448,-1 -1,-1 z m -2,3 h -1 v -2 h 1 z M 3.5,7 C 3.224,7 3,7.224 3,7.5 3,7.776 3.224,8 3.5,8 H 16 c 0.364,0 0.706,0.098 1,0.268 V 8 C 17,7.448 16.552,7 16,7 Z"
       inkscape:connector-curvature="0" />
    <rect
       y="0"
       x="0"
       height="22"
       width="22"
       id="rect817"
       style="fill:#ffffff;fill-opacity:0;stroke-width:0.99906766" />
  </g>
  <g
     style="clip-rule:evenodd;fill-rule:evenodd;stroke-linejoin:round;stroke-miterlimit:1.41420996"
     id="wallet-open">
    <path
       inkscape:connector-curvature="0"
       id="path2-6"
       style="fill:#C3C7D1"
       d="m 16,6 h 0.013 C 17.111,6.007 18,6.9 18,8 v 3 c 1.104,0 2,0.896 2,2 v 2 c 0,1.104 -0.896,2 -2,2 v 1 c 0,1.104 -0.896,2 -2,2 H 4 C 2.896,20 2,19.104 2,18 v -10.464 0 C 2,7.524 2,7.512 2,7.5 2,6.672 2.672,6 3.5,6 H 4 V 2 H 16 Z M 3.5,9 C 3.325,9 3.156,8.97 3,8.915 V 18 c 0,0.552 0.448,1 1,1 h 12 c 0.552,0 1,-0.448 1,-1 v -1 h -2 c -1.104,0 -2,-0.896 -2,-2 v -2 c 0,-1.104 0.896,-2 2,-2 h 2 V 10 C 17,9.448 16.552,9 16,9 Z M 18,12 h -3 c -0.552,0 -1,0.448 -1,1 v 2 c 0,0.552 0.448,1 1,1 h 3 c 0.552,0 1,-0.448 1,-1 v -2 c 0,-0.552 -0.448,-1 -1,-1 z m -2,3 h -1 v -2 h 1 z m 0,-7 c 0.364,0 0.706,0.098 1,0.268 V 8 c 0,-0.552 -0.448,-1 -1,-1 0,0 0,1 0,1 z M 7,8 c 0,-1.656 1.344,-3 3,-3 1.656,0 3,1.344 3,3 z M 15,3 H 5 V 8 H 4 V 7 H 3.5 C 3.224,7 3,7.224 3,7.5 3,7.776 3.224,8 3.5,8 H 15 Z" />
    <rect
       y="0"
       x="0"
       height="22"
       width="22"
       id="rect817-3"
       style="fill:#ffffff;fill-opacity:0;stroke-width:1.12070084" />
  </g>
</svg>
