<?xml version="1.0" encoding="UTF-8" standalone="no"?>
<svg
   xmlns:dc="http://purl.org/dc/elements/1.1/"
   xmlns:cc="http://creativecommons.org/ns#"
   xmlns:rdf="http://www.w3.org/1999/02/22-rdf-syntax-ns#"
   xmlns:svg="http://www.w3.org/2000/svg"
   xmlns="http://www.w3.org/2000/svg"
   xmlns:sodipodi="http://sodipodi.sourceforge.net/DTD/sodipodi-0.dtd"
   xmlns:inkscape="http://www.inkscape.org/namespaces/inkscape"
   width="24"
   height="16"
   id="svg3869"
   version="1.1"
   viewBox="0 0 24 16"
   inkscape:version="0.92.3 (2405546, 2018-03-11)"
   sodipodi:docname="window.svgz">
  <sodipodi:namedview
     pagecolor="#ffffff"
     bordercolor="#666666"
     borderopacity="1"
     objecttolerance="10"
     gridtolerance="10"
     guidetolerance="10"
     inkscape:pageopacity="0"
     inkscape:pageshadow="2"
     inkscape:window-width="1920"
     inkscape:window-height="1011"
     id="namedview17"
     showgrid="false"
     inkscape:zoom="12.125"
     inkscape:cx="-12.022487"
     inkscape:cy="-14.535988"
     inkscape:window-x="0"
     inkscape:window-y="0"
     inkscape:window-maximized="1"
     inkscape:current-layer="svg3869" />
  <metadata
     id="metadata26">
    <rdf:RDF>
      <cc:Work
         rdf:about="">
        <dc:format>image/svg+xml</dc:format>
        <dc:type
           rdf:resource="http://purl.org/dc/dcmitype/StillImage" />
        <dc:title />
      </cc:Work>
    </rdf:RDF>
  </metadata>
  <defs
     id="defs3871">
    <style
       type="text/css"
       id="current-color-scheme">
      .ColorScheme-Text {
        color:#31363b;
      }
      .ColorScheme-Background {
        color:#eff0f1;
      }
      .ColorScheme-Highlight {
        color:#3daee9;
      }
      .ColorScheme-ViewText {
        color:#31363b;
      }
      .ColorScheme-ViewBackground {
        color:#fcfcfc;
      }
      .ColorScheme-ViewHover {
        color:#93cee9;
      }
      .ColorScheme-ViewFocus{
        color:#3daee9;
      }
      .ColorScheme-ButtonText {
        color:#31363b;
      }
      .ColorScheme-ButtonBackground {
        color:#eff0f1;
      }
      .ColorScheme-ButtonHover {
        color:#93cee9;
      }
      .ColorScheme-ButtonFocus{
        color:#3daee9;
      }
      .ColorScheme-NegativeText {
        color:#da4453;
      }
      </style>
  </defs>
  <g
     transform="translate(-4,16.049999)"
     style="clip-rule:evenodd;fill-rule:evenodd;stroke-linejoin:round;stroke-miterlimit:1.41420996"
     id="window-list">
    <path
       inkscape:connector-curvature="0"
       id="path2"
       d="m 26,8 c 1.104,0 2,0.896 2,2 v 12 c 0,1.104 -0.896,2 -2,2 H 6 C 4.896,24 4,23.104 4,22 V 10 C 4,8.896 4.896,8 6,8 Z m 0,1 H 6 C 5.448,9 5,9.448 5,10 v 12 c 0,0.552 0.448,1 1,1 h 20 c 0.552,0 1,-0.448 1,-1 V 10 C 27,9.448 26.552,9 26,9 Z"
       style="fill:#C3C7D1;fill-opacity:1" />
    <path
       inkscape:connector-curvature="0"
       id="path4"
       d="m 28,3 v 1 c 0,1.104 -0.896,2 -2,2 H 6 C 4.896,6 4,5.104 4,4 V 3 h 1 v 1 c 0,0.552 0.448,1 1,1 h 20 c 0.552,0 1,-0.448 1,-1 V 3 Z"
       style="fill:#C3C7D1;fill-opacity:1" />
    <path
       inkscape:connector-curvature="0"
       id="path6"
       d="m 28,29 v -1 c 0,-1.104 -0.896,-2 -2,-2 H 6 c -1.104,0 -2,0.896 -2,2 v 1 h 1 v -1 c 0,-0.552 0.448,-1 1,-1 h 20 c 0.552,0 1,0.448 1,1 v 1 z"
       style="fill:#C3C7D1;fill-opacity:1" />
    <rect
       y="-0.049999237"
       x="0"
       height="32.099998"
       width="32"
       id="rect821"
       style="fill:#ffffff;fill-opacity:0;stroke-width:1.13729405" />
  </g>
  <g
     id="window-unpin"
     transform="translate(41.639142,1.224389)">
    <path
       inkscape:connector-curvature="0"
       id="path829"
       d="m -21.639142,6.775611 a 4,4 0 0 0 -4,4 4,4 0 0 0 4,4 4,4 0 0 0 4,-4 4,4 0 0 0 -4,-4 z m 0,1 a 3,3 0 0 1 3,3 3,3 0 0 1 -3,3 3,3 0 0 1 -3,-3 3,3 0 0 1 3,-3 z"
       style="opacity:1;fill:#268aff;fill-opacity:1;stroke:none;stroke-width:0.78944016" />
    <circle
       r="3"
       cy="10.775611"
       cx="-21.639141"
       id="path847"
       style="opacity:0.4;fill:#268aff;fill-opacity:1;stroke:none;stroke-width:0.81780297" />
  </g>
  <g
     id="window-pin"
     transform="translate(41.639142,-6.775611)">
    <path
       inkscape:connector-curvature="0"
       id="path829-7"
       d="m -21.639142,6.775611 a 4,4 0 0 0 -4,4 4,4 0 0 0 4,4 4,4 0 0 0 4,-4 4,4 0 0 0 -4,-4 z m 0,1 a 3,3 0 0 1 3,3 3,3 0 0 1 -3,3 3,3 0 0 1 -3,-3 3,3 0 0 1 3,-3 z"
       style="opacity:0.4;fill:#000000;fill-opacity:1;stroke:none;stroke-width:0.78944016" />
    <circle
       r="3"
       cy="10.775611"
       cx="-21.639141"
       id="path847-5"
       style="opacity:0.8;fill:#ffffff;fill-opacity:1;stroke:none;stroke-width:0.81780297" />
  </g>
  <g
     id="edit-delete"
     transform="matrix(3.7795277,0,0,3.7795277,-138.16999,-978.76042)">
    <circle
       id="circle2-7"
       style="clip-rule:evenodd;fill:#ff4d62;fill-rule:evenodd;stroke-width:0.26458332;stroke-linejoin:round;stroke-miterlimit:1.41420996;fill-opacity:1"
       r="1.8520832"
       cy="261.08035"
       cx="38.674141" />
    <g
       transform="translate(0.0449676,-0.20083936)"
       id="g944">
      <path
         inkscape:connector-curvature="0"
         d="m 39.658151,260.4393 -0.187086,-0.18709 -1.870871,1.87087 0.187087,0.18709 z"
         style="clip-rule:evenodd;fill:#ffffff;fill-rule:evenodd;stroke-width:0.28990012;stroke-linejoin:round;stroke-miterlimit:1.41420996"
         id="path4-7-5" />
      <path
         inkscape:connector-curvature="0"
         d="m 37.600197,260.4393 0.187089,-0.18708 1.87087,1.87087 -0.187089,0.18708 z"
         style="clip-rule:evenodd;fill:#ffffff;fill-rule:evenodd;stroke-width:0.28989902;stroke-linejoin:round;stroke-miterlimit:1.41420996"
         id="path6-4-3" />
    </g>
    <rect
       y="258.96368"
       x="36.557476"
       height="4.2333331"
       width="4.2333331"
       id="rect826-5"
       style="clip-rule:evenodd;fill:#ffffff;fill-opacity:0;fill-rule:evenodd;stroke-width:0.24372686;stroke-linejoin:round;stroke-miterlimit:1.41420996" />
  </g>
</svg>
