<?xml version="1.0" encoding="UTF-8" standalone="no"?>
<svg
   xmlns:dc="http://purl.org/dc/elements/1.1/"
   xmlns:cc="http://creativecommons.org/ns#"
   xmlns:rdf="http://www.w3.org/1999/02/22-rdf-syntax-ns#"
   xmlns:svg="http://www.w3.org/2000/svg"
   xmlns="http://www.w3.org/2000/svg"
   xmlns:xlink="http://www.w3.org/1999/xlink"
   xmlns:sodipodi="http://sodipodi.sourceforge.net/DTD/sodipodi-0.dtd"
   xmlns:inkscape="http://www.inkscape.org/namespaces/inkscape"
   id="svg2"
   width="208"
   height="208"
   version="1"
   sodipodi:docname="clock.svg"
   inkscape:version="1.0rc1 (09960d6f05, 2020-04-09)">
  <metadata
     id="metadata55">
    <rdf:RDF>
      <cc:Work
         rdf:about="">
        <dc:format>image/svg+xml</dc:format>
        <dc:type
           rdf:resource="http://purl.org/dc/dcmitype/StillImage" />
      </cc:Work>
    </rdf:RDF>
  </metadata>
  <sodipodi:namedview
     pagecolor="#ffffff"
     bordercolor="#666666"
     borderopacity="1"
     objecttolerance="10"
     gridtolerance="10"
     guidetolerance="10"
     inkscape:pageopacity="0"
     inkscape:pageshadow="2"
     inkscape:window-width="1366"
     inkscape:window-height="722"
     id="namedview53"
     showgrid="false"
     inkscape:zoom="1.428084"
     inkscape:cx="112.5939"
     inkscape:cy="73.097188"
     inkscape:window-x="0"
     inkscape:window-y="22"
     inkscape:window-maximized="1"
     inkscape:current-layer="ClockFace"
     inkscape:document-rotation="0" />
  <defs
     id="defs5">
    <linearGradient
       id="linearGradient4011">
      <stop
         id="stop4013"
         offset="0"
         style="stop-color:#232629;stop-opacity:1" />
      <stop
         id="stop4019"
         offset=".9"
         style="stop-color:#232629;stop-opacity:0.52348995" />
      <stop
         id="stop4021"
         offset=".96"
         style="stop-color:#232629;stop-opacity:0.10738255" />
      <stop
         id="stop4015"
         offset="1"
         style="stop-color:#232629;stop-opacity:0" />
    </linearGradient>
    <radialGradient
       id="radialGradient4671"
       cx="1255.872"
       cy="382.729"
       r="96.606"
       fx="1255.872"
       fy="382.729"
       gradientTransform="matrix(1.0765432,0,0,1.0765432,-1252,-312.02447)"
       gradientUnits="userSpaceOnUse"
       xlink:href="#linearGradient4011" />
  </defs>
  <g
     id="ClockFace"
     transform="translate(4,4)">
    <circle
       id="path4329"
       cx="100"
       cy="100"
       r="104"
       style="fill:url(#radialGradient4671);fill-opacity:1;stroke:none" />
    <path
       style="opacity:0.95;fill:#1a1e21;fill-opacity:1;stroke:none"
       d="M 104,7.3945312 A 96.606003,96.606003 0 0 0 7.3945312,104 96.606003,96.606003 0 0 0 104,200.60547 96.606003,96.606003 0 0 0 200.60547,104 96.606003,96.606003 0 0 0 104,7.3945312 Z"
       transform="translate(-4,-4)"
       id="path5099"
       inkscape:connector-curvature="0" />
    <circle
       id="path5627"
       cx="100.001"
       cy="99.999001"
       r="96.606003"
       style="fill:none;stroke:#000000;stroke-opacity:0.2" />
    <g
       id="g4372"
       style="opacity:1;fill:#ffffff;fill-opacity:1">
      <path
         id="path4338"
         d="m 166.02675,66.274414 c 0.0774,0.09687 0.2131,0.135613 0.34871,0.135613 h 0.0774 7.55547 c 0.25184,0 0.46495,-0.213099 0.46495,-0.464953 0,-0.271221 -0.21311,-0.484321 -0.46495,-0.484321 h -6.41247 l 5.42444,-4.901361 c 0.96865,-0.891153 1.45298,-2.092276 1.45298,-3.293406 0,-1.046137 -0.3681,-2.111649 -1.16239,-2.964062 -0.87177,-0.988023 -2.0729,-1.45297 -3.25465,-1.45297 -1.06551,0 -2.1504,0.387458 -3.00282,1.143002 l -0.65867,0.619937 c -0.19374,0.154985 -0.2131,0.464949 -0.0193,0.658681 0.155,0.193732 0.46497,0.213099 0.65869,0.01935 l 0.65869,-0.600565 c 0.67805,-0.600558 1.51108,-0.891153 2.3635,-0.891153 0.94926,0 1.89854,0.387458 2.57659,1.143001 0.60057,0.658686 0.91054,1.491724 0.91054,2.324757 0,0.968648 -0.40683,1.898549 -1.16238,2.595977 l -6.33496,5.715025 c -0.19373,0.193732 -0.19373,0.484327 -0.0193,0.697427 z"
         style="font-style:normal;font-variant:normal;font-weight:normal;font-stretch:normal;font-size:medium;line-height:125%;font-family:Quicksand;-inkscape-font-specification:'Quicksand, Normal';text-align:start;letter-spacing:0px;word-spacing:0px;writing-mode:lr-tb;text-anchor:start;opacity:1;fill:#d3dae3;fill-opacity:1;stroke:none;stroke-width:1px;stroke-linecap:butt;stroke-linejoin:miter;stroke-opacity:1"
         inkscape:connector-curvature="0" />
      <path
         id="path4340"
         d="m 184.94189,93.921425 c 0.0388,-0.05812 0.0581,-0.135613 0.0581,-0.213106 0,-0.271221 -0.2131,-0.484322 -0.48433,-0.484322 h -6.33496 c -0.27121,0 -0.48433,0.213101 -0.48433,0.484322 0,0.271221 0.21312,0.484327 0.48433,0.484327 h 5.19196 l -3.3709,3.467758 c -0.19372,0.193732 -0.19372,0.503702 0,0.697428 0,0 0.0193,0 0.0193,0 0.0969,0.116234 0.23246,0.193732 0.38744,0.193732 0.9299,0 1.85982,0.34871 2.55724,1.065512 0.71679,0.697424 1.06551,1.627324 1.06551,2.557234 0,0.9299 -0.34872,1.8598 -1.06551,2.5766 -0.7168,0.69743 -1.6467,1.04614 -2.5766,1.04614 -0.9299,0 -1.84044,-0.34871 -2.55723,-1.04614 -0.19373,-0.19373 -0.5037,-0.19373 -0.67806,0 -0.19372,0.19373 -0.19372,0.5037 0,0.67805 0.89116,0.91053 2.07291,1.35611 3.23529,1.35611 0,0 0,0 0,0 1.18175,0 2.36349,-0.46495 3.25465,-1.35611 0.91053,-0.89115 1.35612,-2.0729 1.35612,-3.25465 0,-1.18175 -0.44559,-2.363508 -1.33674,-3.254662 -0.65869,-0.658679 -1.47234,-1.065512 -2.32477,-1.23987 l 3.50652,-3.603368 c 0.0386,-0.03878 0.0774,-0.09687 0.0969,-0.154985 z"
         style="font-style:normal;font-variant:normal;font-weight:normal;font-stretch:normal;font-size:medium;line-height:125%;font-family:Quicksand;-inkscape-font-specification:'Quicksand, Normal';text-align:start;letter-spacing:0px;word-spacing:0px;writing-mode:lr-tb;text-anchor:start;opacity:1;fill:#f67e7d;fill-opacity:1;stroke:none;stroke-width:1px;stroke-linecap:butt;stroke-linejoin:miter;stroke-opacity:1"
         inkscape:connector-curvature="0" />
      <path
         id="path4342"
         d="m 172.94722,146.66678 c 0,0.2518 0.2131,0.4649 0.46496,0.4649 0.27121,0 0.48432,-0.2131 0.48432,-0.4649 v -2.3248 h 0.91053 c 0.27121,0 0.48432,-0.21309 0.48432,-0.46496 0,-0.25181 -0.21311,-0.4649 -0.48432,-0.4649 h -0.91053 v -9.29907 -0.0579 c 0,-0.0191 -0.0193,-0.0388 -0.0193,-0.0775 -0.0388,-0.0775 -0.0774,-0.17432 -0.155,-0.23245 -0.2131,-0.17439 -0.48431,-0.15497 -0.65867,0.0579 l -0.0193,0.0191 -7.84604,9.76397 c -0.17436,0.19374 -0.15498,0.50367 0.0581,0.6587 0.0774,0.0775 0.19372,0.0968 0.29059,0.0968 h 0.0388 0.0193 7.34236 v 2.32473 z m -6.41245,-3.25466 6.41245,-7.94297 v 7.94297 z"
         style="font-style:normal;font-variant:normal;font-weight:normal;font-stretch:normal;font-size:medium;line-height:125%;font-family:Quicksand;-inkscape-font-specification:'Quicksand, Normal';text-align:start;letter-spacing:0px;word-spacing:0px;writing-mode:lr-tb;text-anchor:start;opacity:1;fill:#d3dae3;fill-opacity:1;stroke:none;stroke-width:1px;stroke-linecap:butt;stroke-linejoin:miter;stroke-opacity:1"
         inkscape:connector-curvature="0" />
      <path
         id="path4344"
         d="m 140.03361,176.71664 c 1.16236,0 2.36349,-0.46496 3.25465,-1.33669 0.91053,-0.8912 1.33674,-2.09228 1.33674,-3.25465 0,-1.20114 -0.42621,-2.36351 -1.33674,-3.25467 -0.89116,-0.91056 -2.05354,-1.33675 -3.23529,-1.33675 -0.81365,0 -1.60795,0.2131 -2.30537,0.61992 l 0.48431,-4.02954 h 5.90876 c 0.27122,0 0.48433,-0.19374 0.48433,-0.48437 0,-0.27123 -0.21311,-0.48432 -0.48433,-0.48432 h -6.31558 c -0.11622,0 -0.23248,0.0388 -0.30997,0.11622 -0.11622,0.0774 -0.19373,0.19374 -0.19373,0.3487 l -0.65868,5.46321 c 0,0.0388 -0.0194,0.0774 -0.0194,0.0969 0,0.058 0,0.11622 0.0194,0.15497 0,0.0192 0,0.0388 0.0194,0.058 v 0.0192 c 0.0194,0.058 0.0581,0.11621 0.11623,0.15504 0.17436,0.19367 0.48431,0.19367 0.67805,0 0.7168,-0.71683 1.62733,-1.06553 2.5766,-1.06553 0.9299,0 1.8598,0.3487 2.55723,1.0461 0.69744,0.69748 1.04614,1.62733 1.04614,2.57661 0,0.92992 -0.3487,1.84042 -1.06552,2.55725 -0.71679,0.71683 -1.62731,1.06553 -2.55722,1.06553 -0.9299,0 -1.84043,-0.3487 -2.55723,-1.04618 -0.19374,-0.19374 -0.50369,-0.19374 -0.69742,0 -0.19374,0.17439 -0.19374,0.48431 0,0.67805 0.89114,0.89116 2.07289,1.33676 3.25465,1.33676 z"
         style="font-style:normal;font-variant:normal;font-weight:normal;font-stretch:normal;font-size:medium;line-height:125%;font-family:Quicksand;-inkscape-font-specification:'Quicksand, Normal';text-align:start;letter-spacing:0px;word-spacing:0px;writing-mode:lr-tb;text-anchor:start;opacity:1;fill:#d3dae3;fill-opacity:1;stroke:none;stroke-width:1px;stroke-linecap:butt;stroke-linejoin:miter;stroke-opacity:1"
         inkscape:connector-curvature="0" />
      <path
         id="path4346"
         d="m 95.750181,182.31471 c 0,0.30993 0,0.60057 0.03871,0.89114 0.07749,2.40223 2.053535,4.3202 4.475159,4.3202 2.49911,0 4.49453,-1.99545 4.49453,-4.47516 0,-2.46041 -1.99542,-4.47516 -4.49453,-4.47516 -1.33674,0 -2.537862,0.60058 -3.351526,1.53044 0.193732,-0.96863 0.503695,-1.91791 0.968649,-2.71222 0.852411,-1.41423 2.053534,-2.38286 3.952087,-2.46034 0.25185,-0.0192 0.46495,-0.23246 0.46495,-0.50367 -0.0194,-0.25188 -0.23247,-0.46496 -0.48432,-0.44561 -2.247273,0.0774 -3.81648,1.29798 -4.746381,2.94466 -0.929902,1.60798 -1.297992,3.58402 -1.31736,5.38572 z m 0.988017,0.73618 c 0,-1.93732 1.588587,-3.52588 3.525882,-3.52588 1.97604,0 3.56462,1.58856 3.56462,3.52588 0,1.93726 -1.58858,3.52588 -3.56462,3.52588 -1.782317,0 -3.274035,-1.33674 -3.506508,-3.06091 0.01935,-0.0388 0.01935,-0.0776 0.01935,-0.13554 -0.01935,-0.0776 -0.03878,-0.15503 -0.03878,-0.25186 v -0.0774 z"
         style="font-style:normal;font-variant:normal;font-weight:normal;font-stretch:normal;font-size:medium;line-height:125%;font-family:Quicksand;-inkscape-font-specification:'Quicksand, Normal';text-align:start;letter-spacing:0px;word-spacing:0px;writing-mode:lr-tb;text-anchor:start;opacity:1;fill:#f67e7d;fill-opacity:1;stroke:none;stroke-width:1px;stroke-linecap:butt;stroke-linejoin:miter;stroke-opacity:1"
         inkscape:connector-curvature="0" />
      <path
         id="path4348"
         d="m 58.038885,176.64551 c 0.07749,0.0388 0.116234,0.0388 0.193728,0.0388 0.174358,0 0.348716,-0.11622 0.426205,-0.29064 l 5.250071,-12.47619 c 0.05812,-0.0774 0.07749,-0.15497 0.07749,-0.25181 0,-0.058 -0.01935,-0.0969 -0.03878,-0.15502 -0.03878,-0.11622 -0.135613,-0.23245 -0.251849,-0.29058 -0.09687,-0.0388 -0.193732,-0.0388 -0.290594,-0.0192 H 56.23716 c -0.251847,0 -0.464954,0.2131 -0.464954,0.46497 0,0.25186 0.213107,0.46495 0.464954,0.46495 h 6.548064 l -5.017598,11.89497 c -0.07749,0.23252 0.03871,0.52309 0.271221,0.61993 z"
         style="font-style:normal;font-variant:normal;font-weight:normal;font-stretch:normal;font-size:medium;line-height:125%;font-family:Quicksand;-inkscape-font-specification:'Quicksand, Normal';text-align:start;letter-spacing:0px;word-spacing:0px;writing-mode:lr-tb;text-anchor:start;opacity:1;fill:#d3dae3;fill-opacity:1;stroke:none;stroke-width:1px;stroke-linecap:butt;stroke-linejoin:miter;stroke-opacity:1"
         inkscape:connector-curvature="0" />
      <path
         id="path4350"
         d="m 27.513611,136.40801 c 0,0.94928 0.445573,1.76294 1.123628,2.28603 -1.588582,0.6587 -2.712216,2.24725 -2.712216,4.06832 0,2.44099 1.976046,4.39768 4.397666,4.39768 2.440993,0 4.397665,-1.95669 4.397665,-4.39768 0,-1.82107 -1.123634,-3.40962 -2.731588,-4.06832 0.697427,-0.52309 1.162375,-1.33675 1.162375,-2.28603 0,-1.54978 -1.278612,-2.80905 -2.828452,-2.80905 -1.569207,0 -2.809078,1.25927 -2.809078,2.80905 z m -0.658686,6.35435 c 0,-1.89855 1.54984,-3.46775 3.467764,-3.46775 1.937298,0 3.467757,1.5692 3.467757,3.46775 0,1.91791 -1.530459,3.46775 -3.467757,3.46775 -1.917924,0 -3.467764,-1.54984 -3.467764,-3.46775 z m 1.588588,-6.35435 c 0,-1.04611 0.833037,-1.87913 1.879176,-1.87913 1.046138,0 1.89855,0.83302 1.89855,1.87913 0,1.04618 -0.852412,1.89855 -1.89855,1.91797 -1.046139,-0.0191 -1.879176,-0.87179 -1.879176,-1.91797 z"
         style="font-style:normal;font-variant:normal;font-weight:normal;font-stretch:normal;font-size:medium;line-height:125%;font-family:Quicksand;-inkscape-font-specification:'Quicksand, Normal';text-align:start;letter-spacing:0px;word-spacing:0px;writing-mode:lr-tb;text-anchor:start;opacity:1;fill:#d3dae3;fill-opacity:1;stroke:none;stroke-width:1px;stroke-linecap:butt;stroke-linejoin:miter;stroke-opacity:1"
         inkscape:connector-curvature="0" />
      <path
         id="path4352"
         d="m 15.000074,97.679759 c 0,2.499111 2.014794,4.475151 4.475155,4.475151 1.356107,0 2.557236,-0.56181 3.3709,-1.49171 -0.174358,0.96865 -0.5037,1.89855 -0.968649,2.71221 -0.833037,1.41423 -2.072909,2.38288 -3.952084,2.46037 -0.271222,0.0194 -0.464955,0.23247 -0.464955,0.50369 0,0.25185 0.213107,0.44558 0.484328,0.44558 h 0.01935 c 2.227888,-0.0775 3.816468,-1.33673 4.746376,-2.94468 0.910528,-1.60796 1.297986,-3.60338 1.297986,-5.405061 0,-0.406832 -0.01935,-0.794297 -0.03878,-1.162381 -0.01935,-0.03878 -0.01935,-0.05812 -0.03878,-0.09687 -0.251833,-2.227887 -2.13101,-3.95208 -4.455767,-3.95208 C 17.014794,93.223978 15,95.219392 15,97.679759 Z m 4.475155,3.525881 c -1.937291,0 -3.52588,-1.549835 -3.52588,-3.525881 0,-1.937297 1.588589,-3.506505 3.52588,-3.506505 1.976046,0 3.545253,1.569208 3.545253,3.506505 0,1.976046 -1.569207,3.525881 -3.545253,3.525881 z"
         style="font-style:normal;font-variant:normal;font-weight:normal;font-stretch:normal;font-size:medium;line-height:125%;font-family:Quicksand;-inkscape-font-specification:'Quicksand, Normal';text-align:start;letter-spacing:0px;word-spacing:0px;writing-mode:lr-tb;text-anchor:start;opacity:1;fill:#f67e7d;fill-opacity:1;stroke:none;stroke-width:1px;stroke-linecap:butt;stroke-linejoin:miter;stroke-opacity:1"
         inkscape:connector-curvature="0" />
      <path
         id="path4354"
         d="m 24.690078,65.945059 c 0,0.251854 0.213106,0.464954 0.464953,0.464954 0.271222,0 0.464954,-0.2131 0.464954,-0.464954 V 53.488245 c 0.01936,-0.116237 0,-0.232474 -0.05813,-0.348711 -0.116236,-0.213106 -0.426206,-0.290595 -0.639306,-0.174358 L 22.3072,54.553757 c -0.232474,0.116237 -0.309969,0.387458 -0.174359,0.639312 0.0775,0.135611 0.23248,0.232474 0.406833,0.232474 0.07749,0 0.174358,-0.03877 0.232479,-0.0775 l 1.917919,-1.123627 v 11.720639 z"
         style="font-style:normal;font-variant:normal;font-weight:normal;font-stretch:normal;font-size:medium;line-height:125%;font-family:Quicksand;-inkscape-font-specification:'Quicksand, Normal';text-align:start;letter-spacing:0px;word-spacing:0px;writing-mode:lr-tb;text-anchor:start;opacity:1;fill:#d3dae3;fill-opacity:1;stroke:none;stroke-width:1px;stroke-linecap:butt;stroke-linejoin:miter;stroke-opacity:1"
         inkscape:connector-curvature="0" />
      <path
         id="path4356"
         d="m 30.481384,64.356478 c 0.833032,1.220497 2.014787,2.053535 3.390268,2.053535 1.375481,0 2.55723,-0.833038 3.390269,-2.053535 0.813664,-1.239871 1.317359,-2.905941 1.317359,-4.727002 0,-1.821061 -0.503695,-3.487132 -1.317359,-4.746376 -0.833039,-1.201123 -2.014788,-2.034161 -3.390269,-2.034161 -1.375481,0 -2.557236,0.833038 -3.390268,2.034161 -0.833039,1.259244 -1.297992,2.925315 -1.297992,4.746376 0,1.821061 0.464953,3.487131 1.297992,4.727002 z m 0.79429,-8.930935 c 0.697428,-1.065512 1.627329,-1.627329 2.595978,-1.627329 0,0 0,0 0,0 0.968649,0 1.879177,0.561817 2.595978,1.627329 0.697422,1.046138 1.162375,2.537856 1.162375,4.203933 0,1.666076 -0.464953,3.157795 -1.162375,4.203933 -0.716801,1.026764 -1.627329,1.627329 -2.595978,1.627329 -0.968649,0 -1.89855,-0.600565 -2.595978,-1.627329 -0.697427,-1.046138 -1.143007,-2.537857 -1.143007,-4.203933 0,-1.666077 0.44558,-3.157795 1.143007,-4.203933 z"
         style="font-style:normal;font-variant:normal;font-weight:normal;font-stretch:normal;font-size:medium;line-height:125%;font-family:Quicksand;-inkscape-font-specification:'Quicksand, Normal';text-align:start;letter-spacing:0px;word-spacing:0px;writing-mode:lr-tb;text-anchor:start;opacity:1;fill:#d3dae3;fill-opacity:1;stroke:none;stroke-width:1px;stroke-linecap:butt;stroke-linejoin:miter;stroke-opacity:1"
         inkscape:connector-curvature="0" />
      <path
         id="path4358"
         d="m 56.852222,36.357429 c 0,0.251854 0.2131,0.464954 0.464948,0.464954 0.271221,0 0.464953,-0.2131 0.464953,-0.464954 V 23.900615 c 0.01936,-0.116237 0,-0.232474 -0.05813,-0.348711 -0.116237,-0.213106 -0.4262,-0.290595 -0.639306,-0.174358 l -2.615352,1.588581 c -0.232474,0.116237 -0.309963,0.387458 -0.174352,0.639312 0.07749,0.135611 0.232473,0.232474 0.406832,0.232474 0.07749,0 0.174352,-0.03877 0.232474,-0.0775 l 1.917924,-1.123627 v 11.720639 z"
         style="font-style:normal;font-variant:normal;font-weight:normal;font-stretch:normal;font-size:medium;line-height:125%;font-family:Quicksand;-inkscape-font-specification:'Quicksand, Normal';text-align:start;letter-spacing:0px;word-spacing:0px;writing-mode:lr-tb;text-anchor:start;opacity:1;fill:#d3dae3;fill-opacity:1;stroke:none;stroke-width:1px;stroke-linecap:butt;stroke-linejoin:miter;stroke-opacity:1"
         inkscape:connector-curvature="0" />
      <path
         id="path4360"
         d="m 64.593154,36.357429 c 0,0.251854 0.213106,0.464954 0.464954,0.464954 0.271222,0 0.464948,-0.2131 0.464948,-0.464954 V 23.900615 c 0.01936,-0.116237 0,-0.232474 -0.05813,-0.348711 -0.116237,-0.213106 -0.426206,-0.290595 -0.639306,-0.174358 l -2.615352,1.588581 c -0.232474,0.116237 -0.309969,0.387458 -0.174358,0.639312 0.07749,0.135611 0.232474,0.232474 0.406832,0.232474 0.07749,0 0.174358,-0.03877 0.232474,-0.0775 l 1.917924,-1.123627 v 11.720639 z"
         style="font-style:normal;font-variant:normal;font-weight:normal;font-stretch:normal;font-size:medium;line-height:125%;font-family:Quicksand;-inkscape-font-specification:'Quicksand, Normal';text-align:start;letter-spacing:0px;word-spacing:0px;writing-mode:lr-tb;text-anchor:start;opacity:1;fill:#d3dae3;fill-opacity:1;stroke:none;stroke-width:1px;stroke-linecap:butt;stroke-linejoin:miter;stroke-opacity:1"
         inkscape:connector-curvature="0" />
      <path
         id="path4362"
         d="m 88.82413,31.601504 c 0,0.492376 0.483132,0.908989 1.054096,0.908989 0.614884,0 1.05408,-0.416613 1.05408,-0.908989 V 7.2483279 c 0.04389,-0.2272443 0,-0.4544886 -0.131786,-0.681733 -0.263521,-0.416624 -0.966253,-0.5681156 -1.449369,-0.3408713 l -5.929257,3.1056892 c -0.527054,0.2272443 -0.702729,0.7574832 -0.395288,1.2498602 0.175677,0.265121 0.527041,0.454489 0.92233,0.454489 0.175677,0 0.395286,-0.0758 0.527038,-0.151513 L 88.824096,8.6875484 V 31.601496 Z"
         style="font-style:normal;font-variant:normal;font-weight:normal;font-stretch:normal;font-size:medium;line-height:125%;font-family:Quicksand;-inkscape-font-specification:'Quicksand, Normal';text-align:start;letter-spacing:0px;word-spacing:0px;writing-mode:lr-tb;text-anchor:start;opacity:1;fill:#f67e7d;fill-opacity:1;stroke:none;stroke-width:2.10528px;stroke-linecap:butt;stroke-linejoin:miter;stroke-opacity:1"
         inkscape:connector-curvature="0" />
      <path
         id="path4364"
         d="m 98.483881,32.245372 c 0.1757,0.189362 0.483132,0.265121 0.790575,0.265121 h 0.175678 17.128946 c 0.57097,0 1.05408,-0.416613 1.05408,-0.908989 0,-0.53024 -0.48311,-0.946852 -1.05408,-0.946852 h -14.53765 l 12.29771,-9.582202 c 2.19602,-1.742211 3.29402,-4.090417 3.29402,-6.438634 0,-2.045211 -0.83447,-4.128296 -2.6352,-5.7947682 -1.97643,-1.9315932 -4.69949,-2.8405685 -7.37863,-2.8405685 -2.41564,0 -4.87517,0.7574836 -6.80766,2.2345765 l -1.493289,1.211984 c -0.439209,0.302997 -0.483132,0.9089772 -0.04389,1.2877252 0.351364,0.378749 1.054079,0.416612 1.493309,0.03785 l 1.49329,-1.1741099 c 1.53721,-1.1740959 3.42579,-1.7422136 5.35828,-1.7422136 2.15209,0 4.3042,0.7574856 5.84141,2.2345785 1.36152,1.287737 2.06426,2.916333 2.06426,4.544918 0,1.893716 -0.92233,3.711683 -2.63523,5.075158 L 98.527838,30.881867 c -0.439198,0.378748 -0.439198,0.946865 -0.04389,1.363478 z"
         style="font-style:normal;font-variant:normal;font-weight:normal;font-stretch:normal;font-size:medium;line-height:125%;font-family:Quicksand;-inkscape-font-specification:'Quicksand, Normal';text-align:start;letter-spacing:0px;word-spacing:0px;writing-mode:lr-tb;text-anchor:start;opacity:1;fill:#f67e7d;fill-opacity:1;stroke:none;stroke-width:2.10528px;stroke-linecap:butt;stroke-linejoin:miter;stroke-opacity:1"
         inkscape:connector-curvature="0" />
      <path
         id="path4336"
         d="m 141.4727,36.35739 c 0,0.251854 0.21311,0.464953 0.46495,0.464953 0.27123,0 0.46495,-0.213099 0.46495,-0.464953 V 23.900576 c 0.0193,-0.116234 0,-0.232474 -0.0581,-0.348711 -0.11621,-0.213105 -0.4262,-0.290595 -0.6393,-0.174358 l -2.61536,1.588581 c -0.23247,0.116233 -0.30996,0.387458 -0.17436,0.639313 0.0774,0.135613 0.23248,0.232473 0.40684,0.232473 0.0774,0 0.17436,-0.03878 0.23247,-0.07749 l 1.91792,-1.123627 v 11.720638 z"
         style="font-style:normal;font-variant:normal;font-weight:normal;font-stretch:normal;font-size:medium;line-height:125%;font-family:Quicksand;-inkscape-font-specification:'Quicksand, Normal';text-align:start;letter-spacing:0px;word-spacing:0px;writing-mode:lr-tb;text-anchor:start;opacity:1;fill:#d3dae3;fill-opacity:1;stroke:none;stroke-width:1px;stroke-linecap:butt;stroke-linejoin:miter;stroke-opacity:1"
         inkscape:connector-curvature="0" />
    </g>
  </g>
  <g
     id="HourHand"
     transform="rotate(-126.87095,439.42707,568.39951)">
    <rect
       id="rect4673"
       width="18"
       height="64"
       x="33"
       y="91"
       transform="rotate(126.87095,409.42971,584.46862)"
       style="opacity:0.00100002;fill:#000000;fill-opacity:1;stroke:none" />
    <path
       id="rect5450"
       d="m 980.52302,549.88656 -5.95481,-0.74154 2.52119,5.5089 0.0361,-0.0506 34.4809,25.90467 3.4218,-4.69848 -34.48069,-25.90464 z"
       style="fill:#d3dae3;fill-opacity:1;stroke:none"
       inkscape:connector-curvature="0" />
    <circle
       id="path5455-2"
       cx="1771.396"
       cy="382.03201"
       r="6.4990001"
       transform="translate(-753.93395,199.18469)"
       style="fill:#d3dae3;fill-opacity:1;stroke:none" />
  </g>
  <g
     id="MinuteHand"
     transform="rotate(120.21865,697.10226,78.505955)"
     style="fill:#717171;fill-opacity:1">
    <rect
       id="rect4675"
       width="12"
       height="85"
       x="64"
       y="94"
       transform="rotate(-120.21865,682.04378,68.318515)"
       style="opacity:0.00100002;fill:#000000;fill-opacity:1;stroke:none" />
    <path
       id="rect5459"
       d="m 588.1651,1012.6153 75.73595,7e-4 v 3 l -75.73595,-7e-4 z"
       transform="rotate(-30.2)"
       style="fill:#d3dae3;fill-opacity:1;stroke:none"
       inkscape:connector-curvature="0" />
    <circle
       id="path5457"
       cx="1771.396"
       cy="382.03201"
       r="6.4990001"
       transform="matrix(0.56475116,0,0,0.56475116,17.103729,365.50423)"
       style="fill:#d3dae3;fill-opacity:1;stroke:none" />
  </g>
  <g
     id="SecondHand"
     transform="rotate(120.04085,699.35491,77.416564)"
     style="fill:#e74c3c;fill-opacity:1">
    <rect
       id="rect6212"
       width="77.736"
       height="1.732"
       x="589.79999"
       y="1011.19"
       transform="rotate(-30)"
       style="fill:#5e81ac;fill-opacity:1;stroke:none" />
    <rect
       id="rect4677"
       width="8"
       height="7"
       x="106"
       y="96"
       transform="rotate(-120.04085,702.50009,78.91185)"
       style="opacity:0.01;fill:#5294e2;fill-opacity:1;stroke:none" />
    <path
       id="path6214"
       d="m 1777.8958,382.03223 c 0,3.58955 -2.9099,6.49945 -6.4994,6.49945 -3.5896,0 -6.4995,-2.9099 -6.4995,-6.49945 0,-3.58955 2.9099,-6.49946 6.4995,-6.49946 3.5895,0 6.4994,2.90991 6.4994,6.49946 z"
       transform="matrix(0.29783451,0,0,0.29783451,489.8134,467.44934)"
       style="fill:#5294e2;fill-opacity:1;stroke:none"
       inkscape:connector-curvature="0" />
  </g>
  <g
     id="HourHandShadow"
     transform="matrix(-0.60001469,-0.79998898,0.79998898,-0.60001469,467.12524,1270.6976)"
     style="opacity:0.1">
    <path
       id="path4376"
       d="m 980.52302,549.88656 -5.95481,-0.74154 2.52119,5.5089 0.0361,-0.0506 34.4809,25.90467 3.4218,-4.69848 -34.48069,-25.90464 z"
       style="fill:#262626;fill-opacity:0;stroke:none" />
    <circle
       id="path4378"
       cx="1771.396"
       cy="382.032"
       r="6.499"
       transform="translate(-754,199.1995)"
       style="fill:#232629;fill-opacity:0.00392157;stroke:none" />
  </g>
  <g
     id="SecondHandShadow"
     transform="matrix(-0.50061728,0.86566872,-0.86566872,-0.50061728,1296.4953,-481.71587)"
     style="opacity:0.1;fill:#232629;fill-opacity:0">
    <path
       id="rect4414"
       d="m 591.80505,1011.186 75.73595,0 0,1.7321 -75.73595,0 z"
       transform="matrix(0.8660254,-0.5,0.5,0.8660254,0,0)"
       style="fill:#232629;fill-opacity:0;stroke:none" />
    <circle
       id="path4416"
       cx="1771.396"
       cy="382.032"
       r="6.499"
       transform="matrix(0.29783451,0,0,0.29783451,489.8134,467.44934)"
       style="fill:#232629;fill-opacity:0;stroke:none" />
    <rect
       id="rect4715"
       width="6"
       height="82"
       x="113"
       y="97"
       transform="matrix(-0.50061728,-0.86566873,0.86566873,-0.50061728,988.87596,731.74286)"
       style="opacity:0.01000001;fill:#232629;fill-opacity:0;stroke:none" />
  </g>
  <circle
     id="HandCenterScrew"
     cx="0"
     cy="8"
     r="0"
     style="opacity:0.00100002;fill:#232629;fill-opacity:1;stroke:none" />
  <g
     id="MinuteHandShadow"
     transform="matrix(-0.50330119,0.86411105,-0.86411105,-0.50330119,1348.3525,-478.65826)"
     style="opacity:0.1;fill:#232629;fill-opacity:1">
    <path
       id="rect4404"
       d="m 590.1651,1012.6146 73.73595,0 0,3 -73.73595,0 z"
       transform="matrix(0.8642748,-0.50301995,0.50301995,0.8642748,0,0)"
       style="fill:#262626;fill-opacity:0;stroke:none" />
    <circle
       id="path4406"
       cx="1771.396"
       cy="382.032"
       r="6.499"
       transform="matrix(0.62496371,0,0,0.62496371,-89.662081,342.47545)"
       style="fill:#232629;fill-opacity:0.00392157;stroke:none" />
  </g>
</svg>
