<?xml version="1.0" encoding="UTF-8" standalone="no"?><!-- Generator: Gravit.io --><svg xmlns="http://www.w3.org/2000/svg" xmlns:xlink="http://www.w3.org/1999/xlink" style="isolation:isolate" viewBox="0 0 44 44" width="44pt" height="44pt"><g opacity="0.8"><path d=" M 1.505 22 C 1.505 10.686 10.691 1.5 22.005 1.5 C 33.319 1.5 42.505 10.686 42.505 22 C 42.505 33.314 33.319 42.5 22.005 42.5 C 10.691 42.5 1.505 33.314 1.505 22 Z  M 2.505 22 C 2.505 16.83 4.565 11.87 8.215 8.21 C 11.875 4.56 16.835 2.5 22.005 2.5 C 27.175 2.5 32.135 4.56 35.795 8.21 C 39.445 11.87 41.505 16.83 41.505 22 C 41.505 27.17 39.445 32.13 35.795 35.79 C 32.135 39.44 27.175 41.5 22.005 41.5 C 16.835 41.5 11.875 39.44 8.215 35.79 C 4.565 32.13 2.505 27.17 2.505 22 Z " fill-rule="evenodd" fill="rgb(9,8,38)"/></g><defs><filter id="qhWYqs3zBVdiu0LooaUwOcci0TMuOAtg" x="-200%" y="-200%" width="400%" height="400%" filterUnits="objectBoundingBox" color-interpolation-filters="sRGB"><feGaussianBlur xmlns="http://www.w3.org/2000/svg" in="SourceGraphic" stdDeviation="64.40413594258543"/><feOffset xmlns="http://www.w3.org/2000/svg" dx="0" dy="0" result="pf_100_offsetBlur"/><feFlood xmlns="http://www.w3.org/2000/svg" flood-color="#FF0000" flood-opacity="0.65"/><feComposite xmlns="http://www.w3.org/2000/svg" in2="pf_100_offsetBlur" operator="in" result="pf_100_dropShadow"/><feBlend xmlns="http://www.w3.org/2000/svg" in="SourceGraphic" in2="pf_100_dropShadow" mode="normal"/></filter></defs><g filter="url(#qhWYqs3zBVdiu0LooaUwOcci0TMuOAtg)"><linearGradient id="_lgradient_1" x1="-0.09462955338042023" y1="-0.010416666666666852" x2="1.000576454825938" y2="1.0042535819637588" gradientTransform="matrix(24.16,0,0,21,1.505,21.5)" gradientUnits="userSpaceOnUse"><stop offset="0%" stop-opacity="1" style="stop-color:rgb(84,51,255)"/><stop offset="38.637727592154384%" stop-opacity="1" style="stop-color:rgb(32,189,255)"/><stop offset="69.16985739308446%" stop-opacity="0.16" style="stop-color:rgb(100,222,228)"/><stop offset="98.26086956521739%" stop-opacity="0" style="stop-color:rgb(165,254,203)"/></linearGradient><path d=" M 25.015 41.27 L 25.015 41.27 C 25.291 41.226 25.549 41.412 25.59 41.685 L 25.59 41.685 C 25.631 41.958 25.445 42.216 25.175 42.26 L 25.175 42.26 C 24.125 42.42 23.065 42.5 22.005 42.5 C 16.575 42.5 11.355 40.34 7.515 36.49 C 3.665 32.65 1.505 27.43 1.505 22 L 1.505 21.5 L 2.505 21.5 L 2.505 22 C 2.505 27.17 4.565 32.13 8.215 35.79 C 11.875 39.44 16.835 41.5 22.005 41.5 C 23.015 41.5 24.025 41.42 25.015 41.27 Z " fill="url(#_lgradient_1)"/></g><path d=" M 2.505 21.64 L 2.495 22.14 L 1.495 22.12 L 1.505 21.62 C 1.515 20.98 1.565 20.34 1.635 19.7 L 1.635 19.7 C 1.663 19.424 1.909 19.225 2.185 19.255 L 2.185 19.255 C 2.461 19.285 2.658 19.534 2.625 19.81 L 2.625 19.81 C 2.555 20.42 2.515 21.03 2.505 21.64 Z " fill="rgb(255,255,255)"/></svg>