<?xml version="1.0" encoding="UTF-8" standalone="no"?><!-- Generator: Gravit.io --><svg xmlns="http://www.w3.org/2000/svg" xmlns:xlink="http://www.w3.org/1999/xlink" style="isolation:isolate" viewBox="0 0 44 44" width="44pt" height="44pt"><path d=" M 1.5 22 C 1.5 10.686 10.686 1.5 22 1.5 C 33.314 1.5 42.5 10.686 42.5 22 C 42.5 33.314 33.314 42.5 22 42.5 C 10.686 42.5 1.5 33.314 1.5 22 Z  M 2.5 22 C 2.5 16.83 4.56 11.87 8.21 8.21 C 11.87 4.56 16.83 2.5 22 2.5 C 27.17 2.5 32.13 4.56 35.79 8.21 C 39.44 11.87 41.5 16.83 41.5 22 C 41.5 27.17 39.44 32.13 35.79 35.79 C 32.13 39.44 27.17 41.5 22 41.5 C 16.83 41.5 11.87 39.44 8.21 35.79 C 4.56 32.13 2.5 27.17 2.5 22 Z " fill-rule="evenodd" fill="rgb(41,32,72)"/><defs><filter id="pZsLpuEib01tEP5RZu3cE9HARYpJvcq8" x="-200%" y="-200%" width="400%" height="400%" filterUnits="objectBoundingBox" color-interpolation-filters="sRGB"><feGaussianBlur xmlns="http://www.w3.org/2000/svg" in="SourceGraphic" stdDeviation="21.46804531419514"/><feOffset xmlns="http://www.w3.org/2000/svg" dx="0" dy="0" result="pf_100_offsetBlur"/><feFlood xmlns="http://www.w3.org/2000/svg" flood-color="#FF0000" flood-opacity="0.65"/><feComposite xmlns="http://www.w3.org/2000/svg" in2="pf_100_offsetBlur" operator="in" result="pf_100_dropShadow"/><feBlend xmlns="http://www.w3.org/2000/svg" in="SourceGraphic" in2="pf_100_dropShadow" mode="normal"/></filter></defs><g filter="url(#pZsLpuEib01tEP5RZu3cE9HARYpJvcq8)"><linearGradient id="_lgradient_7" x1="0.00270673619093844" y1="0.09687499999999982" x2="1.2744139770860718" y2="1.0629766949152546" gradientTransform="matrix(24.16,0,0,21,1.5,21.5)" gradientUnits="userSpaceOnUse"><stop offset="0%" stop-opacity="1" style="stop-color:rgb(255,0,145)"/><stop offset="98.33333333333333%" stop-opacity="0" style="stop-color:rgb(0,0,0)"/></linearGradient><path d=" M 25.01 41.27 L 25.01 41.27 C 25.286 41.226 25.544 41.412 25.585 41.685 L 25.585 41.685 C 25.626 41.958 25.44 42.216 25.17 42.26 L 25.17 42.26 C 24.12 42.42 23.06 42.5 22 42.5 C 16.57 42.5 11.35 40.34 7.51 36.49 C 3.66 32.65 1.5 27.43 1.5 22 L 1.5 21.5 L 2.5 21.5 L 2.5 22 C 2.5 27.17 4.56 32.13 8.21 35.79 C 11.87 39.44 16.83 41.5 22 41.5 C 23.01 41.5 24.02 41.42 25.01 41.27 Z " fill="url(#_lgradient_7)"/></g><path d=" M 2.5 21.64 L 2.49 22.14 L 1.49 22.12 L 1.5 21.62 C 1.51 20.98 1.56 20.34 1.63 19.7 L 1.63 19.7 C 1.658 19.424 1.904 19.225 2.18 19.255 L 2.18 19.255 C 2.456 19.285 2.653 19.534 2.62 19.81 L 2.62 19.81 C 2.55 20.42 2.51 21.03 2.5 21.64 Z " fill="rgb(255,255,255)"/></svg>